<?xml version="1.0" encoding="utf-8"?>
<svg xmlns="http://www.w3.org/2000/svg" viewBox="0 0 720 333"><defs><style>.cls-1{isolation:isolate;}.cls-2{fill:#ddd;}.cls-3{fill:#262626;opacity:0.29;mix-blend-mode:multiply;}.cls-4{fill:#505050;}.cls-5{fill:#cf122d;}</style></defs><g class="cls-1"><g id="Layer_1" data-name="Layer 1"><path class="cls-2" d="M666,103.46v0a66.08,66.08,0,0,1-.43,7.62c0,.37-.08.73-.13,1.1s-.09.71-.15,1.06a62.44,62.44,0,0,1-1.26,6.43c-.07.31-.15.63-.23.94a67.19,67.19,0,0,1-2.33,7.2l-.42,1.06A66.61,66.61,0,0,1,655.3,140c-.57.91-1.18,1.8-1.8,2.67,0,0,0,0,0,0l-.42.59,0,0c-.39.54-.79,1.07-1.21,1.6A67.34,67.34,0,0,1,603,170.85h-.15c-.69,0-1.39.08-2.09.1s-1.49,0-2.25,0a67.37,67.37,0,0,1-53.45-26.28c-.29-.36-.56-.73-.84-1.1A67.33,67.33,0,0,1,536,128.91c-.15-.35-.29-.7-.42-1.06l-.33-.87c-.11-.29-.22-.58-.32-.88q-.32-.87-.6-1.77t-.54-1.74s0-.1,0-.15c-.16-.57-.32-1.14-.47-1.71-.22-.83-.42-1.65-.6-2.49-.07-.34-.15-.67-.22-1,0,0,0,0,0,0s0-.27-.08-.41a.19.19,0,0,1,0-.08c-.08-.36-.15-.73-.21-1.1s-.1-.49-.13-.75c-.1-.52-.18-1-.25-1.57-.06-.35-.11-.71-.15-1.06s-.09-.7-.13-1v0c-.15-1.27-.25-2.55-.32-3.84,0-.31,0-.62-.05-.92,0-1-.06-1.92-.06-2.89v-.16c0-.89,0-1.78.06-2.65a.76.76,0,0,1,0-.15c0-.49,0-1,.08-1.46s.07-1,.11-1.44.1-1.16.17-1.74h0a.17.17,0,0,1,0-.07c.07-.57.13-1.12.21-1.68.05-.34.09-.69.15-1s.11-.69.17-1c.08-.51.17-1,.27-1.52s.19-.92.28-1.37c.15-.71.32-1.41.49-2.11s.3-1.14.46-1.71l.3-1.06c.1-.35.21-.69.32-1s.27-.85.41-1.27.24-.71.37-1.06c.33-1,.69-1.9,1.08-2.84.07-.18.15-.35.23-.53,0,0,0,0,0,0s.09-.23.14-.35c.4-1,.83-1.9,1.28-2.84.27-.57.55-1.13.85-1.69a4.63,4.63,0,0,1,.28-.54q.43-.85.93-1.71c.22-.4.44-.78.68-1.17s.45-.78.69-1.16c.38-.62.78-1.24,1.18-1.85l0,0c.42-.63.85-1.25,1.29-1.87a5.74,5.74,0,0,1,.36-.5c.28-.39.57-.78.87-1.16a5.51,5.51,0,0,1,.38-.5c.36-.47.73-.93,1.1-1.39.94-1.16,1.93-2.28,3-3.37.3-.32.6-.63.92-.95s.77-.8,1.17-1.19.87-.84,1.31-1.25c.28-.27.57-.53.86-.77s.54-.5.81-.73l0,0c.21-.19.44-.38.66-.56a1.14,1.14,0,0,1,.17-.15q.42-.36.84-.69c.39-.33.78-.64,1.18-.93a4.61,4.61,0,0,1,.5-.4l.06,0c.4-.31.8-.61,1.21-.9.59-.44,1.19-.86,1.81-1.26.24-.18.49-.34.74-.5a1,1,0,0,1,.22-.14l.62-.41q1.83-1.17,3.75-2.22l.57-.31c1.2-.65,2.43-1.26,3.68-1.83.33-.16.66-.31,1-.45a66.37,66.37,0,0,1,17.9-5.07l1.21-.16c1.08-.13,2.16-.23,3.26-.31l1.2-.07c.73,0,1.47-.07,2.2-.08.24,0,.48,0,.71,0h.72c.76,0,1.51,0,2.26,0s1.49.06,2.23.11a67.46,67.46,0,0,1,55.52,36.43l0,.06c.19.36.38.73.55,1.1.11.21.22.43.32.65.23.48.46,1,.68,1.45s.4.91.59,1.37c.52,1.22,1,2.47,1.45,3.73.13.35.25.71.37,1.06q1.05,3.12,1.8,6.38c.08.33.15.66.22,1,.45,2.13.81,4.3,1.05,6.5.07.58.13,1.17.17,1.76Q666,100.52,666,103.46Z"/><path class="cls-3" d="M603,170.85c-1.49.1-3,.15-4.49.15a67.37,67.37,0,0,1-53.45-26.28c-.29-.36-.56-.73-.84-1.1A67.33,67.33,0,0,1,536,128.91c-.15-.35-.29-.7-.42-1.06a67.74,67.74,0,0,1-1-45.85c.12-.36.24-.71.37-1.06.44-1.27.93-2.51,1.45-3.74.4-1,.83-1.9,1.28-2.84A67.49,67.49,0,0,1,598.5,36c1.51,0,3,0,4.49.15A67.5,67.5,0,0,0,546.6,74.36c-.45.94-.88,1.88-1.28,2.84-.52,1.23-1,2.47-1.45,3.74-.13.35-.25.7-.37,1.06a67.74,67.74,0,0,0,1,45.85c.13.36.27.71.42,1.06a67.33,67.33,0,0,0,8.26,14.71c.28.37.55.74.84,1.1A67.35,67.35,0,0,0,603,170.85Z"/><path class="cls-2" d="M666,265.48v0c0,1.08-.06,2.15-.16,3.21,0,.12,0,.23,0,.35l-.06.51c0,.16,0,.33-.07.49a29.46,29.46,0,0,1-.59,3c0,.15-.07.3-.11.44a31.34,31.34,0,0,1-1.08,3.36l-.2.5a31.92,31.92,0,0,1-2.68,5.16c-.27.42-.55.84-.84,1.25h0l-.19.28h0c-.18.26-.37.5-.56.75a31.44,31.44,0,0,1-22.78,12.11h0c-.69.05-1.39.07-2.08.07a31.45,31.45,0,0,1-24.94-12.26c-.14-.17-.26-.34-.4-.52a31.58,31.58,0,0,1-3.85-6.86c-.07-.17-.14-.33-.2-.5l-.15-.4-.15-.41c0-.11-.08-.22-.11-.33s-.12-.33-.17-.5-.17-.54-.25-.81a.19.19,0,0,1,0-.07c-.13-.45-.26-.92-.37-1.38,0-.19-.09-.38-.13-.58s-.11-.46-.15-.69v0c0-.17-.07-.34-.1-.51-.08-.42-.15-.84-.21-1.27,0,0,0-.05,0-.07l0-.24-.06-.49h0c0-.12,0-.24,0-.36a1.94,1.94,0,0,1,0-.24c0-.39-.07-.79-.09-1.19v0c0-.14,0-.27,0-.4q0-.68,0-1.35v-.07c0-.42,0-.83,0-1.24v-.07c0-.23,0-.45,0-.68s0-.35,0-.52a.76.76,0,0,1,0-.15c0-.28,0-.55.08-.82v0a4.26,4.26,0,0,1,.06-.5l0-.3c0-.16.05-.32.07-.48s0-.2,0-.3c.15-.91.34-1.81.57-2.69,0-.21.11-.41.16-.62s.08-.25.11-.38l0-.12.15-.48c.06-.2.13-.4.19-.59l.18-.5c.15-.45.32-.89.5-1.32a1.89,1.89,0,0,1,.11-.25h0a1.11,1.11,0,0,0,.07-.16c.19-.45.39-.89.6-1.33a30.43,30.43,0,0,1,2.17-3.81q.29-.43.6-.87l.08-.12A.48.48,0,0,1,609,247c.13-.18.26-.37.4-.54a1.88,1.88,0,0,1,.18-.24l.51-.65c.44-.54.9-1.06,1.38-1.57l.43-.44.27-.28q.16-.18.36-.36c.17-.18.35-.34.53-.5a4.48,4.48,0,0,1,.4-.36l.33-.3.06-.05a3.88,3.88,0,0,1,.31-.26c.42-.37.84-.71,1.28-1l.53-.4c.43-.32.88-.63,1.33-.91l.29-.19c.57-.36,1.15-.71,1.75-1a29.92,29.92,0,0,1,3-1.45l1-.4c.35-.13.69-.26,1-.37l1.05-.34h0c.33-.1.67-.2,1-.28l.08,0c.31-.08.63-.16.95-.22l.73-.16.69-.13c.39-.07.79-.14,1.2-.19l.56-.08.31,0,.8-.08.42,0c.52,0,1-.06,1.58-.07h.67c.7,0,1.4,0,2.1.07a31.46,31.46,0,0,1,25.9,17l0,0c.09.17.18.34.26.51a2.92,2.92,0,0,1,.14.31c.11.22.22.44.32.67s.19.43.28.64c.24.57.47,1.15.67,1.74l.18.5q.48,1.46.84,3c0,.16.07.31.1.47.14.67.26,1.34.36,2,.05.33.09.67.13,1s.06.55.08.83C666,263.66,666,264.57,666,265.48Z"/><path class="cls-3" d="M636.6,296.93c-.7.05-1.4.07-2.1.07a31.45,31.45,0,0,1-24.94-12.26c-.14-.17-.26-.34-.4-.52a31.58,31.58,0,0,1-3.85-6.86c-.07-.17-.14-.33-.2-.5a31.65,31.65,0,0,1-.48-21.39l.18-.5c.2-.59.43-1.17.67-1.74s.39-.89.6-1.33A31.49,31.49,0,0,1,634.5,234c.7,0,1.4,0,2.1.07a31.52,31.52,0,0,0-26.32,17.83c-.21.44-.41.88-.6,1.33s-.47,1.15-.67,1.74l-.18.5a31.65,31.65,0,0,0,.48,21.39c.06.17.13.33.2.5a31.58,31.58,0,0,0,3.85,6.86c.14.18.26.35.4.52A31.4,31.4,0,0,0,636.6,296.93Z"/><path class="cls-2" d="M189,103.46v0a66.08,66.08,0,0,1-.43,7.62c0,.37-.08.73-.13,1.1s-.09.71-.15,1.06a62.44,62.44,0,0,1-1.26,6.43c-.07.31-.15.63-.23.94A66.89,66.89,0,0,1,178.3,140c-.57.91-1.18,1.8-1.8,2.67,0,0,0,0,0,0l-.42.59,0,0c-.39.54-.79,1.07-1.21,1.6a67.49,67.49,0,0,1-106.76-.18c-.29-.36-.56-.73-.84-1.1A67.33,67.33,0,0,1,59,128.91c-.15-.35-.29-.7-.42-1.06A67.74,67.74,0,0,1,57.5,82c.12-.36.24-.71.37-1.06.44-1.27.93-2.51,1.45-3.74.4-1,.83-1.9,1.28-2.84a67.52,67.52,0,0,1,120.91-1.78c.56,1.07,1.08,2.16,1.58,3.26a67.71,67.71,0,0,1,4.21,12.54c.08.33.15.66.22,1,.45,2.13.81,4.3,1,6.5.07.58.13,1.17.17,1.76Q189,100.52,189,103.46Z"/><path class="cls-4" d="M60.6,80.94V74.36c-.45.94-.88,1.88-1.28,2.84v3.74H57.87c-.13.35-.25.7-.37,1.06h5.66V80.94Z"/><path class="cls-4" d="M65.72,82h6.67V80.94H69.83V72.18h-1a7.16,7.16,0,0,1-2.53.73v.83h2.21v7.2H65.72Z"/><path class="cls-4" d="M78.08,82.19c2.18,0,3.52-1.86,3.52-5.13S80.26,72,78.08,72s-3.53,1.77-3.53,5.06S75.89,82.19,78.08,82.19Zm0-1c-1.37,0-2.34-1.28-2.34-4.1s1-4,2.34-4,2.34,1.22,2.34,4S79.45,81.16,78.08,81.16Zm0-3.17a1,1,0,1,0-1-1A1,1,0,0,0,78.08,78Z"/><path class="cls-4" d="M84.19,82h6.66V80.94H88.3V72.18h-1a7.17,7.17,0,0,1-2.52.73v.83H87v7.2H84.19Z"/><path class="cls-4" d="M96.54,82.19c2.19,0,3.53-1.86,3.53-5.13S98.73,72,96.54,72,93,73.77,93,77.06,94.36,82.19,96.54,82.19Zm0-1c-1.37,0-2.34-1.28-2.34-4.1s1-4,2.34-4,2.34,1.22,2.34,4S97.91,81.16,96.54,81.16Zm0-3.17a1,1,0,1,0-1-1A1,1,0,0,0,96.54,78Z"/><path class="cls-4" d="M105.78,82.19c2.18,0,3.52-1.86,3.52-5.13S108,72,105.78,72s-3.53,1.77-3.53,5.06S103.59,82.19,105.78,82.19Zm0-1c-1.37,0-2.34-1.28-2.34-4.1s1-4,2.34-4,2.34,1.22,2.34,4S107.15,81.16,105.78,81.16Zm0-3.17a1,1,0,1,0-1-1A1,1,0,0,0,105.78,78Z"/><path class="cls-4" d="M111.88,82h6.67V80.94H116V72.18H115a7.16,7.16,0,0,1-2.53.73v.83h2.21v7.2h-2.84Z"/><path class="cls-4" d="M124.24,82.19c2.18,0,3.52-1.86,3.52-5.13S126.42,72,124.24,72s-3.53,1.77-3.53,5.06S122.05,82.19,124.24,82.19Zm0-1c-1.37,0-2.34-1.28-2.34-4.1s1-4,2.34-4,2.34,1.22,2.34,4S125.61,81.16,124.24,81.16Zm0-3.17a1,1,0,1,0-.95-1A1,1,0,0,0,124.24,78Z"/><path class="cls-4" d="M130.35,82H137V80.94h-2.55V72.18h-1a7.17,7.17,0,0,1-2.52.73v.83h2.2v7.2h-2.83Z"/><path class="cls-4" d="M139.58,82h6.66V80.94h-2.55V72.18h-1a7.17,7.17,0,0,1-2.52.73v.83h2.2v7.2h-2.83Z"/><path class="cls-4" d="M151.94,82.19c2.18,0,3.52-1.86,3.52-5.13S154.12,72,151.94,72s-3.53,1.77-3.53,5.06S149.75,82.19,151.94,82.19Zm0-1c-1.37,0-2.34-1.28-2.34-4.1s1-4,2.34-4,2.34,1.22,2.34,4S153.31,81.16,151.94,81.16Zm0-3.17a1,1,0,1,0-1-1A1,1,0,0,0,151.94,78Z"/><path class="cls-4" d="M158,82h6.67V80.94h-2.56V72.18h-1a7.16,7.16,0,0,1-2.53.73v.83h2.21v7.2H158Z"/><path class="cls-4" d="M170.4,82.19c2.19,0,3.52-1.86,3.52-5.13S172.59,72,170.4,72s-3.52,1.77-3.52,5.06S168.21,82.19,170.4,82.19Zm0-1c-1.37,0-2.34-1.28-2.34-4.1s1-4,2.34-4,2.34,1.22,2.34,4S171.77,81.16,170.4,81.16Zm0-3.17a1,1,0,1,0-1-1A1,1,0,0,0,170.4,78Z"/><path class="cls-4" d="M179.63,82.19c2.19,0,3.53-1.86,3.53-5.13S181.82,72,179.63,72s-3.52,1.77-3.52,5.06S177.45,82.19,179.63,82.19Zm0-1c-1.37,0-2.34-1.28-2.34-4.1s1-4,2.34-4,2.34,1.22,2.34,4S181,81.16,179.63,81.16Zm0-3.17a1,1,0,0,0,0-2,1,1,0,0,0,0,2Z"/><path class="cls-4" d="M185.74,82h6.66V80.94h-2.55V72.18h-1a7.17,7.17,0,0,1-2.52.73v.83h2.2v7.2h-2.83Z"/><path class="cls-4" d="M198.1,82.19c2.18,0,3.52-1.86,3.52-5.13S200.28,72,198.1,72s-3.53,1.77-3.53,5.06S195.91,82.19,198.1,82.19Zm0-1c-1.37,0-2.34-1.28-2.34-4.1s1-4,2.34-4,2.34,1.22,2.34,4S199.47,81.16,198.1,81.16Zm0-3.17a1,1,0,1,0-1-1A1,1,0,0,0,198.1,78Z"/><path class="cls-4" d="M204.2,82h6.67V80.94h-2.56V72.18h-.95a7.16,7.16,0,0,1-2.53.73v.83H207v7.2H204.2Z"/><path class="cls-4" d="M213.44,82h6.66V80.94h-2.56V72.18h-.95a7.17,7.17,0,0,1-2.52.73v.83h2.2v7.2h-2.83Z"/><path class="cls-4" d="M222.67,82h6.66V80.94h-2.55V72.18h-1a7.17,7.17,0,0,1-2.52.73v.83h2.2v7.2h-2.83Z"/><path class="cls-4" d="M235,82.19c2.19,0,3.53-1.86,3.53-5.13S237.21,72,235,72s-3.52,1.77-3.52,5.06S232.84,82.19,235,82.19Zm0-1c-1.37,0-2.34-1.28-2.34-4.1s1-4,2.34-4,2.34,1.22,2.34,4S236.39,81.16,235,81.16ZM235,78a1,1,0,1,0-1-1A1,1,0,0,0,235,78Z"/><path class="cls-4" d="M241.13,82h6.67V80.94h-2.56V72.18h-1a7.16,7.16,0,0,1-2.53.73v.83H244v7.2h-2.83Z"/><path class="cls-4" d="M253.49,82.19c2.18,0,3.52-1.86,3.52-5.13S255.67,72,253.49,72,250,73.77,250,77.06,251.3,82.19,253.49,82.19Zm0-1c-1.37,0-2.34-1.28-2.34-4.1s1-4,2.34-4,2.34,1.22,2.34,4S254.86,81.16,253.49,81.16Zm0-3.17a1,1,0,1,0-1-1A1,1,0,0,0,253.49,78Z"/><path class="cls-4" d="M262.72,82.19c2.19,0,3.52-1.86,3.52-5.13S264.91,72,262.72,72s-3.52,1.77-3.52,5.06S260.53,82.19,262.72,82.19Zm0-1c-1.37,0-2.34-1.28-2.34-4.1s1-4,2.34-4,2.34,1.22,2.34,4S264.09,81.16,262.72,81.16Zm0-3.17a1,1,0,1,0-1-1A1,1,0,0,0,262.72,78Z"/><path class="cls-4" d="M268.83,82h6.66V80.94h-2.55V72.18h-1a7.17,7.17,0,0,1-2.52.73v.83h2.2v7.2h-2.83Z"/><path class="cls-4" d="M278.06,82h6.66V80.94h-2.55V72.18h-.95a7.23,7.23,0,0,1-2.53.73v.83h2.2v7.2h-2.83Z"/><path class="cls-4" d="M287.29,82H294V80.94H291.4V72.18h-.95a7.16,7.16,0,0,1-2.53.73v.83h2.2v7.2h-2.83Z"/><path class="cls-4" d="M299.65,82.19c2.18,0,3.52-1.86,3.52-5.13S301.83,72,299.65,72s-3.53,1.77-3.53,5.06S297.46,82.19,299.65,82.19Zm0-1c-1.37,0-2.34-1.28-2.34-4.1s1-4,2.34-4,2.34,1.22,2.34,4S301,81.16,299.65,81.16Zm0-3.17a1,1,0,1,0-1-1A1,1,0,0,0,299.65,78Z"/><path class="cls-4" d="M308.88,82.19c2.19,0,3.52-1.86,3.52-5.13S311.07,72,308.88,72s-3.52,1.77-3.52,5.06S306.69,82.19,308.88,82.19Zm0-1c-1.37,0-2.34-1.28-2.34-4.1s1-4,2.34-4,2.34,1.22,2.34,4S310.25,81.16,308.88,81.16Zm0-3.17a1,1,0,1,0-.95-1A1,1,0,0,0,308.88,78Z"/><path class="cls-4" d="M315,82h6.66V80.94H319.1V72.18h-1a7.17,7.17,0,0,1-2.52.73v.83h2.2v7.2H315Z"/><path class="cls-4" d="M327.34,82.19c2.19,0,3.53-1.86,3.53-5.13S329.53,72,327.34,72s-3.52,1.77-3.52,5.06S325.16,82.19,327.34,82.19Zm0-1c-1.37,0-2.33-1.28-2.33-4.1s1-4,2.33-4,2.34,1.22,2.34,4S328.71,81.16,327.34,81.16Zm0-3.17a1,1,0,1,0-.95-1A1,1,0,0,0,327.34,78Z"/><path class="cls-4" d="M333.45,82h6.67V80.94h-2.56V72.18h-.95a7.16,7.16,0,0,1-2.53.73v.83h2.2v7.2h-2.83Z"/><path class="cls-4" d="M342.68,82h6.67V80.94h-2.56V72.18h-1a7.16,7.16,0,0,1-2.53.73v.83h2.21v7.2h-2.84Z"/><path class="cls-4" d="M355,82.19c2.19,0,3.52-1.86,3.52-5.13S357.23,72,355,72s-3.52,1.77-3.52,5.06S352.85,82.19,355,82.19Zm0-1c-1.37,0-2.34-1.28-2.34-4.1s1-4,2.34-4,2.34,1.22,2.34,4S356.41,81.16,355,81.16ZM355,78a1,1,0,1,0-1-1A1,1,0,0,0,355,78Z"/><path class="cls-4" d="M361.15,82h6.66V80.94h-2.55V72.18h-1a7.17,7.17,0,0,1-2.52.73v.83H364v7.2h-2.83Z"/><path class="cls-4" d="M373.5,82.19c2.19,0,3.53-1.86,3.53-5.13S375.69,72,373.5,72,370,73.77,370,77.06,371.32,82.19,373.5,82.19Zm0-1c-1.37,0-2.33-1.28-2.33-4.1s1-4,2.33-4,2.34,1.22,2.34,4S374.87,81.16,373.5,81.16Zm0-3.17a1,1,0,1,0-.95-1A1,1,0,0,0,373.5,78Z"/><path class="cls-4" d="M382.74,82.19c2.18,0,3.52-1.86,3.52-5.13S384.92,72,382.74,72s-3.53,1.77-3.53,5.06S380.55,82.19,382.74,82.19Zm0-1c-1.37,0-2.34-1.28-2.34-4.1s1-4,2.34-4,2.34,1.22,2.34,4S384.11,81.16,382.74,81.16Zm0-3.17a1,1,0,1,0-1-1A1,1,0,0,0,382.74,78Z"/><path class="cls-4" d="M388.84,82h6.67V80.94H393V72.18H392a7.16,7.16,0,0,1-2.53.73v.83h2.21v7.2h-2.84Z"/><path class="cls-4" d="M401.2,82.19c2.19,0,3.53-1.86,3.53-5.13S403.39,72,401.2,72s-3.52,1.77-3.52,5.06S399,82.19,401.2,82.19Zm0-1c-1.37,0-2.34-1.28-2.34-4.1s1-4,2.34-4,2.34,1.22,2.34,4S402.57,81.16,401.2,81.16Zm0-3.17a1,1,0,1,0-.95-1A1,1,0,0,0,401.2,78Z"/><path class="cls-4" d="M407.31,82H414V80.94h-2.55V72.18h-1a7.17,7.17,0,0,1-2.52.73v.83h2.2v7.2h-2.83Z"/><path class="cls-4" d="M416.54,82h6.67V80.94h-2.56V72.18h-.95a7.23,7.23,0,0,1-2.53.73v.83h2.2v7.2h-2.83Z"/><path class="cls-4" d="M428.9,82.19c2.18,0,3.52-1.86,3.52-5.13S431.08,72,428.9,72s-3.53,1.77-3.53,5.06S426.71,82.19,428.9,82.19Zm0-1c-1.37,0-2.34-1.28-2.34-4.1s1-4,2.34-4,2.34,1.22,2.34,4S430.27,81.16,428.9,81.16Zm0-3.17a1,1,0,1,0-1-1A1,1,0,0,0,428.9,78Z"/><path class="cls-4" d="M435,82h6.67V80.94h-2.56V72.18h-.95a7.17,7.17,0,0,1-2.52.73v.83h2.2v7.2H435Z"/><path class="cls-4" d="M447.36,82.19c2.19,0,3.53-1.86,3.53-5.13S449.55,72,447.36,72s-3.52,1.77-3.52,5.06S445.18,82.19,447.36,82.19Zm0-1c-1.37,0-2.34-1.28-2.34-4.1s1-4,2.34-4,2.34,1.22,2.34,4S448.73,81.16,447.36,81.16Zm0-3.17a1,1,0,1,0-.95-1A1,1,0,0,0,447.36,78Z"/><path class="cls-4" d="M453.47,82h6.66V80.94h-2.55V72.18h-1a7.17,7.17,0,0,1-2.52.73v.83h2.2v7.2h-2.83Z"/><path class="cls-4" d="M465.82,82.19c2.19,0,3.53-1.86,3.53-5.13S468,72,465.82,72s-3.52,1.77-3.52,5.06S463.64,82.19,465.82,82.19Zm0-1c-1.37,0-2.33-1.28-2.33-4.1s1-4,2.33-4,2.34,1.22,2.34,4S467.19,81.16,465.82,81.16Zm0-3.17a1,1,0,1,0-.95-1A1,1,0,0,0,465.82,78Z"/><path class="cls-4" d="M475.06,82.19c2.18,0,3.52-1.86,3.52-5.13S477.24,72,475.06,72s-3.53,1.77-3.53,5.06S472.87,82.19,475.06,82.19Zm0-1c-1.37,0-2.34-1.28-2.34-4.1s1-4,2.34-4,2.34,1.22,2.34,4S476.43,81.16,475.06,81.16Zm0-3.17a1,1,0,1,0-1-1A1,1,0,0,0,475.06,78Z"/><path class="cls-4" d="M481.16,82h6.67V80.94h-2.56V72.18h-.95a7.17,7.17,0,0,1-2.52.73v.83H484v7.2h-2.84Z"/><path class="cls-4" d="M493.52,82.19c2.19,0,3.53-1.86,3.53-5.13S495.71,72,493.52,72,490,73.77,490,77.06,491.34,82.19,493.52,82.19Zm0-1c-1.37,0-2.34-1.28-2.34-4.1s1-4,2.34-4,2.34,1.22,2.34,4S494.89,81.16,493.52,81.16Zm0-3.17a1,1,0,0,0,0-2,1,1,0,0,0,0,2Z"/><path class="cls-4" d="M499.63,82h6.66V80.94h-2.55V72.18h-1a7.17,7.17,0,0,1-2.52.73v.83h2.2v7.2h-2.83Z"/><path class="cls-4" d="M508.86,82h6.67V80.94H513V72.18h-1a7.23,7.23,0,0,1-2.53.73v.83h2.2v7.2h-2.83Z"/><path class="cls-4" d="M521.22,82.19c2.18,0,3.52-1.86,3.52-5.13S523.4,72,521.22,72s-3.53,1.77-3.53,5.06S519,82.19,521.22,82.19Zm0-1c-1.37,0-2.34-1.28-2.34-4.1s1-4,2.34-4,2.34,1.22,2.34,4S522.59,81.16,521.22,81.16Zm0-3.17a1,1,0,1,0-1-1A1,1,0,0,0,521.22,78Z"/><path class="cls-4" d="M527.32,82H534V80.94h-2.56V72.18h-.95a7.17,7.17,0,0,1-2.52.73v.83h2.2v7.2h-2.84Z"/><path class="cls-4" d="M539.68,82.19c2.19,0,3.53-1.86,3.53-5.13S541.87,72,539.68,72s-3.52,1.77-3.52,5.06S537.5,82.19,539.68,82.19Zm0-1c-1.37,0-2.34-1.28-2.34-4.1s1-4,2.34-4,2.34,1.22,2.34,4S541.05,81.16,539.68,81.16Zm0-3.17a1,1,0,0,0,0-2,1,1,0,0,0,0,2Z"/><path class="cls-4" d="M545.79,82h6.66V80.94H549.9V72.18h-1a7.17,7.17,0,0,1-2.52.73v.83h2.2v7.2h-2.83Z"/><path class="cls-4" d="M558.15,82.19c2.18,0,3.52-1.86,3.52-5.13S560.33,72,558.15,72s-3.53,1.77-3.53,5.06S556,82.19,558.15,82.19Zm0-1c-1.37,0-2.34-1.28-2.34-4.1s1-4,2.34-4,2.34,1.22,2.34,4S559.52,81.16,558.15,81.16Zm0-3.17a1,1,0,1,0-1-1A1,1,0,0,0,558.15,78Z"/><path class="cls-4" d="M564.25,82h6.67V80.94h-2.56V72.18h-1a7.16,7.16,0,0,1-2.53.73v.83h2.21v7.2h-2.84Z"/><path class="cls-4" d="M573.48,82h6.67V80.94h-2.56V72.18h-1a7.17,7.17,0,0,1-2.52.73v.83h2.2v7.2h-2.84Z"/><path class="cls-4" d="M582.72,82h6.66V80.94h-2.55V72.18h-1a7.17,7.17,0,0,1-2.52.73v.83h2.2v7.2h-2.83Z"/><path class="cls-4" d="M595.07,82.19c2.19,0,3.53-1.86,3.53-5.13S597.26,72,595.07,72s-3.52,1.77-3.52,5.06S592.89,82.19,595.07,82.19Zm0-1c-1.37,0-2.34-1.28-2.34-4.1s1-4,2.34-4,2.34,1.22,2.34,4S596.44,81.16,595.07,81.16Zm0-3.17a1,1,0,1,0-1-1A1,1,0,0,0,595.07,78Z"/><path class="cls-4" d="M601.18,82h6.67V80.94h-2.56V72.18h-.95a7.16,7.16,0,0,1-2.53.73v.83H604v7.2h-2.83Z"/><path class="cls-4" d="M613.54,82.19c2.18,0,3.52-1.86,3.52-5.13S615.72,72,613.54,72,610,73.77,610,77.06,611.35,82.19,613.54,82.19Zm0-1c-1.37,0-2.34-1.28-2.34-4.1s1-4,2.34-4,2.34,1.22,2.34,4S614.91,81.16,613.54,81.16Zm0-3.17a1,1,0,1,0-1-1A1,1,0,0,0,613.54,78Z"/><path class="cls-4" d="M619.64,82h6.67V80.94h-2.56V72.18h-1a7.17,7.17,0,0,1-2.52.73v.83h2.2v7.2h-2.84Z"/><path class="cls-4" d="M632,82.19c2.19,0,3.53-1.86,3.53-5.13S634.19,72,632,72s-3.52,1.77-3.52,5.06S629.82,82.19,632,82.19Zm0-1c-1.37,0-2.34-1.28-2.34-4.1s1-4,2.34-4,2.34,1.22,2.34,4S633.37,81.16,632,81.16ZM632,78a1,1,0,0,0,0-2,1,1,0,0,0,0,2Z"/><path class="cls-4" d="M641.23,82.19c2.19,0,3.53-1.86,3.53-5.13S643.42,72,641.23,72s-3.52,1.77-3.52,5.06S639.05,82.19,641.23,82.19Zm0-1c-1.37,0-2.34-1.28-2.34-4.1s1-4,2.34-4,2.34,1.22,2.34,4S642.6,81.16,641.23,81.16Zm0-3.17a1,1,0,1,0-1-1A1,1,0,0,0,641.23,78Z"/><path class="cls-4" d="M650.47,82.19c2.18,0,3.52-1.86,3.52-5.13S652.65,72,650.47,72s-3.53,1.77-3.53,5.06S648.28,82.19,650.47,82.19Zm0-1c-1.37,0-2.34-1.28-2.34-4.1s1-4,2.34-4,2.34,1.22,2.34,4S651.84,81.16,650.47,81.16Zm0-3.17a1,1,0,1,0-1-1A1,1,0,0,0,650.47,78Z"/><path class="cls-4" d="M658.54,72.64a9.28,9.28,0,0,1-1.34.27v.83h1.89C658.92,73.37,658.73,73,658.54,72.64Zm3.59,8.3h-1.45V77.21c-.19-.46-.39-.92-.59-1.37s-.45-1-.68-1.45v6.55h-2.84V82h5.93C662.38,81.65,662.26,81.29,662.13,80.94Z"/><path class="cls-4" d="M56.49,97.64h6.67V96.58H60.6V87.82h-1a7,7,0,0,1-2.53.72v.84h2.2v7.2H56.49Z"/><path class="cls-4" d="M65.72,97.64h6.67V96.58H69.83V87.82h-1a7,7,0,0,1-2.53.72v.84h2.21v7.2H65.72Z"/><path class="cls-4" d="M78.08,97.83c2.18,0,3.52-1.87,3.52-5.13s-1.34-5.06-3.52-5.06-3.53,1.77-3.53,5.06S75.89,97.83,78.08,97.83Zm0-1c-1.37,0-2.34-1.27-2.34-4.09s1-4,2.34-4,2.34,1.21,2.34,4S79.45,96.79,78.08,96.79Zm0-3.17a1,1,0,1,0-1-1A1,1,0,0,0,78.08,93.62Z"/><path class="cls-4" d="M84.19,97.64h6.66V96.58H88.3V87.82h-1a7,7,0,0,1-2.52.72v.84H87v7.2H84.19Z"/><path class="cls-4" d="M96.54,97.83c2.19,0,3.53-1.87,3.53-5.13s-1.34-5.06-3.53-5.06S93,89.41,93,92.7,94.36,97.83,96.54,97.83Zm0-1c-1.37,0-2.34-1.27-2.34-4.09s1-4,2.34-4,2.34,1.21,2.34,4S97.91,96.79,96.54,96.79Zm0-3.17a1,1,0,1,0-1-1A1,1,0,0,0,96.54,93.62Z"/><path class="cls-4" d="M105.78,97.83c2.18,0,3.52-1.87,3.52-5.13s-1.34-5.06-3.52-5.06-3.53,1.77-3.53,5.06S103.59,97.83,105.78,97.83Zm0-1c-1.37,0-2.34-1.27-2.34-4.09s1-4,2.34-4,2.34,1.21,2.34,4S107.15,96.79,105.78,96.79Zm0-3.17a1,1,0,1,0-1-1A1,1,0,0,0,105.78,93.62Z"/><path class="cls-4" d="M111.88,97.64h6.67V96.58H116V87.82H115a7,7,0,0,1-2.53.72v.84h2.21v7.2h-2.84Z"/><path class="cls-4" d="M124.24,97.83c2.18,0,3.52-1.87,3.52-5.13s-1.34-5.06-3.52-5.06-3.53,1.77-3.53,5.06S122.05,97.83,124.24,97.83Zm0-1c-1.37,0-2.34-1.27-2.34-4.09s1-4,2.34-4,2.34,1.21,2.34,4S125.61,96.79,124.24,96.79Zm0-3.17a1,1,0,1,0-.95-1A1,1,0,0,0,124.24,93.62Z"/><path class="cls-4" d="M130.35,97.64H137V96.58h-2.55V87.82h-1a7,7,0,0,1-2.52.72v.84h2.2v7.2h-2.83Z"/><path class="cls-4" d="M139.58,97.64h6.66V96.58h-2.55V87.82h-1a7,7,0,0,1-2.52.72v.84h2.2v7.2h-2.83Z"/><path class="cls-4" d="M151.94,97.83c2.18,0,3.52-1.87,3.52-5.13s-1.34-5.06-3.52-5.06-3.53,1.77-3.53,5.06S149.75,97.83,151.94,97.83Zm0-1c-1.37,0-2.34-1.27-2.34-4.09s1-4,2.34-4,2.34,1.21,2.34,4S153.31,96.79,151.94,96.79Zm0-3.17a1,1,0,1,0-1-1A1,1,0,0,0,151.94,93.62Z"/><path class="cls-4" d="M158,97.64h6.67V96.58h-2.56V87.82h-1a7,7,0,0,1-2.53.72v.84h2.21v7.2H158Z"/><path class="cls-4" d="M170.4,97.83c2.19,0,3.52-1.87,3.52-5.13s-1.33-5.06-3.52-5.06-3.52,1.77-3.52,5.06S168.21,97.83,170.4,97.83Zm0-1c-1.37,0-2.34-1.27-2.34-4.09s1-4,2.34-4,2.34,1.21,2.34,4S171.77,96.79,170.4,96.79Zm0-3.17a1,1,0,1,0-1-1A1,1,0,0,0,170.4,93.62Z"/><path class="cls-4" d="M179.63,97.83c2.19,0,3.53-1.87,3.53-5.13s-1.34-5.06-3.53-5.06-3.52,1.77-3.52,5.06S177.45,97.83,179.63,97.83Zm0-1c-1.37,0-2.34-1.27-2.34-4.09s1-4,2.34-4,2.34,1.21,2.34,4S181,96.79,179.63,96.79Zm0-3.17a1,1,0,0,0,0-2,1,1,0,0,0,0,2Z"/><path class="cls-4" d="M185.74,97.64h6.66V96.58h-2.55V87.82h-1a7,7,0,0,1-2.52.72v.84h2.2v7.2h-2.83Z"/><path class="cls-4" d="M198.1,97.83c2.18,0,3.52-1.87,3.52-5.13s-1.34-5.06-3.52-5.06-3.53,1.77-3.53,5.06S195.91,97.83,198.1,97.83Zm0-1c-1.37,0-2.34-1.27-2.34-4.09s1-4,2.34-4,2.34,1.21,2.34,4S199.47,96.79,198.1,96.79Zm0-3.17a1,1,0,1,0-1-1A1,1,0,0,0,198.1,93.62Z"/><path class="cls-4" d="M204.2,97.64h6.67V96.58h-2.56V87.82h-.95a7,7,0,0,1-2.53.72v.84H207v7.2H204.2Z"/><path class="cls-4" d="M213.44,97.64h6.66V96.58h-2.56V87.82h-.95a7,7,0,0,1-2.52.72v.84h2.2v7.2h-2.83Z"/><path class="cls-4" d="M222.67,97.64h6.66V96.58h-2.55V87.82h-1a7,7,0,0,1-2.52.72v.84h2.2v7.2h-2.83Z"/><path class="cls-4" d="M235,97.83c2.19,0,3.53-1.87,3.53-5.13s-1.34-5.06-3.53-5.06-3.52,1.77-3.52,5.06S232.84,97.83,235,97.83Zm0-1c-1.37,0-2.34-1.27-2.34-4.09s1-4,2.34-4,2.34,1.21,2.34,4S236.39,96.79,235,96.79Zm0-3.17a1,1,0,1,0-1-1A1,1,0,0,0,235,93.62Z"/><path class="cls-4" d="M241.13,97.64h6.67V96.58h-2.56V87.82h-1a7,7,0,0,1-2.53.72v.84H244v7.2h-2.83Z"/><path class="cls-4" d="M253.49,97.83c2.18,0,3.52-1.87,3.52-5.13s-1.34-5.06-3.52-5.06S250,89.41,250,92.7,251.3,97.83,253.49,97.83Zm0-1c-1.37,0-2.34-1.27-2.34-4.09s1-4,2.34-4,2.34,1.21,2.34,4S254.86,96.79,253.49,96.79Zm0-3.17a1,1,0,1,0-1-1A1,1,0,0,0,253.49,93.62Z"/><path class="cls-4" d="M262.72,97.83c2.19,0,3.52-1.87,3.52-5.13s-1.33-5.06-3.52-5.06-3.52,1.77-3.52,5.06S260.53,97.83,262.72,97.83Zm0-1c-1.37,0-2.34-1.27-2.34-4.09s1-4,2.34-4,2.34,1.21,2.34,4S264.09,96.79,262.72,96.79Zm0-3.17a1,1,0,1,0-1-1A1,1,0,0,0,262.72,93.62Z"/><path class="cls-4" d="M268.83,97.64h6.66V96.58h-2.55V87.82h-1a7,7,0,0,1-2.52.72v.84h2.2v7.2h-2.83Z"/><path class="cls-4" d="M278.06,97.64h6.66V96.58h-2.55V87.82h-.95a7,7,0,0,1-2.53.72v.84h2.2v7.2h-2.83Z"/><path class="cls-4" d="M287.29,97.64H294V96.58H291.4V87.82h-.95a7,7,0,0,1-2.53.72v.84h2.2v7.2h-2.83Z"/><path class="cls-4" d="M299.65,97.83c2.18,0,3.52-1.87,3.52-5.13s-1.34-5.06-3.52-5.06-3.53,1.77-3.53,5.06S297.46,97.83,299.65,97.83Zm0-1c-1.37,0-2.34-1.27-2.34-4.09s1-4,2.34-4,2.34,1.21,2.34,4S301,96.79,299.65,96.79Zm0-3.17a1,1,0,1,0-1-1A1,1,0,0,0,299.65,93.62Z"/><path class="cls-4" d="M308.88,97.83c2.19,0,3.52-1.87,3.52-5.13s-1.33-5.06-3.52-5.06-3.52,1.77-3.52,5.06S306.69,97.83,308.88,97.83Zm0-1c-1.37,0-2.34-1.27-2.34-4.09s1-4,2.34-4,2.34,1.21,2.34,4S310.25,96.79,308.88,96.79Zm0-3.17a1,1,0,1,0-.95-1A1,1,0,0,0,308.88,93.62Z"/><path class="cls-4" d="M315,97.64h6.66V96.58H319.1V87.82h-1a7,7,0,0,1-2.52.72v.84h2.2v7.2H315Z"/><path class="cls-4" d="M327.34,97.83c2.19,0,3.53-1.87,3.53-5.13s-1.34-5.06-3.53-5.06-3.52,1.77-3.52,5.06S325.16,97.83,327.34,97.83Zm0-1c-1.37,0-2.33-1.27-2.33-4.09s1-4,2.33-4,2.34,1.21,2.34,4S328.71,96.79,327.34,96.79Zm0-3.17a1,1,0,1,0-.95-1A1,1,0,0,0,327.34,93.62Z"/><path class="cls-4" d="M333.45,97.64h6.67V96.58h-2.56V87.82h-.95a7,7,0,0,1-2.53.72v.84h2.2v7.2h-2.83Z"/><path class="cls-4" d="M342.68,97.64h6.67V96.58h-2.56V87.82h-1a7,7,0,0,1-2.53.72v.84h2.21v7.2h-2.84Z"/><path class="cls-4" d="M355,97.83c2.19,0,3.52-1.87,3.52-5.13s-1.33-5.06-3.52-5.06-3.52,1.77-3.52,5.06S352.85,97.83,355,97.83Zm0-1c-1.37,0-2.34-1.27-2.34-4.09s1-4,2.34-4,2.34,1.21,2.34,4S356.41,96.79,355,96.79Zm0-3.17a1,1,0,1,0-1-1A1,1,0,0,0,355,93.62Z"/><path class="cls-4" d="M361.15,97.64h6.66V96.58h-2.55V87.82h-1a7,7,0,0,1-2.52.72v.84H364v7.2h-2.83Z"/><path class="cls-4" d="M373.5,97.83c2.19,0,3.53-1.87,3.53-5.13s-1.34-5.06-3.53-5.06S370,89.41,370,92.7,371.32,97.83,373.5,97.83Zm0-1c-1.37,0-2.33-1.27-2.33-4.09s1-4,2.33-4,2.34,1.21,2.34,4S374.87,96.79,373.5,96.79Zm0-3.17a1,1,0,1,0-.95-1A1,1,0,0,0,373.5,93.62Z"/><path class="cls-4" d="M382.74,97.83c2.18,0,3.52-1.87,3.52-5.13s-1.34-5.06-3.52-5.06-3.53,1.77-3.53,5.06S380.55,97.83,382.74,97.83Zm0-1c-1.37,0-2.34-1.27-2.34-4.09s1-4,2.34-4,2.34,1.21,2.34,4S384.11,96.79,382.74,96.79Zm0-3.17a1,1,0,1,0-1-1A1,1,0,0,0,382.74,93.62Z"/><path class="cls-4" d="M388.84,97.64h6.67V96.58H393V87.82H392a7,7,0,0,1-2.53.72v.84h2.21v7.2h-2.84Z"/><path class="cls-4" d="M401.2,97.83c2.19,0,3.53-1.87,3.53-5.13s-1.34-5.06-3.53-5.06-3.52,1.77-3.52,5.06S399,97.83,401.2,97.83Zm0-1c-1.37,0-2.34-1.27-2.34-4.09s1-4,2.34-4,2.34,1.21,2.34,4S402.57,96.79,401.2,96.79Zm0-3.17a1,1,0,1,0-.95-1A1,1,0,0,0,401.2,93.62Z"/><path class="cls-4" d="M407.31,97.64H414V96.58h-2.55V87.82h-1a7,7,0,0,1-2.52.72v.84h2.2v7.2h-2.83Z"/><path class="cls-4" d="M416.54,97.64h6.67V96.58h-2.56V87.82h-.95a7,7,0,0,1-2.53.72v.84h2.2v7.2h-2.83Z"/><path class="cls-4" d="M428.9,97.83c2.18,0,3.52-1.87,3.52-5.13s-1.34-5.06-3.52-5.06-3.53,1.77-3.53,5.06S426.71,97.83,428.9,97.83Zm0-1c-1.37,0-2.34-1.27-2.34-4.09s1-4,2.34-4,2.34,1.21,2.34,4S430.27,96.79,428.9,96.79Zm0-3.17a1,1,0,1,0-1-1A1,1,0,0,0,428.9,93.62Z"/><path class="cls-4" d="M435,97.64h6.67V96.58h-2.56V87.82h-.95a7,7,0,0,1-2.52.72v.84h2.2v7.2H435Z"/><path class="cls-4" d="M447.36,97.83c2.19,0,3.53-1.87,3.53-5.13s-1.34-5.06-3.53-5.06-3.52,1.77-3.52,5.06S445.18,97.83,447.36,97.83Zm0-1c-1.37,0-2.34-1.27-2.34-4.09s1-4,2.34-4,2.34,1.21,2.34,4S448.73,96.79,447.36,96.79Zm0-3.17a1,1,0,1,0-.95-1A1,1,0,0,0,447.36,93.62Z"/><path class="cls-4" d="M453.47,97.64h6.66V96.58h-2.55V87.82h-1a7,7,0,0,1-2.52.72v.84h2.2v7.2h-2.83Z"/><path class="cls-4" d="M465.82,97.83c2.19,0,3.53-1.87,3.53-5.13s-1.34-5.06-3.53-5.06-3.52,1.77-3.52,5.06S463.64,97.83,465.82,97.83Zm0-1c-1.37,0-2.33-1.27-2.33-4.09s1-4,2.33-4,2.34,1.21,2.34,4S467.19,96.79,465.82,96.79Zm0-3.17a1,1,0,1,0-.95-1A1,1,0,0,0,465.82,93.62Z"/><path class="cls-4" d="M475.06,97.83c2.18,0,3.52-1.87,3.52-5.13s-1.34-5.06-3.52-5.06-3.53,1.77-3.53,5.06S472.87,97.83,475.06,97.83Zm0-1c-1.37,0-2.34-1.27-2.34-4.09s1-4,2.34-4,2.34,1.21,2.34,4S476.43,96.79,475.06,96.79Zm0-3.17a1,1,0,1,0-1-1A1,1,0,0,0,475.06,93.62Z"/><path class="cls-4" d="M481.16,97.64h6.67V96.58h-2.56V87.82h-.95a7,7,0,0,1-2.52.72v.84H484v7.2h-2.84Z"/><path class="cls-4" d="M493.52,97.83c2.19,0,3.53-1.87,3.53-5.13s-1.34-5.06-3.53-5.06S490,89.41,490,92.7,491.34,97.83,493.52,97.83Zm0-1c-1.37,0-2.34-1.27-2.34-4.09s1-4,2.34-4,2.34,1.21,2.34,4S494.89,96.79,493.52,96.79Zm0-3.17a1,1,0,0,0,0-2,1,1,0,0,0,0,2Z"/><path class="cls-4" d="M499.63,97.64h6.66V96.58h-2.55V87.82h-1a7,7,0,0,1-2.52.72v.84h2.2v7.2h-2.83Z"/><path class="cls-4" d="M508.86,97.64h6.67V96.58H513V87.82h-1a7,7,0,0,1-2.53.72v.84h2.2v7.2h-2.83Z"/><path class="cls-4" d="M521.22,97.83c2.18,0,3.52-1.87,3.52-5.13s-1.34-5.06-3.52-5.06-3.53,1.77-3.53,5.06S519,97.83,521.22,97.83Zm0-1c-1.37,0-2.34-1.27-2.34-4.09s1-4,2.34-4,2.34,1.21,2.34,4S522.59,96.79,521.22,96.79Zm0-3.17a1,1,0,1,0-1-1A1,1,0,0,0,521.22,93.62Z"/><path class="cls-4" d="M527.32,97.64H534V96.58h-2.56V87.82h-.95a7,7,0,0,1-2.52.72v.84h2.2v7.2h-2.84Z"/><path class="cls-4" d="M539.68,97.83c2.19,0,3.53-1.87,3.53-5.13s-1.34-5.06-3.53-5.06-3.52,1.77-3.52,5.06S537.5,97.83,539.68,97.83Zm0-1c-1.37,0-2.34-1.27-2.34-4.09s1-4,2.34-4,2.34,1.21,2.34,4S541.05,96.79,539.68,96.79Zm0-3.17a1,1,0,0,0,0-2,1,1,0,0,0,0,2Z"/><path class="cls-4" d="M545.79,97.64h6.66V96.58H549.9V87.82h-1a7,7,0,0,1-2.52.72v.84h2.2v7.2h-2.83Z"/><path class="cls-4" d="M558.15,97.83c2.18,0,3.52-1.87,3.52-5.13s-1.34-5.06-3.52-5.06-3.53,1.77-3.53,5.06S556,97.83,558.15,97.83Zm0-1c-1.37,0-2.34-1.27-2.34-4.09s1-4,2.34-4,2.34,1.21,2.34,4S559.52,96.79,558.15,96.79Zm0-3.17a1,1,0,1,0-1-1A1,1,0,0,0,558.15,93.62Z"/><path class="cls-4" d="M564.25,97.64h6.67V96.58h-2.56V87.82h-1a7,7,0,0,1-2.53.72v.84h2.21v7.2h-2.84Z"/><path class="cls-4" d="M573.48,97.64h6.67V96.58h-2.56V87.82h-1a7,7,0,0,1-2.52.72v.84h2.2v7.2h-2.84Z"/><path class="cls-4" d="M582.72,97.64h6.66V96.58h-2.55V87.82h-1a7,7,0,0,1-2.52.72v.84h2.2v7.2h-2.83Z"/><path class="cls-4" d="M595.07,97.83c2.19,0,3.53-1.87,3.53-5.13s-1.34-5.06-3.53-5.06-3.52,1.77-3.52,5.06S592.89,97.83,595.07,97.83Zm0-1c-1.37,0-2.34-1.27-2.34-4.09s1-4,2.34-4,2.34,1.21,2.34,4S596.44,96.79,595.07,96.79Zm0-3.17a1,1,0,1,0-1-1A1,1,0,0,0,595.07,93.62Z"/><path class="cls-4" d="M601.18,97.64h6.67V96.58h-2.56V87.82h-.95a7,7,0,0,1-2.53.72v.84H604v7.2h-2.83Z"/><path class="cls-4" d="M613.54,97.83c2.18,0,3.52-1.87,3.52-5.13s-1.34-5.06-3.52-5.06S610,89.41,610,92.7,611.35,97.83,613.54,97.83Zm0-1c-1.37,0-2.34-1.27-2.34-4.09s1-4,2.34-4,2.34,1.21,2.34,4S614.91,96.79,613.54,96.79Zm0-3.17a1,1,0,1,0-1-1A1,1,0,0,0,613.54,93.62Z"/><path class="cls-4" d="M619.64,97.64h6.67V96.58h-2.56V87.82h-1a7,7,0,0,1-2.52.72v.84h2.2v7.2h-2.84Z"/><path class="cls-4" d="M632,97.83c2.19,0,3.53-1.87,3.53-5.13s-1.34-5.06-3.53-5.06-3.52,1.77-3.52,5.06S629.82,97.83,632,97.83Zm0-1c-1.37,0-2.34-1.27-2.34-4.09s1-4,2.34-4,2.34,1.21,2.34,4S633.37,96.79,632,96.79Zm0-3.17a1,1,0,0,0,0-2,1,1,0,0,0,0,2Z"/><path class="cls-4" d="M641.23,97.83c2.19,0,3.53-1.87,3.53-5.13s-1.34-5.06-3.53-5.06-3.52,1.77-3.52,5.06S639.05,97.83,641.23,97.83Zm0-1c-1.37,0-2.34-1.27-2.34-4.09s1-4,2.34-4,2.34,1.21,2.34,4S642.6,96.79,641.23,96.79Zm0-3.17a1,1,0,1,0-1-1A1,1,0,0,0,641.23,93.62Z"/><path class="cls-4" d="M650.47,97.83c2.18,0,3.52-1.87,3.52-5.13s-1.34-5.06-3.52-5.06-3.53,1.77-3.53,5.06S648.28,97.83,650.47,97.83Zm0-1c-1.37,0-2.34-1.27-2.34-4.09s1-4,2.34-4,2.34,1.21,2.34,4S651.84,96.79,650.47,96.79Zm0-3.17a1,1,0,1,0-1-1A1,1,0,0,0,650.47,93.62Z"/><path class="cls-4" d="M656.57,97.64h6.67V96.58h-2.56V87.82h-.95a7,7,0,0,1-2.53.72v.84h2.21v7.2h-2.84Z"/><path class="cls-4" d="M56.49,113.28h6.67v-1.06H60.6v-8.76h-1a7,7,0,0,1-2.53.72V105h2.2v7.21H56.49Z"/><path class="cls-4" d="M65.72,113.28h6.67v-1.06H69.83v-8.76h-1a7,7,0,0,1-2.53.72V105h2.21v7.21H65.72Z"/><path class="cls-4" d="M78.08,113.46c2.18,0,3.52-1.86,3.52-5.12s-1.34-5.07-3.52-5.07-3.53,1.77-3.53,5.07S75.89,113.46,78.08,113.46Zm0-1c-1.37,0-2.34-1.28-2.34-4.09s1-4,2.34-4,2.34,1.22,2.34,4S79.45,112.43,78.08,112.43Zm0-3.17a1,1,0,1,0-1-1A1,1,0,0,0,78.08,109.26Z"/><path class="cls-4" d="M84.19,113.28h6.66v-1.06H88.3v-8.76h-1a7,7,0,0,1-2.52.72V105H87v7.21H84.19Z"/><path class="cls-4" d="M96.54,113.46c2.19,0,3.53-1.86,3.53-5.12s-1.34-5.07-3.53-5.07S93,105,93,108.34,94.36,113.46,96.54,113.46Zm0-1c-1.37,0-2.34-1.28-2.34-4.09s1-4,2.34-4,2.34,1.22,2.34,4S97.91,112.43,96.54,112.43Zm0-3.17a1,1,0,1,0-1-1A1,1,0,0,0,96.54,109.26Z"/><path class="cls-4" d="M105.78,113.46c2.18,0,3.52-1.86,3.52-5.12s-1.34-5.07-3.52-5.07-3.53,1.77-3.53,5.07S103.59,113.46,105.78,113.46Zm0-1c-1.37,0-2.34-1.28-2.34-4.09s1-4,2.34-4,2.34,1.22,2.34,4S107.15,112.43,105.78,112.43Zm0-3.17a1,1,0,1,0-1-1A1,1,0,0,0,105.78,109.26Z"/><path class="cls-4" d="M111.88,113.28h6.67v-1.06H116v-8.76H115a7,7,0,0,1-2.53.72V105h2.21v7.21h-2.84Z"/><path class="cls-4" d="M124.24,113.46c2.18,0,3.52-1.86,3.52-5.12s-1.34-5.07-3.52-5.07-3.53,1.77-3.53,5.07S122.05,113.46,124.24,113.46Zm0-1c-1.37,0-2.34-1.28-2.34-4.09s1-4,2.34-4,2.34,1.22,2.34,4S125.61,112.43,124.24,112.43Zm0-3.17a1,1,0,1,0-.95-1A1,1,0,0,0,124.24,109.26Z"/><path class="cls-4" d="M130.35,113.28H137v-1.06h-2.55v-8.76h-1a7,7,0,0,1-2.52.72V105h2.2v7.21h-2.83Z"/><path class="cls-4" d="M139.58,113.28h6.66v-1.06h-2.55v-8.76h-1a7,7,0,0,1-2.52.72V105h2.2v7.21h-2.83Z"/><path class="cls-4" d="M151.94,113.46c2.18,0,3.52-1.86,3.52-5.12s-1.34-5.07-3.52-5.07-3.53,1.77-3.53,5.07S149.75,113.46,151.94,113.46Zm0-1c-1.37,0-2.34-1.28-2.34-4.09s1-4,2.34-4,2.34,1.22,2.34,4S153.31,112.43,151.94,112.43Zm0-3.17a1,1,0,1,0-1-1A1,1,0,0,0,151.94,109.26Z"/><path class="cls-4" d="M158,113.28h6.67v-1.06h-2.56v-8.76h-1a7,7,0,0,1-2.53.72V105h2.21v7.21H158Z"/><path class="cls-4" d="M170.4,113.46c2.19,0,3.52-1.86,3.52-5.12s-1.33-5.07-3.52-5.07-3.52,1.77-3.52,5.07S168.21,113.46,170.4,113.46Zm0-1c-1.37,0-2.34-1.28-2.34-4.09s1-4,2.34-4,2.34,1.22,2.34,4S171.77,112.43,170.4,112.43Zm0-3.17a1,1,0,1,0-1-1A1,1,0,0,0,170.4,109.26Z"/><path class="cls-4" d="M179.63,113.46c2.19,0,3.53-1.86,3.53-5.12s-1.34-5.07-3.53-5.07-3.52,1.77-3.52,5.07S177.45,113.46,179.63,113.46Zm0-1c-1.37,0-2.34-1.28-2.34-4.09s1-4,2.34-4,2.34,1.22,2.34,4S181,112.43,179.63,112.43Zm0-3.17a1,1,0,1,0-.95-1A1,1,0,0,0,179.63,109.26Z"/><path class="cls-4" d="M185.74,113.28h6.66v-1.06h-2.55v-8.76h-1a7,7,0,0,1-2.52.72V105h2.2v7.21h-2.83Z"/><path class="cls-4" d="M198.1,113.46c2.18,0,3.52-1.86,3.52-5.12s-1.34-5.07-3.52-5.07-3.53,1.77-3.53,5.07S195.91,113.46,198.1,113.46Zm0-1c-1.37,0-2.34-1.28-2.34-4.09s1-4,2.34-4,2.34,1.22,2.34,4S199.47,112.43,198.1,112.43Zm0-3.17a1,1,0,1,0-1-1A1,1,0,0,0,198.1,109.26Z"/><path class="cls-4" d="M204.2,113.28h6.67v-1.06h-2.56v-8.76h-.95a7,7,0,0,1-2.53.72V105H207v7.21H204.2Z"/><path class="cls-4" d="M213.44,113.28h6.66v-1.06h-2.56v-8.76h-.95a7,7,0,0,1-2.52.72V105h2.2v7.21h-2.83Z"/><path class="cls-4" d="M222.67,113.28h6.66v-1.06h-2.55v-8.76h-1a7,7,0,0,1-2.52.72V105h2.2v7.21h-2.83Z"/><path class="cls-4" d="M235,113.46c2.19,0,3.53-1.86,3.53-5.12s-1.34-5.07-3.53-5.07-3.52,1.77-3.52,5.07S232.84,113.46,235,113.46Zm0-1c-1.37,0-2.34-1.28-2.34-4.09s1-4,2.34-4,2.34,1.22,2.34,4S236.39,112.43,235,112.43Zm0-3.17a1,1,0,1,0-1-1A1,1,0,0,0,235,109.26Z"/><path class="cls-4" d="M241.13,113.28h6.67v-1.06h-2.56v-8.76h-1a7,7,0,0,1-2.53.72V105H244v7.21h-2.83Z"/><path class="cls-4" d="M253.49,113.46c2.18,0,3.52-1.86,3.52-5.12s-1.34-5.07-3.52-5.07S250,105,250,108.34,251.3,113.46,253.49,113.46Zm0-1c-1.37,0-2.34-1.28-2.34-4.09s1-4,2.34-4,2.34,1.22,2.34,4S254.86,112.43,253.49,112.43Zm0-3.17a1,1,0,0,0,0-2.05,1,1,0,0,0,0,2.05Z"/><path class="cls-4" d="M262.72,113.46c2.19,0,3.52-1.86,3.52-5.12s-1.33-5.07-3.52-5.07-3.52,1.77-3.52,5.07S260.53,113.46,262.72,113.46Zm0-1c-1.37,0-2.34-1.28-2.34-4.09s1-4,2.34-4,2.34,1.22,2.34,4S264.09,112.43,262.72,112.43Zm0-3.17a1,1,0,1,0-1-1A1,1,0,0,0,262.72,109.26Z"/><path class="cls-4" d="M268.83,113.28h6.66v-1.06h-2.55v-8.76h-1a7,7,0,0,1-2.52.72V105h2.2v7.21h-2.83Z"/><path class="cls-4" d="M278.06,113.28h6.66v-1.06h-2.55v-8.76h-.95a7,7,0,0,1-2.53.72V105h2.2v7.21h-2.83Z"/><path class="cls-4" d="M287.29,113.28H294v-1.06H291.4v-8.76h-.95a7,7,0,0,1-2.53.72V105h2.2v7.21h-2.83Z"/><path class="cls-4" d="M299.65,113.46c2.18,0,3.52-1.86,3.52-5.12s-1.34-5.07-3.52-5.07-3.53,1.77-3.53,5.07S297.46,113.46,299.65,113.46Zm0-1c-1.37,0-2.34-1.28-2.34-4.09s1-4,2.34-4,2.34,1.22,2.34,4S301,112.43,299.65,112.43Zm0-3.17a1,1,0,0,0,0-2.05,1,1,0,0,0,0,2.05Z"/><path class="cls-4" d="M308.88,113.46c2.19,0,3.52-1.86,3.52-5.12s-1.33-5.07-3.52-5.07-3.52,1.77-3.52,5.07S306.69,113.46,308.88,113.46Zm0-1c-1.37,0-2.34-1.28-2.34-4.09s1-4,2.34-4,2.34,1.22,2.34,4S310.25,112.43,308.88,112.43Zm0-3.17a1,1,0,1,0-.95-1A1,1,0,0,0,308.88,109.26Z"/><path class="cls-4" d="M315,113.28h6.66v-1.06H319.1v-8.76h-1a7,7,0,0,1-2.52.72V105h2.2v7.21H315Z"/><path class="cls-4" d="M327.34,113.46c2.19,0,3.53-1.86,3.53-5.12s-1.34-5.07-3.53-5.07-3.52,1.77-3.52,5.07S325.16,113.46,327.34,113.46Zm0-1c-1.37,0-2.33-1.28-2.33-4.09s1-4,2.33-4,2.34,1.22,2.34,4S328.71,112.43,327.34,112.43Zm0-3.17a1,1,0,1,0-.95-1A1,1,0,0,0,327.34,109.26Z"/><path class="cls-4" d="M333.45,113.28h6.67v-1.06h-2.56v-8.76h-.95a7,7,0,0,1-2.53.72V105h2.2v7.21h-2.83Z"/><path class="cls-4" d="M342.68,113.28h6.67v-1.06h-2.56v-8.76h-1a7,7,0,0,1-2.53.72V105h2.21v7.21h-2.84Z"/><path class="cls-4" d="M355,113.46c2.19,0,3.52-1.86,3.52-5.12s-1.33-5.07-3.52-5.07-3.52,1.77-3.52,5.07S352.85,113.46,355,113.46Zm0-1c-1.37,0-2.34-1.28-2.34-4.09s1-4,2.34-4,2.34,1.22,2.34,4S356.41,112.43,355,112.43Zm0-3.17a1,1,0,1,0-1-1A1,1,0,0,0,355,109.26Z"/><path class="cls-4" d="M361.15,113.28h6.66v-1.06h-2.55v-8.76h-1a7,7,0,0,1-2.52.72V105H364v7.21h-2.83Z"/><path class="cls-4" d="M373.5,113.46c2.19,0,3.53-1.86,3.53-5.12s-1.34-5.07-3.53-5.07S370,105,370,108.34,371.32,113.46,373.5,113.46Zm0-1c-1.37,0-2.33-1.28-2.33-4.09s1-4,2.33-4,2.34,1.22,2.34,4S374.87,112.43,373.5,112.43Zm0-3.17a1,1,0,1,0-.95-1A1,1,0,0,0,373.5,109.26Z"/><path class="cls-4" d="M382.74,113.46c2.18,0,3.52-1.86,3.52-5.12s-1.34-5.07-3.52-5.07-3.53,1.77-3.53,5.07S380.55,113.46,382.74,113.46Zm0-1c-1.37,0-2.34-1.28-2.34-4.09s1-4,2.34-4,2.34,1.22,2.34,4S384.11,112.43,382.74,112.43Zm0-3.17a1,1,0,1,0-1-1A1,1,0,0,0,382.74,109.26Z"/><path class="cls-4" d="M388.84,113.28h6.67v-1.06H393v-8.76H392a7,7,0,0,1-2.53.72V105h2.21v7.21h-2.84Z"/><path class="cls-4" d="M401.2,113.46c2.19,0,3.53-1.86,3.53-5.12s-1.34-5.07-3.53-5.07-3.52,1.77-3.52,5.07S399,113.46,401.2,113.46Zm0-1c-1.37,0-2.34-1.28-2.34-4.09s1-4,2.34-4,2.34,1.22,2.34,4S402.57,112.43,401.2,112.43Zm0-3.17a1,1,0,1,0-.95-1A1,1,0,0,0,401.2,109.26Z"/><path class="cls-4" d="M407.31,113.28H414v-1.06h-2.55v-8.76h-1a7,7,0,0,1-2.52.72V105h2.2v7.21h-2.83Z"/><path class="cls-4" d="M416.54,113.28h6.67v-1.06h-2.56v-8.76h-.95a7,7,0,0,1-2.53.72V105h2.2v7.21h-2.83Z"/><path class="cls-4" d="M428.9,113.46c2.18,0,3.52-1.86,3.52-5.12s-1.34-5.07-3.52-5.07-3.53,1.77-3.53,5.07S426.71,113.46,428.9,113.46Zm0-1c-1.37,0-2.34-1.28-2.34-4.09s1-4,2.34-4,2.34,1.22,2.34,4S430.27,112.43,428.9,112.43Zm0-3.17a1,1,0,0,0,0-2.05,1,1,0,0,0,0,2.05Z"/><path class="cls-4" d="M435,113.28h6.67v-1.06h-2.56v-8.76h-.95a7,7,0,0,1-2.52.72V105h2.2v7.21H435Z"/><path class="cls-4" d="M447.36,113.46c2.19,0,3.53-1.86,3.53-5.12s-1.34-5.07-3.53-5.07-3.52,1.77-3.52,5.07S445.18,113.46,447.36,113.46Zm0-1c-1.37,0-2.34-1.28-2.34-4.09s1-4,2.34-4,2.34,1.22,2.34,4S448.73,112.43,447.36,112.43Zm0-3.17a1,1,0,1,0-.95-1A1,1,0,0,0,447.36,109.26Z"/><path class="cls-4" d="M453.47,113.28h6.66v-1.06h-2.55v-8.76h-1a7,7,0,0,1-2.52.72V105h2.2v7.21h-2.83Z"/><path class="cls-4" d="M465.82,113.46c2.19,0,3.53-1.86,3.53-5.12s-1.34-5.07-3.53-5.07-3.52,1.77-3.52,5.07S463.64,113.46,465.82,113.46Zm0-1c-1.37,0-2.33-1.28-2.33-4.09s1-4,2.33-4,2.34,1.22,2.34,4S467.19,112.43,465.82,112.43Zm0-3.17a1,1,0,1,0-.95-1A1,1,0,0,0,465.82,109.26Z"/><path class="cls-4" d="M475.06,113.46c2.18,0,3.52-1.86,3.52-5.12s-1.34-5.07-3.52-5.07-3.53,1.77-3.53,5.07S472.87,113.46,475.06,113.46Zm0-1c-1.37,0-2.34-1.28-2.34-4.09s1-4,2.34-4,2.34,1.22,2.34,4S476.43,112.43,475.06,112.43Zm0-3.17a1,1,0,0,0,0-2.05,1,1,0,0,0,0,2.05Z"/><path class="cls-4" d="M481.16,113.28h6.67v-1.06h-2.56v-8.76h-.95a7,7,0,0,1-2.52.72V105H484v7.21h-2.84Z"/><path class="cls-4" d="M493.52,113.46c2.19,0,3.53-1.86,3.53-5.12s-1.34-5.07-3.53-5.07S490,105,490,108.34,491.34,113.46,493.52,113.46Zm0-1c-1.37,0-2.34-1.28-2.34-4.09s1-4,2.34-4,2.34,1.22,2.34,4S494.89,112.43,493.52,112.43Zm0-3.17a1,1,0,1,0-.95-1A1,1,0,0,0,493.52,109.26Z"/><path class="cls-4" d="M499.63,113.28h6.66v-1.06h-2.55v-8.76h-1a7,7,0,0,1-2.52.72V105h2.2v7.21h-2.83Z"/><path class="cls-4" d="M508.86,113.28h6.67v-1.06H513v-8.76h-1a7,7,0,0,1-2.53.72V105h2.2v7.21h-2.83Z"/><path class="cls-4" d="M521.22,113.46c2.18,0,3.52-1.86,3.52-5.12s-1.34-5.07-3.52-5.07-3.53,1.77-3.53,5.07S519,113.46,521.22,113.46Zm0-1c-1.37,0-2.34-1.28-2.34-4.09s1-4,2.34-4,2.34,1.22,2.34,4S522.59,112.43,521.22,112.43Zm0-3.17a1,1,0,0,0,0-2.05,1,1,0,0,0,0,2.05Z"/><path class="cls-4" d="M527.32,113.28H534v-1.06h-2.56v-8.76h-.95a7,7,0,0,1-2.52.72V105h2.2v7.21h-2.84Z"/><path class="cls-4" d="M539.68,113.46c2.19,0,3.53-1.86,3.53-5.12s-1.34-5.07-3.53-5.07-3.52,1.77-3.52,5.07S537.5,113.46,539.68,113.46Zm0-1c-1.37,0-2.34-1.28-2.34-4.09s1-4,2.34-4,2.34,1.22,2.34,4S541.05,112.43,539.68,112.43Zm0-3.17a1,1,0,1,0-.95-1A1,1,0,0,0,539.68,109.26Z"/><path class="cls-4" d="M545.79,113.28h6.66v-1.06H549.9v-8.76h-1a7,7,0,0,1-2.52.72V105h2.2v7.21h-2.83Z"/><path class="cls-4" d="M558.15,113.46c2.18,0,3.52-1.86,3.52-5.12s-1.34-5.07-3.52-5.07-3.53,1.77-3.53,5.07S556,113.46,558.15,113.46Zm0-1c-1.37,0-2.34-1.28-2.34-4.09s1-4,2.34-4,2.34,1.22,2.34,4S559.52,112.43,558.15,112.43Zm0-3.17a1,1,0,1,0-1-1A1,1,0,0,0,558.15,109.26Z"/><path class="cls-4" d="M564.25,113.28h6.67v-1.06h-2.56v-8.76h-1a7,7,0,0,1-2.53.72V105h2.21v7.21h-2.84Z"/><path class="cls-4" d="M573.48,113.28h6.67v-1.06h-2.56v-8.76h-1a7,7,0,0,1-2.52.72V105h2.2v7.21h-2.84Z"/><path class="cls-4" d="M582.72,113.28h6.66v-1.06h-2.55v-8.76h-1a7,7,0,0,1-2.52.72V105h2.2v7.21h-2.83Z"/><path class="cls-4" d="M595.07,113.46c2.19,0,3.53-1.86,3.53-5.12s-1.34-5.07-3.53-5.07-3.52,1.77-3.52,5.07S592.89,113.46,595.07,113.46Zm0-1c-1.37,0-2.34-1.28-2.34-4.09s1-4,2.34-4,2.34,1.22,2.34,4S596.44,112.43,595.07,112.43Zm0-3.17a1,1,0,1,0-1-1A1,1,0,0,0,595.07,109.26Z"/><path class="cls-4" d="M601.18,113.28h6.67v-1.06h-2.56v-8.76h-.95a7,7,0,0,1-2.53.72V105H604v7.21h-2.83Z"/><path class="cls-4" d="M613.54,113.46c2.18,0,3.52-1.86,3.52-5.12s-1.34-5.07-3.52-5.07S610,105,610,108.34,611.35,113.46,613.54,113.46Zm0-1c-1.37,0-2.34-1.28-2.34-4.09s1-4,2.34-4,2.34,1.22,2.34,4S614.91,112.43,613.54,112.43Zm0-3.17a1,1,0,0,0,0-2.05,1,1,0,0,0,0,2.05Z"/><path class="cls-4" d="M619.64,113.28h6.67v-1.06h-2.56v-8.76h-1a7,7,0,0,1-2.52.72V105h2.2v7.21h-2.84Z"/><path class="cls-4" d="M632,113.46c2.19,0,3.53-1.86,3.53-5.12s-1.34-5.07-3.53-5.07-3.52,1.77-3.52,5.07S629.82,113.46,632,113.46Zm0-1c-1.37,0-2.34-1.28-2.34-4.09s1-4,2.34-4,2.34,1.22,2.34,4S633.37,112.43,632,112.43Zm0-3.17a1,1,0,1,0-1-1A1,1,0,0,0,632,109.26Z"/><path class="cls-4" d="M641.23,113.46c2.19,0,3.53-1.86,3.53-5.12s-1.34-5.07-3.53-5.07-3.52,1.77-3.52,5.07S639.05,113.46,641.23,113.46Zm0-1c-1.37,0-2.34-1.28-2.34-4.09s1-4,2.34-4,2.34,1.22,2.34,4S642.6,112.43,641.23,112.43Zm0-3.17a1,1,0,1,0-1-1A1,1,0,0,0,641.23,109.26Z"/><path class="cls-4" d="M650.47,113.46c2.18,0,3.52-1.86,3.52-5.12s-1.34-5.07-3.52-5.07-3.53,1.77-3.53,5.07S648.28,113.46,650.47,113.46Zm0-1c-1.37,0-2.34-1.28-2.34-4.09s1-4,2.34-4,2.34,1.22,2.34,4S651.84,112.43,650.47,112.43Zm0-3.17a1,1,0,1,0-1-1A1,1,0,0,0,650.47,109.26Z"/><path class="cls-4" d="M656.57,113.28h6.67v-1.06h-2.56v-8.76h-.95a7,7,0,0,1-2.53.72V105h2.21v7.21h-2.84Z"/><path class="cls-4" d="M60.6,127.85v-8.76h-1a7.16,7.16,0,0,1-2.53.73v.83h2.2v7.2h-.79c.13.36.27.71.42,1.06h4.21v-1.06Z"/><path class="cls-4" d="M65.72,128.91h6.67v-1.06H69.83v-8.76h-1a7.16,7.16,0,0,1-2.53.73v.83h2.21v7.2H65.72Z"/><path class="cls-4" d="M78.08,129.1c2.18,0,3.52-1.86,3.52-5.13s-1.34-5.06-3.52-5.06-3.53,1.77-3.53,5.06S75.89,129.1,78.08,129.1Zm0-1c-1.37,0-2.34-1.28-2.34-4.1s1-4,2.34-4,2.34,1.22,2.34,4S79.45,128.07,78.08,128.07Zm0-3.17a1,1,0,0,0,1-1,1,1,0,1,0-1.9,0A1,1,0,0,0,78.08,124.9Z"/><path class="cls-4" d="M84.19,128.91h6.66v-1.06H88.3v-8.76h-1a7.17,7.17,0,0,1-2.52.73v.83H87v7.2H84.19Z"/><path class="cls-4" d="M96.54,129.1c2.19,0,3.53-1.86,3.53-5.13s-1.34-5.06-3.53-5.06S93,120.68,93,124,94.36,129.1,96.54,129.1Zm0-1c-1.37,0-2.34-1.28-2.34-4.1s1-4,2.34-4,2.34,1.22,2.34,4S97.91,128.07,96.54,128.07Zm0-3.17a1,1,0,0,0,1-1,1,1,0,1,0-1.91,0A1,1,0,0,0,96.54,124.9Z"/><path class="cls-4" d="M105.78,129.1c2.18,0,3.52-1.86,3.52-5.13s-1.34-5.06-3.52-5.06-3.53,1.77-3.53,5.06S103.59,129.1,105.78,129.1Zm0-1c-1.37,0-2.34-1.28-2.34-4.1s1-4,2.34-4,2.34,1.22,2.34,4S107.15,128.07,105.78,128.07Zm0-3.17a1,1,0,0,0,1-1,1,1,0,1,0-1.91,0A1,1,0,0,0,105.78,124.9Z"/><path class="cls-4" d="M111.88,128.91h6.67v-1.06H116v-8.76H115a7.16,7.16,0,0,1-2.53.73v.83h2.21v7.2h-2.84Z"/><path class="cls-4" d="M124.24,129.1c2.18,0,3.52-1.86,3.52-5.13s-1.34-5.06-3.52-5.06-3.53,1.77-3.53,5.06S122.05,129.1,124.24,129.1Zm0-1c-1.37,0-2.34-1.28-2.34-4.1s1-4,2.34-4,2.34,1.22,2.34,4S125.61,128.07,124.24,128.07Zm0-3.17a1,1,0,0,0,1-1,1,1,0,1,0-1.9,0A1,1,0,0,0,124.24,124.9Z"/><path class="cls-4" d="M130.35,128.91H137v-1.06h-2.55v-8.76h-1a7.17,7.17,0,0,1-2.52.73v.83h2.2v7.2h-2.83Z"/><path class="cls-4" d="M139.58,128.91h6.66v-1.06h-2.55v-8.76h-1a7.17,7.17,0,0,1-2.52.73v.83h2.2v7.2h-2.83Z"/><path class="cls-4" d="M151.94,129.1c2.18,0,3.52-1.86,3.52-5.13s-1.34-5.06-3.52-5.06-3.53,1.77-3.53,5.06S149.75,129.1,151.94,129.1Zm0-1c-1.37,0-2.34-1.28-2.34-4.1s1-4,2.34-4,2.34,1.22,2.34,4S153.31,128.07,151.94,128.07Zm0-3.17a1,1,0,0,0,.95-1,1,1,0,1,0-1.91,0A1,1,0,0,0,151.94,124.9Z"/><path class="cls-4" d="M158,128.91h6.67v-1.06h-2.56v-8.76h-1a7.16,7.16,0,0,1-2.53.73v.83h2.21v7.2H158Z"/><path class="cls-4" d="M170.4,129.1c2.19,0,3.52-1.86,3.52-5.13s-1.33-5.06-3.52-5.06-3.52,1.77-3.52,5.06S168.21,129.1,170.4,129.1Zm0-1c-1.37,0-2.34-1.28-2.34-4.1s1-4,2.34-4,2.34,1.22,2.34,4S171.77,128.07,170.4,128.07Zm0-3.17a1,1,0,0,0,.95-1,1,1,0,1,0-1.9,0A1,1,0,0,0,170.4,124.9Z"/><path class="cls-4" d="M179.63,129.1c2.19,0,3.53-1.86,3.53-5.13s-1.34-5.06-3.53-5.06-3.52,1.77-3.52,5.06S177.45,129.1,179.63,129.1Zm0-1c-1.37,0-2.34-1.28-2.34-4.1s1-4,2.34-4,2.34,1.22,2.34,4S181,128.07,179.63,128.07Zm0-3.17a1,1,0,0,0,1-1,1,1,0,1,0-1,1Z"/><path class="cls-4" d="M185.74,128.91h6.66v-1.06h-2.55v-8.76h-1a7.17,7.17,0,0,1-2.52.73v.83h2.2v7.2h-2.83Z"/><path class="cls-4" d="M198.1,129.1c2.18,0,3.52-1.86,3.52-5.13s-1.34-5.06-3.52-5.06-3.53,1.77-3.53,5.06S195.91,129.1,198.1,129.1Zm0-1c-1.37,0-2.34-1.28-2.34-4.1s1-4,2.34-4,2.34,1.22,2.34,4S199.47,128.07,198.1,128.07Zm0-3.17a1,1,0,0,0,1-1,1,1,0,1,0-1.91,0A1,1,0,0,0,198.1,124.9Z"/><path class="cls-4" d="M204.2,128.91h6.67v-1.06h-2.56v-8.76h-.95a7.16,7.16,0,0,1-2.53.73v.83H207v7.2H204.2Z"/><path class="cls-4" d="M213.44,128.91h6.66v-1.06h-2.56v-8.76h-.95a7.17,7.17,0,0,1-2.52.73v.83h2.2v7.2h-2.83Z"/><path class="cls-4" d="M222.67,128.91h6.66v-1.06h-2.55v-8.76h-1a7.17,7.17,0,0,1-2.52.73v.83h2.2v7.2h-2.83Z"/><path class="cls-4" d="M235,129.1c2.19,0,3.53-1.86,3.53-5.13s-1.34-5.06-3.53-5.06-3.52,1.77-3.52,5.06S232.84,129.1,235,129.1Zm0-1c-1.37,0-2.34-1.28-2.34-4.1s1-4,2.34-4,2.34,1.22,2.34,4S236.39,128.07,235,128.07Zm0-3.17a1,1,0,0,0,1-1,1,1,0,1,0-1.91,0A1,1,0,0,0,235,124.9Z"/><path class="cls-4" d="M241.13,128.91h6.67v-1.06h-2.56v-8.76h-1a7.16,7.16,0,0,1-2.53.73v.83H244v7.2h-2.83Z"/><path class="cls-4" d="M253.49,129.1c2.18,0,3.52-1.86,3.52-5.13s-1.34-5.06-3.52-5.06S250,120.68,250,124,251.3,129.1,253.49,129.1Zm0-1c-1.37,0-2.34-1.28-2.34-4.1s1-4,2.34-4,2.34,1.22,2.34,4S254.86,128.07,253.49,128.07Zm0-3.17a1,1,0,0,0,.95-1,1,1,0,1,0-1.91,0A1,1,0,0,0,253.49,124.9Z"/><path class="cls-4" d="M262.72,129.1c2.19,0,3.52-1.86,3.52-5.13s-1.33-5.06-3.52-5.06-3.52,1.77-3.52,5.06S260.53,129.1,262.72,129.1Zm0-1c-1.37,0-2.34-1.28-2.34-4.1s1-4,2.34-4,2.34,1.22,2.34,4S264.09,128.07,262.72,128.07Zm0-3.17a1,1,0,0,0,.95-1,1,1,0,1,0-1.9,0A1,1,0,0,0,262.72,124.9Z"/><path class="cls-4" d="M268.83,128.91h6.66v-1.06h-2.55v-8.76h-1a7.17,7.17,0,0,1-2.52.73v.83h2.2v7.2h-2.83Z"/><path class="cls-4" d="M278.06,128.91h6.66v-1.06h-2.55v-8.76h-.95a7.23,7.23,0,0,1-2.53.73v.83h2.2v7.2h-2.83Z"/><path class="cls-4" d="M287.29,128.91H294v-1.06H291.4v-8.76h-.95a7.16,7.16,0,0,1-2.53.73v.83h2.2v7.2h-2.83Z"/><path class="cls-4" d="M299.65,129.1c2.18,0,3.52-1.86,3.52-5.13s-1.34-5.06-3.52-5.06-3.53,1.77-3.53,5.06S297.46,129.1,299.65,129.1Zm0-1c-1.37,0-2.34-1.28-2.34-4.1s1-4,2.34-4,2.34,1.22,2.34,4S301,128.07,299.65,128.07Zm0-3.17a1,1,0,0,0,1-1,1,1,0,1,0-1.91,0A1,1,0,0,0,299.65,124.9Z"/><path class="cls-4" d="M308.88,129.1c2.19,0,3.52-1.86,3.52-5.13s-1.33-5.06-3.52-5.06-3.52,1.77-3.52,5.06S306.69,129.1,308.88,129.1Zm0-1c-1.37,0-2.34-1.28-2.34-4.1s1-4,2.34-4,2.34,1.22,2.34,4S310.25,128.07,308.88,128.07Zm0-3.17a1,1,0,0,0,.95-1,1,1,0,1,0-1.9,0A1,1,0,0,0,308.88,124.9Z"/><path class="cls-4" d="M315,128.91h6.66v-1.06H319.1v-8.76h-1a7.17,7.17,0,0,1-2.52.73v.83h2.2v7.2H315Z"/><path class="cls-4" d="M327.34,129.1c2.19,0,3.53-1.86,3.53-5.13s-1.34-5.06-3.53-5.06-3.52,1.77-3.52,5.06S325.16,129.1,327.34,129.1Zm0-1c-1.37,0-2.33-1.28-2.33-4.1s1-4,2.33-4,2.34,1.22,2.34,4S328.71,128.07,327.34,128.07Zm0-3.17a1,1,0,0,0,1-1,1,1,0,1,0-1.91,0A1,1,0,0,0,327.34,124.9Z"/><path class="cls-4" d="M333.45,128.91h6.67v-1.06h-2.56v-8.76h-.95a7.16,7.16,0,0,1-2.53.73v.83h2.2v7.2h-2.83Z"/><path class="cls-4" d="M342.68,128.91h6.67v-1.06h-2.56v-8.76h-1a7.16,7.16,0,0,1-2.53.73v.83h2.21v7.2h-2.84Z"/><path class="cls-4" d="M355,129.1c2.19,0,3.52-1.86,3.52-5.13s-1.33-5.06-3.52-5.06-3.52,1.77-3.52,5.06S352.85,129.1,355,129.1Zm0-1c-1.37,0-2.34-1.28-2.34-4.1s1-4,2.34-4,2.34,1.22,2.34,4S356.41,128.07,355,128.07Zm0-3.17a1,1,0,0,0,.95-1,1,1,0,1,0-1.9,0A1,1,0,0,0,355,124.9Z"/><path class="cls-4" d="M361.15,128.91h6.66v-1.06h-2.55v-8.76h-1a7.17,7.17,0,0,1-2.52.73v.83H364v7.2h-2.83Z"/><path class="cls-4" d="M373.5,129.1c2.19,0,3.53-1.86,3.53-5.13s-1.34-5.06-3.53-5.06S370,120.68,370,124,371.32,129.1,373.5,129.1Zm0-1c-1.37,0-2.33-1.28-2.33-4.1s1-4,2.33-4,2.34,1.22,2.34,4S374.87,128.07,373.5,128.07Zm0-3.17a1,1,0,0,0,1-1,1,1,0,1,0-1.91,0A1,1,0,0,0,373.5,124.9Z"/><path class="cls-4" d="M382.74,129.1c2.18,0,3.52-1.86,3.52-5.13s-1.34-5.06-3.52-5.06-3.53,1.77-3.53,5.06S380.55,129.1,382.74,129.1Zm0-1c-1.37,0-2.34-1.28-2.34-4.1s1-4,2.34-4,2.34,1.22,2.34,4S384.11,128.07,382.74,128.07Zm0-3.17a1,1,0,0,0,.95-1,1,1,0,1,0-1.91,0A1,1,0,0,0,382.74,124.9Z"/><path class="cls-4" d="M388.84,128.91h6.67v-1.06H393v-8.76H392a7.16,7.16,0,0,1-2.53.73v.83h2.21v7.2h-2.84Z"/><path class="cls-4" d="M401.2,129.1c2.19,0,3.53-1.86,3.53-5.13s-1.34-5.06-3.53-5.06-3.52,1.77-3.52,5.06S399,129.1,401.2,129.1Zm0-1c-1.37,0-2.34-1.28-2.34-4.1s1-4,2.34-4,2.34,1.22,2.34,4S402.57,128.07,401.2,128.07Zm0-3.17a1,1,0,0,0,.95-1,1,1,0,1,0-1.9,0A1,1,0,0,0,401.2,124.9Z"/><path class="cls-4" d="M407.31,128.91H414v-1.06h-2.55v-8.76h-1a7.17,7.17,0,0,1-2.52.73v.83h2.2v7.2h-2.83Z"/><path class="cls-4" d="M416.54,128.91h6.67v-1.06h-2.56v-8.76h-.95a7.23,7.23,0,0,1-2.53.73v.83h2.2v7.2h-2.83Z"/><path class="cls-4" d="M428.9,129.1c2.18,0,3.52-1.86,3.52-5.13s-1.34-5.06-3.52-5.06-3.53,1.77-3.53,5.06S426.71,129.1,428.9,129.1Zm0-1c-1.37,0-2.34-1.28-2.34-4.1s1-4,2.34-4,2.34,1.22,2.34,4S430.27,128.07,428.9,128.07Zm0-3.17a1,1,0,0,0,1-1,1,1,0,1,0-1.91,0A1,1,0,0,0,428.9,124.9Z"/><path class="cls-4" d="M435,128.91h6.67v-1.06h-2.56v-8.76h-.95a7.17,7.17,0,0,1-2.52.73v.83h2.2v7.2H435Z"/><path class="cls-4" d="M447.36,129.1c2.19,0,3.53-1.86,3.53-5.13s-1.34-5.06-3.53-5.06-3.52,1.77-3.52,5.06S445.18,129.1,447.36,129.1Zm0-1c-1.37,0-2.34-1.28-2.34-4.1s1-4,2.34-4,2.34,1.22,2.34,4S448.73,128.07,447.36,128.07Zm0-3.17a1,1,0,0,0,.95-1,1,1,0,1,0-1.9,0A1,1,0,0,0,447.36,124.9Z"/><path class="cls-4" d="M453.47,128.91h6.66v-1.06h-2.55v-8.76h-1a7.17,7.17,0,0,1-2.52.73v.83h2.2v7.2h-2.83Z"/><path class="cls-4" d="M465.82,129.1c2.19,0,3.53-1.86,3.53-5.13s-1.34-5.06-3.53-5.06-3.52,1.77-3.52,5.06S463.64,129.1,465.82,129.1Zm0-1c-1.37,0-2.33-1.28-2.33-4.1s1-4,2.33-4,2.34,1.22,2.34,4S467.19,128.07,465.82,128.07Zm0-3.17a1,1,0,0,0,1-1,1,1,0,1,0-1.91,0A1,1,0,0,0,465.82,124.9Z"/><path class="cls-4" d="M475.06,129.1c2.18,0,3.52-1.86,3.52-5.13s-1.34-5.06-3.52-5.06-3.53,1.77-3.53,5.06S472.87,129.1,475.06,129.1Zm0-1c-1.37,0-2.34-1.28-2.34-4.1s1-4,2.34-4,2.34,1.22,2.34,4S476.43,128.07,475.06,128.07Zm0-3.17a1,1,0,0,0,.95-1,1,1,0,1,0-1.91,0A1,1,0,0,0,475.06,124.9Z"/><path class="cls-4" d="M481.16,128.91h6.67v-1.06h-2.56v-8.76h-.95a7.17,7.17,0,0,1-2.52.73v.83H484v7.2h-2.84Z"/><path class="cls-4" d="M493.52,129.1c2.19,0,3.53-1.86,3.53-5.13s-1.34-5.06-3.53-5.06S490,120.68,490,124,491.34,129.1,493.52,129.1Zm0-1c-1.37,0-2.34-1.28-2.34-4.1s1-4,2.34-4,2.34,1.22,2.34,4S494.89,128.07,493.52,128.07Zm0-3.17a1,1,0,0,0,1-1,1,1,0,1,0-1,1Z"/><path class="cls-4" d="M499.63,128.91h6.66v-1.06h-2.55v-8.76h-1a7.17,7.17,0,0,1-2.52.73v.83h2.2v7.2h-2.83Z"/><path class="cls-4" d="M508.86,128.91h6.67v-1.06H513v-8.76h-1a7.23,7.23,0,0,1-2.53.73v.83h2.2v7.2h-2.83Z"/><path class="cls-4" d="M521.22,129.1c2.18,0,3.52-1.86,3.52-5.13s-1.34-5.06-3.52-5.06-3.53,1.77-3.53,5.06S519,129.1,521.22,129.1Zm0-1c-1.37,0-2.34-1.28-2.34-4.1s1-4,2.34-4,2.34,1.22,2.34,4S522.59,128.07,521.22,128.07Zm0-3.17a1,1,0,0,0,.95-1,1,1,0,1,0-1.91,0A1,1,0,0,0,521.22,124.9Z"/><path class="cls-4" d="M527.32,128.91H534v-1.06h-2.56v-8.76h-.95a7.17,7.17,0,0,1-2.52.73v.83h2.2v7.2h-2.84Z"/><path class="cls-4" d="M539.68,129.1c2.19,0,3.53-1.86,3.53-5.13s-1.34-5.06-3.53-5.06-3.52,1.77-3.52,5.06S537.5,129.1,539.68,129.1Zm0-1c-1.37,0-2.34-1.28-2.34-4.1s1-4,2.34-4,2.34,1.22,2.34,4S541.05,128.07,539.68,128.07Zm0-3.17a1,1,0,0,0,1-1,1,1,0,1,0-1,1Z"/><path class="cls-4" d="M545.79,128.91h6.66v-1.06H549.9v-8.76h-1a7.17,7.17,0,0,1-2.52.73v.83h2.2v7.2h-2.83Z"/><path class="cls-4" d="M558.15,129.1c2.18,0,3.52-1.86,3.52-5.13s-1.34-5.06-3.52-5.06-3.53,1.77-3.53,5.06S556,129.1,558.15,129.1Zm0-1c-1.37,0-2.34-1.28-2.34-4.1s1-4,2.34-4,2.34,1.22,2.34,4S559.52,128.07,558.15,128.07Zm0-3.17a1,1,0,0,0,1-1,1,1,0,1,0-1.91,0A1,1,0,0,0,558.15,124.9Z"/><path class="cls-4" d="M564.25,128.91h6.67v-1.06h-2.56v-8.76h-1a7.16,7.16,0,0,1-2.53.73v.83h2.21v7.2h-2.84Z"/><path class="cls-4" d="M573.48,128.91h6.67v-1.06h-2.56v-8.76h-1a7.17,7.17,0,0,1-2.52.73v.83h2.2v7.2h-2.84Z"/><path class="cls-4" d="M582.72,128.91h6.66v-1.06h-2.55v-8.76h-1a7.17,7.17,0,0,1-2.52.73v.83h2.2v7.2h-2.83Z"/><path class="cls-4" d="M595.07,129.1c2.19,0,3.53-1.86,3.53-5.13s-1.34-5.06-3.53-5.06-3.52,1.77-3.52,5.06S592.89,129.1,595.07,129.1Zm0-1c-1.37,0-2.34-1.28-2.34-4.1s1-4,2.34-4,2.34,1.22,2.34,4S596.44,128.07,595.07,128.07Zm0-3.17a1,1,0,0,0,1-1,1,1,0,1,0-1.91,0A1,1,0,0,0,595.07,124.9Z"/><path class="cls-4" d="M601.18,128.91h6.67v-1.06h-2.56v-8.76h-.95a7.16,7.16,0,0,1-2.53.73v.83H604v7.2h-2.83Z"/><path class="cls-4" d="M613.54,129.1c2.18,0,3.52-1.86,3.52-5.13s-1.34-5.06-3.52-5.06S610,120.68,610,124,611.35,129.1,613.54,129.1Zm0-1c-1.37,0-2.34-1.28-2.34-4.1s1-4,2.34-4,2.34,1.22,2.34,4S614.91,128.07,613.54,128.07Zm0-3.17a1,1,0,0,0,1-1,1,1,0,1,0-1.91,0A1,1,0,0,0,613.54,124.9Z"/><path class="cls-4" d="M619.64,128.91h6.67v-1.06h-2.56v-8.76h-1a7.17,7.17,0,0,1-2.52.73v.83h2.2v7.2h-2.84Z"/><path class="cls-4" d="M632,129.1c2.19,0,3.53-1.86,3.53-5.13s-1.34-5.06-3.53-5.06-3.52,1.77-3.52,5.06S629.82,129.1,632,129.1Zm0-1c-1.37,0-2.34-1.28-2.34-4.1s1-4,2.34-4,2.34,1.22,2.34,4S633.37,128.07,632,128.07Zm0-3.17a1,1,0,0,0,1-1,1,1,0,1,0-1,1Z"/><path class="cls-4" d="M641.23,129.1c2.19,0,3.53-1.86,3.53-5.13s-1.34-5.06-3.53-5.06-3.52,1.77-3.52,5.06S639.05,129.1,641.23,129.1Zm0-1c-1.37,0-2.34-1.28-2.34-4.1s1-4,2.34-4,2.34,1.22,2.34,4S642.6,128.07,641.23,128.07Zm0-3.17a1,1,0,0,0,1-1,1,1,0,1,0-1.91,0A1,1,0,0,0,641.23,124.9Z"/><path class="cls-4" d="M650.47,129.1c2.18,0,3.52-1.86,3.52-5.13s-1.34-5.06-3.52-5.06-3.53,1.77-3.53,5.06S648.28,129.1,650.47,129.1Zm0-1c-1.37,0-2.34-1.28-2.34-4.1s1-4,2.34-4,2.34,1.22,2.34,4S651.84,128.07,650.47,128.07Zm0-3.17a1,1,0,0,0,.95-1,1,1,0,1,0-1.91,0A1,1,0,0,0,650.47,124.9Z"/><path class="cls-4" d="M660.68,127.85v-8.76h-.95a7.16,7.16,0,0,1-2.53.73v.83h2.21v7.2h-2.84v1.06h4.48l.42-1.06Z"/><path class="cls-5" d="M70.61,143.62v-9.06h-1a7.41,7.41,0,0,1-2.62.75v.86h2.28v7.45H67.21c.28.37.55.74.84,1.1h5.21v-1.1Z"/><path class="cls-5" d="M79.15,144.91c2.26,0,3.64-1.93,3.64-5.3s-1.38-5.24-3.64-5.24-3.65,1.83-3.65,5.24S76.88,144.91,79.15,144.91Zm0-1.07c-1.42,0-2.42-1.32-2.42-4.23s1-4.17,2.42-4.17,2.42,1.25,2.42,4.17S80.56,143.84,79.15,143.84Zm0-3.28a1.06,1.06,0,1,0-1-1.06A1,1,0,0,0,79.15,140.56Z"/><path class="cls-5" d="M85.46,144.72h6.9v-1.1H89.72v-9.06h-1a7.35,7.35,0,0,1-2.61.75v.86h2.27v7.45H85.46Z"/><path class="cls-5" d="M98.25,144.91c2.26,0,3.64-1.93,3.64-5.3s-1.38-5.24-3.64-5.24-3.65,1.83-3.65,5.24S96,144.91,98.25,144.91Zm0-1.07c-1.42,0-2.42-1.32-2.42-4.23s1-4.17,2.42-4.17,2.42,1.25,2.42,4.17S99.67,143.84,98.25,143.84Zm0-3.28a1.06,1.06,0,1,0-1-1.06A1,1,0,0,0,98.25,140.56Z"/><path class="cls-5" d="M107.8,144.91c2.26,0,3.65-1.93,3.65-5.3s-1.39-5.24-3.65-5.24-3.65,1.83-3.65,5.24S105.54,144.91,107.8,144.91Zm0-1.07c-1.42,0-2.42-1.32-2.42-4.23s1-4.17,2.42-4.17,2.42,1.25,2.42,4.17S109.22,143.84,107.8,143.84Zm0-3.28a1.06,1.06,0,1,0-1-1.06A1,1,0,0,0,107.8,140.56Z"/><path class="cls-5" d="M114.12,144.72H121v-1.1h-2.64v-9.06h-1a7.29,7.29,0,0,1-2.61.75v.86h2.28v7.45h-2.93Z"/><path class="cls-5" d="M126.9,144.91c2.26,0,3.65-1.93,3.65-5.3s-1.39-5.24-3.65-5.24-3.64,1.83-3.64,5.24S124.64,144.91,126.9,144.91Zm0-1.07c-1.41,0-2.42-1.32-2.42-4.23s1-4.17,2.42-4.17,2.42,1.25,2.42,4.17S128.32,143.84,126.9,143.84Zm0-3.28a1.06,1.06,0,1,0-1-1.06A1,1,0,0,0,126.9,140.56Z"/><path class="cls-5" d="M133.22,144.72h6.9v-1.1h-2.65v-9.06h-1a7.41,7.41,0,0,1-2.62.75v.86h2.28v7.45h-2.93Z"/><path class="cls-5" d="M142.77,144.72h6.9v-1.1H147v-9.06h-1a7.42,7.42,0,0,1-2.61.75v.86h2.27v7.45h-2.93Z"/><path class="cls-5" d="M155.56,144.91c2.26,0,3.64-1.93,3.64-5.3s-1.38-5.24-3.64-5.24-3.65,1.83-3.65,5.24S153.3,144.91,155.56,144.91Zm0-1.07c-1.42,0-2.42-1.32-2.42-4.23s1-4.17,2.42-4.17,2.42,1.25,2.42,4.17S157,143.84,155.56,143.84Zm0-3.28a1.06,1.06,0,1,0-1-1.06A1,1,0,0,0,155.56,140.56Z"/><path class="cls-5" d="M161.88,144.72h6.89v-1.1h-2.64v-9.06h-1a7.35,7.35,0,0,1-2.61.75v.86h2.28v7.45h-2.93Z"/><path class="cls-5" d="M174.66,144.91c2.26,0,3.65-1.93,3.65-5.3s-1.39-5.24-3.65-5.24S171,136.2,171,139.61,172.4,144.91,174.66,144.91Zm0-1.07c-1.42,0-2.42-1.32-2.42-4.23s1-4.17,2.42-4.17,2.42,1.25,2.42,4.17S176.08,143.84,174.66,143.84Zm0-3.28a1.06,1.06,0,1,0-1-1.06A1,1,0,0,0,174.66,140.56Z"/><path class="cls-5" d="M184.21,144.91c2.26,0,3.65-1.93,3.65-5.3s-1.39-5.24-3.65-5.24-3.65,1.83-3.65,5.24S182,144.91,184.21,144.91Zm0-1.07c-1.42,0-2.42-1.32-2.42-4.23s1-4.17,2.42-4.17,2.42,1.25,2.42,4.17S185.63,143.84,184.21,143.84Zm0-3.28a1.06,1.06,0,1,0-1-1.06A1,1,0,0,0,184.21,140.56Z"/><path class="cls-5" d="M190.53,144.72h6.9v-1.1h-2.65v-9.06h-1a7.29,7.29,0,0,1-2.61.75v.86h2.28v7.45h-2.93Z"/><path class="cls-5" d="M203.31,144.91c2.26,0,3.65-1.93,3.65-5.3s-1.39-5.24-3.65-5.24-3.64,1.83-3.64,5.24S201.05,144.91,203.31,144.91Zm0-1.07c-1.41,0-2.42-1.32-2.42-4.23s1-4.17,2.42-4.17,2.42,1.25,2.42,4.17S204.73,143.84,203.31,143.84Zm0-3.28a1.06,1.06,0,1,0-1-1.06A1,1,0,0,0,203.31,140.56Z"/><path class="cls-5" d="M209.63,144.72h6.9v-1.1h-2.65v-9.06h-1a7.42,7.42,0,0,1-2.61.75v.86h2.27v7.45h-2.93Z"/><path class="cls-5" d="M219.18,144.72h6.9v-1.1h-2.64v-9.06h-1a7.35,7.35,0,0,1-2.61.75v.86h2.27v7.45h-2.93Z"/><path class="cls-5" d="M228.74,144.72h6.89v-1.1H233v-9.06h-1a7.35,7.35,0,0,1-2.61.75v.86h2.28v7.45h-2.93Z"/><path class="cls-5" d="M241.52,144.91c2.26,0,3.65-1.93,3.65-5.3s-1.39-5.24-3.65-5.24-3.65,1.83-3.65,5.24S239.26,144.91,241.52,144.91Zm0-1.07c-1.42,0-2.42-1.32-2.42-4.23s1-4.17,2.42-4.17,2.42,1.25,2.42,4.17S242.94,143.84,241.52,143.84Zm0-3.28a1.06,1.06,0,1,0-1-1.06A1,1,0,0,0,241.52,140.56Z"/><path class="cls-5" d="M247.84,144.72h6.89v-1.1h-2.64v-9.06h-1a7.29,7.29,0,0,1-2.61.75v.86h2.28v7.45h-2.93Z"/><path class="cls-5" d="M260.62,144.91c2.26,0,3.65-1.93,3.65-5.3s-1.39-5.24-3.65-5.24S257,136.2,257,139.61,258.36,144.91,260.62,144.91Zm0-1.07c-1.42,0-2.42-1.32-2.42-4.23s1-4.17,2.42-4.17,2.42,1.25,2.42,4.17S262,143.84,260.62,143.84Zm0-3.28a1.06,1.06,0,1,0-1-1.06A1,1,0,0,0,260.62,140.56Z"/><path class="cls-5" d="M270.17,144.91c2.26,0,3.65-1.93,3.65-5.3s-1.39-5.24-3.65-5.24-3.64,1.83-3.64,5.24S267.91,144.91,270.17,144.91Zm0-1.07c-1.41,0-2.42-1.32-2.42-4.23s1-4.17,2.42-4.17,2.42,1.25,2.42,4.17S271.59,143.84,270.17,143.84Zm0-3.28a1.06,1.06,0,1,0-1-1.06A1,1,0,0,0,270.17,140.56Z"/><path class="cls-5" d="M276.49,144.72h6.9v-1.1h-2.65v-9.06h-1a7.42,7.42,0,0,1-2.61.75v.86h2.27v7.45h-2.93Z"/><path class="cls-5" d="M286,144.72h6.9v-1.1H290.3v-9.06h-1a7.35,7.35,0,0,1-2.61.75v.86H289v7.45H286Z"/><path class="cls-5" d="M295.59,144.72h6.9v-1.1h-2.64v-9.06h-1a7.35,7.35,0,0,1-2.61.75v.86h2.28v7.45h-2.94Z"/><path class="cls-5" d="M308.38,144.91c2.26,0,3.65-1.93,3.65-5.3s-1.39-5.24-3.65-5.24-3.65,1.83-3.65,5.24S306.12,144.91,308.38,144.91Zm0-1.07c-1.42,0-2.42-1.32-2.42-4.23s1-4.17,2.42-4.17,2.42,1.25,2.42,4.17S309.8,143.84,308.38,143.84Zm0-3.28a1.06,1.06,0,1,0-1-1.06A1,1,0,0,0,308.38,140.56Z"/><path class="cls-5" d="M317.93,144.91c2.26,0,3.65-1.93,3.65-5.3s-1.39-5.24-3.65-5.24-3.65,1.83-3.65,5.24S315.67,144.91,317.93,144.91Zm0-1.07c-1.42,0-2.42-1.32-2.42-4.23s1-4.17,2.42-4.17,2.42,1.25,2.42,4.17S319.35,143.84,317.93,143.84Zm0-3.28a1.06,1.06,0,1,0-1-1.06A1,1,0,0,0,317.93,140.56Z"/><path class="cls-5" d="M324.25,144.72h6.89v-1.1H328.5v-9.06h-1a7.29,7.29,0,0,1-2.61.75v.86h2.28v7.45h-2.93Z"/><path class="cls-5" d="M337,144.91c2.26,0,3.65-1.93,3.65-5.3s-1.39-5.24-3.65-5.24-3.64,1.83-3.64,5.24S334.77,144.91,337,144.91Zm0-1.07c-1.41,0-2.42-1.32-2.42-4.23s1-4.17,2.42-4.17,2.42,1.25,2.42,4.17S338.45,143.84,337,143.84Zm0-3.28a1.06,1.06,0,1,0-1-1.06A1,1,0,0,0,337,140.56Z"/><path class="cls-5" d="M343.35,144.72h6.9v-1.1H347.6v-9.06h-1a7.41,7.41,0,0,1-2.62.75v.86h2.28v7.45h-2.93Z"/><path class="cls-5" d="M352.9,144.72h6.9v-1.1h-2.64v-9.06h-1a7.35,7.35,0,0,1-2.61.75v.86h2.27v7.45H352.9Z"/><path class="cls-5" d="M363.79,144.91a1.1,1.1,0,0,1,.21-.29,3.65,3.65,0,0,0,1.5-.17,6.85,6.85,0,0,0,3.11-2.58,6.73,6.73,0,0,0,1.53-3.71,2.76,2.76,0,0,0-.37-1.51,12.09,12.09,0,0,0-2.25-2.09l-.27-.19a12,12,0,0,0-2.93.39,3.23,3.23,0,0,0-.56.2l-.29.23a3.62,3.62,0,0,0-.5.59,6.8,6.8,0,0,0-.93,3.83,7,7,0,0,0,.93,3.85,4.19,4.19,0,0,0,.5.6l.29.24c.07.07,0,.14.05.2a1.17,1.17,0,0,1,0,.41Zm.38-1,0,0c-.11-.05-.15-.41-.31-1.11a2.87,2.87,0,0,0-.2-.58,6.21,6.21,0,0,1-.2-.72,10.43,10.43,0,0,1,0-3.64,5.35,5.35,0,0,1,.2-.7,1.26,1.26,0,0,1,.33-.58,4.27,4.27,0,0,1,2.94-1.07l.24.17a6.16,6.16,0,0,1,1.29,1.25,3.58,3.58,0,0,1,.41.69,2.37,2.37,0,0,1,.13.34c0,.1,0,.2,0,.3a6,6,0,0,1-1.34,3,6.2,6.2,0,0,1-2.45,2.18l-.28.1-.17.13-.27.2C364.31,143.86,364.23,143.91,364.17,143.86Zm1.16-3.22c.33.25.84.13,1.19-.44a1.24,1.24,0,0,0-.44-1.64l-.17-.1a1.27,1.27,0,0,0-1.18,1c-.09.59.15,1,.49,1.05A.87.87,0,0,0,365.33,140.64Z"/><path class="cls-5" d="M367.73,147.57l5.55,4.09.65-.88-2.13-1.57,5.38-7.29-.8-.59a7.16,7.16,0,0,1-2.54-.94l-.51.69,1.83,1.35-4.42,6-2.36-1.74Z"/><path class="cls-5" d="M377.91,155.31c1.82,1.34,4.08.61,6.08-2.1s2-5,.17-6.38-4-.69-6,2S376.09,154,377.91,155.31Zm.63-.86c-1.14-.84-1.16-2.5.57-4.84s3.28-2.77,4.42-1.93,1.2,2.45-.53,4.8S379.68,155.29,378.54,154.45Zm1.95-2.64a1.06,1.06,0,1,0-.17-1.44A1,1,0,0,0,380.49,151.81Z"/><path class="cls-5" d="M385.6,161c1.82,1.34,4.08.61,6.08-2.11s2-5,.17-6.38-4-.69-6,2.06S383.78,159.64,385.6,161Zm.63-.86c-1.14-.84-1.16-2.5.56-4.85s3.29-2.76,4.43-1.92,1.2,2.45-.53,4.79S387.37,161,386.23,160.12Zm1.95-2.64a1.06,1.06,0,0,0,1.25-1.71,1.06,1.06,0,0,0-1.25,1.71Z"/><path class="cls-5" d="M390.8,164.57l5.55,4.09.65-.88-2.13-1.57,5.38-7.29-.8-.59a7.41,7.41,0,0,1-2.54-1l-.51.7,1.83,1.35-4.42,6-2.36-1.74Z"/><path class="cls-5" d="M401,172.31c1.82,1.34,4.07.61,6.08-2.11s2-5,.17-6.38-4-.69-6,2.06S399.16,171,401,172.31Zm.63-.86c-1.14-.84-1.17-2.5.56-4.85s3.29-2.76,4.43-1.92,1.2,2.45-.53,4.8S402.75,172.29,401.61,171.45Zm1.94-2.64a1.06,1.06,0,0,0,1.26-1.71,1.07,1.07,0,0,0-1.26,1.71Z"/><path class="cls-5" d="M406.18,175.9l5.55,4.09.65-.88-2.13-1.57,5.38-7.29-.8-.59a7.12,7.12,0,0,1-2.55-.95l-.51.7,1.84,1.35-4.42,6L406.83,175Z"/><path class="cls-5" d="M413.87,181.57l5.55,4.09.65-.88-2.13-1.57,5.38-7.3-.8-.58a7.52,7.52,0,0,1-2.55-1l-.51.69,1.84,1.35-4.42,6-2.36-1.73Z"/><path class="cls-5" d="M424,189.31c1.82,1.34,4.08.61,6.09-2.11s2-5,.17-6.38-4-.69-6.05,2.06S422.22,188,424,189.31Zm.64-.86c-1.14-.84-1.17-2.5.56-4.85s3.28-2.76,4.42-1.92,1.21,2.45-.52,4.79S425.82,189.29,424.68,188.45Zm1.94-2.64a1,1,0,0,0,1.43-.28,1,1,0,1,0-1.59-1.17A1,1,0,0,0,426.62,185.81Z"/><path class="cls-5" d="M429.24,192.9,434.8,197l.65-.88-2.13-1.57,5.37-7.3-.79-.58a7.52,7.52,0,0,1-2.55-.95l-.51.69,1.84,1.36-4.42,6L429.9,192Z"/><path class="cls-5" d="M439.42,200.64c1.82,1.34,4.08.61,6.08-2.11s2-5,.18-6.38-4-.69-6.05,2.06S437.6,199.3,439.42,200.64Zm.64-.86c-1.15-.84-1.17-2.5.56-4.85s3.28-2.76,4.42-1.92,1.21,2.45-.52,4.8S441.2,200.62,440.06,199.78Zm1.94-2.64a1.06,1.06,0,1,0-.16-1.45A1,1,0,0,0,442,197.14Z"/><path class="cls-5" d="M444.62,204.23l5.55,4.09.66-.88-2.13-1.57,5.37-7.29-.79-.59a7.25,7.25,0,0,1-2.55-1l-.51.7,1.83,1.35-4.42,6-2.36-1.74Z"/><path class="cls-5" d="M454.8,212c1.82,1.34,4.08.61,6.08-2.11s2-5,.18-6.38-4-.68-6.05,2.06S453,210.63,454.8,212Zm.63-.86c-1.14-.84-1.16-2.5.57-4.84s3.28-2.77,4.42-1.93,1.2,2.45-.52,4.8S456.58,212,455.43,211.11Zm1.95-2.64a1,1,0,0,0,1.43-.27,1,1,0,1,0-1.43.27Z"/><path class="cls-5" d="M462.49,217.64c1.82,1.34,4.08.61,6.08-2.11s2-5,.17-6.38-4-.69-6,2S460.67,216.3,462.49,217.64Zm.63-.86c-1.14-.84-1.16-2.5.57-4.85s3.28-2.76,4.42-1.92,1.2,2.45-.52,4.79S464.27,217.62,463.12,216.78Zm1.95-2.64a1.06,1.06,0,1,0-.16-1.45A1,1,0,0,0,465.07,214.14Z"/><path class="cls-5" d="M467.69,221.23l5.55,4.09.65-.88-2.12-1.57,5.37-7.3-.79-.58a7.45,7.45,0,0,1-2.55-1l-.51.69,1.83,1.36-4.42,6-2.36-1.73Z"/><path class="cls-5" d="M477.87,229c1.82,1.34,4.08.61,6.08-2.11s2-5,.17-6.38-4-.69-6,2.06S476.05,227.63,477.87,229Zm.63-.86c-1.14-.84-1.16-2.5.57-4.85s3.28-2.76,4.42-1.92,1.2,2.45-.53,4.8S479.64,229,478.5,228.11Zm1.95-2.64a1.06,1.06,0,1,0-.16-1.45A1,1,0,0,0,480.45,225.47Z"/><path class="cls-5" d="M483.07,232.56l5.55,4.09.65-.88-2.13-1.57,5.38-7.29-.79-.59a7.18,7.18,0,0,1-2.55-.95l-.51.7,1.83,1.35-4.42,6-2.36-1.74Z"/><path class="cls-5" d="M490.76,238.23l5.55,4.09.65-.89-2.13-1.56,5.38-7.3-.8-.58a7.41,7.41,0,0,1-2.54-1l-.51.69,1.83,1.35-4.42,6-2.36-1.74Z"/><path class="cls-5" d="M500.94,246c1.82,1.34,4.08.61,6.08-2.11s2-5,.17-6.38-4-.69-6,2.05S499.12,244.62,500.94,246Zm.63-.86c-1.14-.84-1.16-2.5.57-4.85s3.28-2.76,4.42-1.92,1.2,2.45-.53,4.79S502.71,246,501.57,245.11Zm1.95-2.64a1.06,1.06,0,1,0-.16-1.45A1,1,0,0,0,503.52,242.47Z"/><path class="cls-5" d="M506.14,249.56l5.55,4.09.65-.88-2.13-1.57,5.38-7.3-.8-.58a7.41,7.41,0,0,1-2.54-.95l-.51.69,1.83,1.35-4.42,6-2.36-1.73Z"/><path class="cls-5" d="M516.32,257.3c1.82,1.34,4.08.61,6.08-2.11s2-5,.17-6.38-4-.69-6,2.06S514.5,256,516.32,257.3Zm.63-.86c-1.14-.84-1.16-2.5.56-4.85s3.29-2.76,4.43-1.92,1.2,2.45-.53,4.79S518.09,257.28,517,256.44Zm1.95-2.64a1.06,1.06,0,0,0,1.25-1.71,1.06,1.06,0,0,0-1.25,1.71Z"/><path class="cls-5" d="M521.52,260.89l5.55,4.09.65-.88-2.13-1.57,5.38-7.29-.8-.59a7.41,7.41,0,0,1-2.54-1l-.51.7,1.83,1.35-4.42,6L522.17,260Z"/><path class="cls-5" d="M532.63,269.31a11.24,11.24,0,0,0,.94.64,9.65,9.65,0,0,0,2.61-.52c.19-.06.36-.14.53-.21a1.14,1.14,0,0,0,.39-.26,3.44,3.44,0,0,0,.44-.6,7.19,7.19,0,0,0,.82-3.66,7,7,0,0,0-.82-3.65,3.36,3.36,0,0,0-.44-.59c-.11-.09-.09-.17-.1-.25l0-.21a1.45,1.45,0,0,1,0-.5v0l0,.07s0,.06-.08.07a2.49,2.49,0,0,0-.37-.09,3.19,3.19,0,0,0-1.52.13,6.72,6.72,0,0,0-3.09,2.56,6.8,6.8,0,0,0-1.54,3.73,3.15,3.15,0,0,0,.31,1.51,2.79,2.79,0,0,0,.19.33c.13.15.33.34.51.51A12,12,0,0,0,532.63,269.31Zm.44-1a6,6,0,0,1-1.27-1.25,1.66,1.66,0,0,1-.19-.32,1.22,1.22,0,0,1-.06-.26,2.74,2.74,0,0,1,0-.58,6.32,6.32,0,0,1,1.36-3,6.09,6.09,0,0,1,2.43-2.15,3,3,0,0,1,.55-.15l.26,0c.09,0,.1-.05.15-.06s.24-.13.29-.08.06.07.07.14a9,9,0,0,1,.2,1.23c0,.36.1.76.17,1.22a11.17,11.17,0,0,1,.12,1.65,8.19,8.19,0,0,1-.14,1.65,3.16,3.16,0,0,1-.58,1.24,3.86,3.86,0,0,1-2.48,1.26A6.93,6.93,0,0,1,533.07,268.32Zm1.37-3.07a1,1,0,0,0,.61.22,1.32,1.32,0,0,0,.68-.88,1,1,0,0,0-.11-.87.94.94,0,0,0-.3-.45c-.31-.23-.82-.11-1.21.41A1.1,1.1,0,0,0,534.44,265.25Z"/><path class="cls-5" d="M541,269.81h6.89v-1.1h-2.64v-9.06h-1a7.29,7.29,0,0,1-2.61.75v.86H544v7.45H541Z"/><path class="cls-5" d="M550.58,269.81h6.9v-1.1h-2.65v-9.06h-1a7.29,7.29,0,0,1-2.61.75v.86h2.28v7.45h-2.93Z"/><path class="cls-5" d="M560.13,269.81H567v-1.1h-2.65v-9.06h-1a7.41,7.41,0,0,1-2.62.75v.86h2.28v7.45h-2.93Z"/><path class="cls-5" d="M572.92,270c2.26,0,3.64-1.93,3.64-5.3s-1.38-5.24-3.64-5.24-3.65,1.83-3.65,5.24S570.65,270,572.92,270Zm0-1.07c-1.42,0-2.42-1.32-2.42-4.23s1-4.17,2.42-4.17,2.42,1.25,2.42,4.17S574.33,268.93,572.92,268.93Zm0-3.28a1.06,1.06,0,1,0-1-1.06A1,1,0,0,0,572.92,265.65Z"/><path class="cls-5" d="M579.23,269.81h6.9v-1.1h-2.64v-9.06h-1a7.35,7.35,0,0,1-2.61.75v.86h2.27v7.45h-2.93Z"/><path class="cls-5" d="M592,270c2.26,0,3.64-1.93,3.64-5.3s-1.38-5.24-3.64-5.24-3.65,1.83-3.65,5.24S589.76,270,592,270Zm0-1.07c-1.42,0-2.42-1.32-2.42-4.23s1-4.17,2.42-4.17,2.42,1.25,2.42,4.17S593.44,268.93,592,268.93Zm0-3.28a1.06,1.06,0,1,0-1-1.06A1,1,0,0,0,592,265.65Z"/><path class="cls-5" d="M598.34,269.81h6.89v-1.1h-2.64v-9.06h-1a7.35,7.35,0,0,1-2.61.75v.86h2.28v7.45h-2.93Z"/><path class="cls-5" d="M611.12,270c2.26,0,3.65-1.93,3.65-5.3s-1.39-5.24-3.65-5.24-3.65,1.83-3.65,5.24S608.86,270,611.12,270Zm0-1.07c-1.42,0-2.42-1.32-2.42-4.23s1-4.17,2.42-4.17,2.42,1.25,2.42,4.17S612.54,268.93,611.12,268.93Zm0-3.28a1.06,1.06,0,1,0-1-1.06A1,1,0,0,0,611.12,265.65Z"/><path class="cls-5" d="M620.67,270c2.26,0,3.65-1.93,3.65-5.3s-1.39-5.24-3.65-5.24S617,261.29,617,264.7,618.41,270,620.67,270Zm0-1.07c-1.41,0-2.42-1.32-2.42-4.23s1-4.17,2.42-4.17,2.42,1.25,2.42,4.17S622.09,268.93,620.67,268.93Zm0-3.28a1.06,1.06,0,1,0-1-1.06A1,1,0,0,0,620.67,265.65Z"/><path class="cls-5" d="M630.22,270c2.26,0,3.65-1.93,3.65-5.3s-1.39-5.24-3.65-5.24-3.64,1.83-3.64,5.24S628,270,630.22,270Zm0-1.07c-1.41,0-2.42-1.32-2.42-4.23s1-4.17,2.42-4.17,2.42,1.25,2.42,4.17S631.64,268.93,630.22,268.93Zm0-3.28a1.06,1.06,0,1,0-1-1.06A1,1,0,0,0,630.22,265.65Z"/><path class="cls-5" d="M636.54,269.81h6.9v-1.1h-2.65v-9.06h-1a7.42,7.42,0,0,1-2.61.75v.86h2.27v7.45h-2.93Z"/><path class="cls-5" d="M646.09,269.81H653v-1.1h-2.64v-9.06h-1a7.35,7.35,0,0,1-2.61.75v.86H649v7.45h-2.93Z"/><path class="cls-5" d="M658.88,270c2.26,0,3.64-1.93,3.64-5.3s-1.38-5.24-3.64-5.24-3.65,1.83-3.65,5.24S656.62,270,658.88,270Zm0-1.07c-1.42,0-2.42-1.32-2.42-4.23s1-4.17,2.42-4.17,2.42,1.25,2.42,4.17S660.3,268.93,658.88,268.93Zm0-3.28a1.06,1.06,0,1,0-1-1.06A1,1,0,0,0,658.88,265.65Z"/><path class="cls-5" d="M665.88,262.77c0-.28,0-.56-.08-.83s-.08-.67-.13-1a6.89,6.89,0,0,0-.89,3.76,6.63,6.63,0,0,0,1.06,4c.1-1.06.16-2.13.16-3.21v0C666,264.57,666,263.66,665.88,262.77Z"/><path class="cls-3" d="M126,170.85c-1.49.1-3,.15-4.49.15a67.37,67.37,0,0,1-53.45-26.28c-.29-.36-.56-.73-.84-1.1A67.33,67.33,0,0,1,59,128.91c-.15-.35-.29-.7-.42-1.06A67.74,67.74,0,0,1,57.5,82c.12-.36.24-.71.37-1.06.44-1.27.93-2.51,1.45-3.74.4-1,.83-1.9,1.28-2.84A67.49,67.49,0,0,1,121.5,36c1.51,0,3,0,4.49.15A67.5,67.5,0,0,0,69.6,74.36c-.45.94-.88,1.88-1.28,2.84-.52,1.23-1,2.47-1.45,3.74-.13.35-.25.7-.37,1.06a67.74,67.74,0,0,0,1,45.85c.13.36.27.71.42,1.06a67.33,67.33,0,0,0,8.26,14.71c.28.37.55.74.84,1.1A67.35,67.35,0,0,0,126,170.85Z"/></g></g></svg>