<?xml version="1.0" encoding="utf-8"?>
<svg width="428" height="67" viewBox="0 0 428 67" fill="none" xmlns="http://www.w3.org/2000/svg">
<path d="M353.701 22.2002C352.201 23.5002 350.8 25.0002 349.5 26.5002C355.8 32.9002 360.4 42.6002 362 53.9002H368.1C366.9 44.0002 363.501 34.8002 358.201 27.5002C356.701 25.5002 355.301 23.8002 353.701 22.2002Z" fill="#46BEAA"/>
<path d="M346.3 30.8008C345.1 32.6008 344.1 34.5008 343.2 36.4008C346.8 40.9008 349.5 47.0008 350.7 53.9008H356.8C355.6 46.5008 353 39.7008 349 34.1008C348.1 32.9008 347.2 31.8008 346.3 30.8008Z" fill="#46BEAA"/>
<path d="M339.3 53.9004H345.4C344.5 49.7004 343 45.8004 340.8 42.4004C339.9 46.0004 339.3 49.9004 339.3 53.9004Z" fill="#46BEAA"/>
<path d="M406.1 19.7004C405.3 19.1004 404.5 18.6004 403.6 18.1004C403.2 18.5004 402.8 18.9004 402.5 19.3004C397.6 24.7004 392.1 33.1004 389.1 44.8004C388.2 40.1004 386.9 35.5004 385.3 31.2004C388.5 24.1004 392.4 18.6004 396.1 14.5004C395.1 14.1004 394.1 13.8004 393.1 13.5004C390 17.1004 386.7 21.8004 383.8 27.5004C381.8 22.7004 379.3 18.3004 376.4 14.3004C375.9 13.6004 375.4 13.0004 375 12.4004C372.8 12.7004 370.6 13.3004 368.5 14.0004C373.6 19.8004 377.7 27.3004 380.5 35.7004C379.5 38.7004 378.6 41.9004 377.9 45.3004C375.9 36.2004 372.3 27.9004 367.4 21.0004C366.1 19.2004 364.8 17.6004 363.4 16.1004C361.5 17.0004 359.7 18.0004 358 19.2004C366 27.3004 371.601 39.7004 373.201 54.1004H379.5C380 49.2004 380.8 44.8004 382 40.7004C383.1 45.0004 383.9 49.4004 384.4 54.1004H390.5C392.3 38.4004 399.001 27.8004 404.701 21.4004C405.101 20.7004 405.6 20.2004 406.1 19.7004Z" fill="#46BEAA"/>
<path d="M414 27.2C413.4 26.4 412.7 25.7 412.1 25C405.6 31.6 400.2 41.3 398.5 53.9H401.4C403.1 41.6 408.5 33.3 413.1 28.2C413.4 27.8 413.7 27.5 414 27.2Z" fill="#46BEAA"/>
<path d="M409.5 53.9H412.4C413.8 46.3 416.9 40.7 420 36.9C419.6 35.9 419.1 35 418.6 34C414.4 38.9 410.9 45.6 409.5 53.9Z" fill="#46BEAA"/>
<path d="M423 47.1006C422 49.2006 421.2 51.4006 420.6 53.9006H423.6C423.6 51.6006 423.4 49.3006 423 47.1006Z" fill="#46BEAA"/>
<path d="M157.3 13.4004H148.2V53.9004H173.2V45.9004H157.3V13.4004Z" fill="#46BEAA"/>
<path d="M223.4 13.4004H220.1V53.9004H241.9V50.9004H223.4V13.4004Z" fill="#46BEAA"/>
<path d="M249 13.4004H245.7V53.9004H249V13.4004Z" fill="#46BEAA"/>
<path d="M302.1 50.9004V34.6004H320V31.7004H302.1V16.4004H321.4V13.4004H298.8V53.9004H322V50.9004H302.1Z" fill="#46BEAA"/>
<path d="M287.9 50.9004H287.2L263.7 13.4004H257.8V53.9004H261.1V16.4004H261.9L285.4 53.9004H291.1V13.4004H287.9V50.9004Z" fill="#46BEAA"/>
<path d="M44.8002 45.9004H44.1002L37.5002 14.5004H28.0002L22.0002 45.9004H21.2002L13.0002 13.4004H3.7002L13.7002 53.9004H27.7002L32.7002 29.2004L38.1002 53.9004H52.3002L61.2002 13.4004H51.8002L44.8002 45.9004Z" fill="#46BEAA"/>
<path d="M208.4 19.1006C204.1 14.9006 198.4 13.1006 191.9 13.1006H176.9V54.1006H191.9C195.6 54.1006 198.8 53.5006 201.5 52.4006C206.7 50.3006 210.6 46.4006 212.5 41.4006C213.6 38.7006 213.9 35.8006 213.9 32.9006C213.9 27.7006 212.1 22.7006 208.4 19.1006ZM203.6 39.0006C202.5 42.0006 200.3 44.1006 197.3 45.3006C195.8 45.9006 194.1 46.2006 192.1 46.2006H186V21.0006H192.1C194 21.0006 195.7 21.3006 197.3 21.8006C200.3 22.8006 202.4 24.9006 203.6 27.9006C204.7 31.1006 204.7 35.8006 203.6 39.0006Z" fill="#46BEAA"/>
<path d="M92.3002 14.0002C87.1002 11.6002 78.7002 11.6002 73.5002 14.0002C68.4002 16.3002 64.5002 20.4002 62.6002 25.5002C61.5002 28.4002 61.2002 31.2002 61.2002 34.2002C61.3002 41.9002 65.9002 49.8002 73.3002 53.1002C78.5002 55.7002 87.2002 55.7002 92.4002 53.1002C99.7002 49.8002 104.4 41.9002 104.5 34.2002C104.7 28.7002 102.9 23.0002 99.0002 18.8002C97.3002 16.8002 95.0002 15.2002 92.3002 14.0002ZM83.0002 46.7002C75.3002 46.7002 70.9002 40.6002 70.9002 33.6002C70.9002 26.3002 75.1002 20.5002 83.0002 20.5002C89.8002 20.5002 95.1002 25.2002 95.1002 33.6002C95.1002 40.7002 90.6002 46.7002 83.0002 46.7002Z" fill="#46BEAA"/>
<path d="M139.6 35.0006C141.1 32.9006 141.7 29.8006 141.6 26.7006C141.6 23.7006 140.9 21.2006 139.6 19.2006C136.5 14.6006 131 13.2006 125.1 13.1006H109.2V53.9006H118.3V41.4006C118.5 41.4006 125 41.4006 125.2 41.4006L133.8 53.9006H144.3L134 39.4006C136.4 38.4006 138.3 37.0006 139.6 35.0006ZM131.3 30.7006C130.1 32.8006 128.1 33.8006 125.6 33.8006H118.3V21.0006H125.6C126.9 21.0006 128.1 21.0006 129 21.6006C130 22.1006 130.7 22.9006 131.3 23.9006C132.4 25.7006 132.5 28.8006 131.3 30.7006Z" fill="#46BEAA"/>
</svg>
