<svg width="300" height="300" viewBox="0 0 300 300" fill="none" xmlns="http://www.w3.org/2000/svg">
<path d="M208.477 270.275C249.949 270.275 283.569 236.655 283.569 195.183C283.569 153.71 249.949 120.09 208.477 120.09C167.004 120.09 133.384 153.71 133.384 195.183C133.384 236.655 167.004 270.275 208.477 270.275Z" fill="#F0F0F0"/>
<path d="M208.477 270.983C166.68 270.983 132.676 236.979 132.676 195.183C132.676 153.386 166.68 119.382 208.477 119.382C250.273 119.382 284.277 153.386 284.277 195.183C284.277 236.979 250.273 270.983 208.477 270.983ZM208.477 120.799C167.461 120.799 134.093 154.167 134.093 195.183C134.093 236.197 167.461 269.565 208.477 269.565C249.492 269.565 282.86 236.197 282.86 195.183C282.86 154.167 249.492 120.799 208.477 120.799Z" fill="black"/>
<path d="M176.234 182.963C178.584 182.963 180.346 183.537 180.346 185.912C180.346 188.299 178.584 188.886 176.234 188.886H174.885V192.022H172.748V182.963H176.234ZM174.885 184.762V187.086H176.297C177.297 187.086 178.084 186.861 178.084 185.912C178.084 184.975 177.297 184.762 176.297 184.762H174.885Z" fill="#D5091E"/>
<path d="M187.697 189.91C187.098 191.498 185.686 192.186 184.349 192.186C182.161 192.186 180.662 190.86 180.662 188.623C180.662 186.474 182.299 185.1 184.261 185.1C186.498 185.1 187.86 186.786 187.723 189.186H182.736C182.799 190.148 183.536 190.586 184.286 190.586C185.073 190.586 185.561 190.311 185.798 189.91H187.697ZM182.761 187.936H185.673C185.636 187.086 185.048 186.674 184.261 186.674C183.523 186.674 182.874 187.049 182.761 187.936Z" fill="#D5091E"/>
<path d="M190.875 186.187C191.176 185.687 191.9 185.148 192.963 185.148C194.688 185.148 195.225 186.162 195.225 187.986V192.022H193.162V188.498C193.162 187.536 193.125 186.748 192.125 186.748C191.238 186.748 190.875 187.324 190.875 188.573V192.022H188.813V185.299H190.875V186.187Z" fill="#D5091E"/>
<path d="M203.213 189.91C202.613 191.498 201.201 192.186 199.864 192.186C197.677 192.186 196.178 190.86 196.178 188.623C196.178 186.474 197.814 185.1 199.776 185.1C202.014 185.1 203.376 186.786 203.238 189.186H198.252C198.314 190.148 199.052 190.586 199.802 190.586C200.589 190.586 201.076 190.311 201.313 189.91H203.213ZM198.276 187.936H201.188C201.151 187.086 200.563 186.674 199.776 186.674C199.039 186.674 198.39 187.049 198.276 187.936Z" fill="#D5091E"/>
<path d="M204.654 183.462H206.716V185.299H208.19V186.762H206.716V189.773C206.716 190.41 206.916 190.535 207.604 190.535H208.19V192.022H206.879C205.217 192.022 204.654 191.697 204.654 190.135V186.762H203.592V185.299H204.654V183.462Z" fill="#D5091E"/>
<path d="M213.417 187.273C213.18 187.236 213.042 187.236 212.854 187.236C211.854 187.236 211.342 187.599 211.342 188.648V192.022H209.28V185.299H211.268V186.574C211.58 185.773 212.143 185.287 213.104 185.249H213.254C213.316 185.249 213.367 185.249 213.417 185.262V187.273Z" fill="#D5091E"/>
<path d="M218.342 187.561C218.342 186.762 217.954 186.486 217.205 186.486C216.542 186.486 216.093 186.824 216.005 187.474H214.08C214.181 186.211 215.38 185.086 217.38 185.086C219.316 185.086 220.416 185.874 220.379 187.911L220.354 189.373V190.072C220.354 190.811 220.404 191.609 220.504 192.022H218.479L218.454 191.21C217.954 191.922 217.154 192.186 216.192 192.186C214.918 192.186 213.868 191.436 213.868 190.211C213.868 188.561 215.73 188.023 218.342 187.823V187.561ZM218.392 189.035C216.955 189.174 215.992 189.323 215.992 190.061C215.992 190.498 216.405 190.785 216.942 190.785C217.768 190.785 218.392 190.436 218.392 189.198V189.035Z" fill="#D5091E"/>
<path d="M222.02 183.462H224.081V185.299H225.556V186.762H224.081V189.773C224.081 190.41 224.281 190.535 224.969 190.535H225.556V192.022H224.244C222.582 192.022 222.02 191.697 222.02 190.135V186.762H220.957V185.299H222.02V183.462Z" fill="#D5091E"/>
<path d="M228.707 182.963V184.611H226.646V182.963H228.707ZM228.72 185.299V192.022H226.646V185.299H228.72Z" fill="#D5091E"/>
<path d="M236.92 188.636C236.92 191.072 235.22 192.186 233.358 192.186C231.496 192.186 229.797 191.072 229.797 188.636C229.797 186.199 231.496 185.1 233.358 185.1C235.22 185.1 236.92 186.199 236.92 188.636ZM231.896 188.636C231.896 190.048 232.521 190.586 233.358 190.586C234.195 190.586 234.82 190.048 234.82 188.636C234.82 187.199 234.17 186.699 233.358 186.699C232.546 186.699 231.896 187.199 231.896 188.636Z" fill="#D5091E"/>
<path d="M240.061 186.187C240.36 185.687 241.085 185.148 242.147 185.148C243.872 185.148 244.409 186.162 244.409 187.986V192.022H242.347V188.498C242.347 187.536 242.31 186.748 241.31 186.748C240.423 186.748 240.061 187.324 240.061 188.573V192.022H237.998V185.299H240.061V186.187Z" fill="#D5091E"/>
<path d="M189.969 198.902H187.069V197.027H195.03V198.902H192.118V206.088H189.969V198.902Z" fill="#D5091E"/>
<path d="M201.281 203.977C200.682 205.562 199.27 206.25 197.933 206.25C195.745 206.25 194.246 204.926 194.246 202.688C194.246 200.539 195.883 199.164 197.845 199.164C200.082 199.164 201.444 200.852 201.307 203.251H196.32C196.383 204.213 197.12 204.65 197.87 204.65C198.657 204.65 199.145 204.376 199.382 203.977H201.281ZM196.345 202.002H199.257C199.22 201.151 198.632 200.739 197.845 200.739C197.107 200.739 196.458 201.114 196.345 202.002Z" fill="#D5091E"/>
<path d="M206.534 201.339C206.396 200.84 205.872 200.689 205.222 200.689C204.51 200.689 204.147 200.852 204.147 201.189C204.147 201.502 204.385 201.676 204.972 201.789L206.222 202.014C207.834 202.314 208.608 202.789 208.608 203.977C208.608 205.488 207.222 206.25 205.359 206.25C203.572 206.25 202.298 205.488 202.061 203.9H203.972C204.159 204.551 204.672 204.75 205.384 204.75C206.121 204.75 206.634 204.551 206.634 204.15C206.634 203.852 206.371 203.664 205.584 203.525L204.385 203.326C203.085 203.113 202.197 202.464 202.197 201.264C202.197 199.927 203.609 199.189 205.271 199.189C206.809 199.189 208.196 199.802 208.459 201.339H206.534Z" fill="#D5091E"/>
<path d="M210.062 197.527H212.123V199.365H213.598V200.826H212.123V203.838C212.123 204.476 212.323 204.601 213.011 204.601H213.598V206.088H212.286C210.624 206.088 210.062 205.764 210.062 204.201V200.826H208.999V199.365H210.062V197.527Z" fill="#D5091E"/>
<path d="M221.322 203.977C220.723 205.562 219.311 206.25 217.974 206.25C215.786 206.25 214.287 204.926 214.287 202.688C214.287 200.539 215.924 199.164 217.886 199.164C220.123 199.164 221.485 200.852 221.348 203.251H216.361C216.424 204.213 217.161 204.65 217.911 204.65C218.698 204.65 219.186 204.376 219.423 203.977H221.322ZM216.386 202.002H219.298C219.261 201.151 218.673 200.739 217.886 200.739C217.148 200.739 216.499 201.114 216.386 202.002Z" fill="#D5091E"/>
<path d="M229.199 197.027V206.088H227.137V205.188C226.7 205.926 225.8 206.25 225.075 206.25C223.338 206.25 222.113 204.926 222.113 202.727C222.113 200.527 223.338 199.215 225.075 199.215C225.8 199.215 226.7 199.539 227.137 200.277V197.027H229.199ZM224.25 202.727C224.25 203.977 224.938 204.65 225.75 204.65C226.562 204.65 227.237 204.113 227.237 202.727C227.237 201.339 226.562 200.814 225.75 200.814C224.938 200.814 224.25 201.477 224.25 202.727Z" fill="#D5091E"/>
<path d="M191.239 137.468C191.568 139.481 190.477 141.015 188.64 141.706C186.206 142.622 184.098 141.318 183.129 138.745C182.142 136.123 183.038 133.782 185.425 132.883C187.18 132.223 188.976 132.736 190.034 134.408L188.875 134.845C188.229 133.872 187.091 133.405 185.745 133.912C184.247 134.476 183.518 136.086 184.346 138.286C185.156 140.439 186.75 141.269 188.33 140.674C189.699 140.158 190.221 139.094 190.08 137.904L191.239 137.468Z" fill="#020203"/>
<path d="M193.456 136.864C193.809 138.272 194.986 138.727 195.95 138.512C196.927 138.294 197.367 137.735 197.503 137.025L198.651 136.77C198.607 137.959 197.768 139.132 196.168 139.489C194.093 139.951 192.612 138.718 192.181 136.776C191.716 134.688 192.813 133.06 194.608 132.66C196.622 132.211 198.18 133.62 198.511 135.738L193.456 136.864ZM193.256 135.909L197.125 135.046C196.883 134.126 196.005 133.348 194.819 133.612C193.843 133.83 193.06 134.568 193.256 135.909Z" fill="#020203"/>
<path d="M202.933 132.667C202.691 132.657 202.479 132.67 202.293 132.693C201.25 132.818 200.797 133.438 200.977 134.927L201.397 138.425L200.268 138.562L199.465 131.888L200.569 131.755L200.71 132.921C200.954 132.124 201.574 131.634 202.45 131.491C202.562 131.477 202.648 131.467 202.787 131.463L202.933 132.667Z" fill="#020203"/>
<path d="M204.451 129.692L205.587 129.638L205.667 131.324L206.942 131.264L206.984 132.175L205.711 132.236L205.9 136.222C205.935 136.921 205.993 137.094 206.643 137.062L207.218 137.035L207.263 137.985L206.438 138.024C205.151 138.085 204.838 137.812 204.771 136.413L204.574 132.291L203.512 132.341L203.469 131.429L204.531 131.378L204.451 129.692Z" fill="#020203"/>
<path d="M209.791 131.279L209.708 138.005L208.57 137.991L208.654 131.265L209.791 131.279ZM209.82 128.941L209.804 130.316L208.666 130.302L208.683 128.927L209.82 128.941Z" fill="#020203"/>
<path d="M212.167 130.886C212.265 129.489 212.57 129.06 214.104 129.167L214.689 129.208L214.623 130.156L214.062 130.117C213.464 130.075 213.355 130.205 213.307 130.903L213.268 131.452L214.527 131.54L214.463 132.45L213.204 132.362L212.799 138.16L211.664 138.081L212.069 132.282L211.134 132.217L211.198 131.308L212.133 131.373L212.167 130.886Z" fill="#020203"/>
<path d="M217.152 131.858L216.299 138.532L215.17 138.388L216.024 131.714L217.152 131.858ZM217.45 129.539L217.275 130.903L216.146 130.759L216.321 129.394L217.45 129.539Z" fill="#020203"/>
<path d="M219.278 135.952C219.01 137.376 219.89 138.281 220.855 138.489C221.832 138.699 222.464 138.375 222.885 137.787L224.033 138.035C223.499 139.096 222.245 139.811 220.645 139.467C218.567 139.02 217.739 137.282 218.156 135.34C218.606 133.25 220.282 132.229 222.079 132.616C224.095 133.049 224.92 134.979 224.337 137.039L219.278 135.952ZM219.495 135.001L223.368 135.834C223.532 134.896 223.059 133.824 221.874 133.569C220.896 133.358 219.877 133.702 219.495 135.001Z" fill="#020203"/>
<path d="M232.137 133.266L233.21 133.644L230.2 142.192L229.127 141.815L229.464 140.86C228.837 141.395 228.023 141.599 226.999 141.237C225.535 140.723 224.705 139.091 225.447 136.981C226.178 134.905 227.861 134.12 229.323 134.634C230.348 134.996 230.854 135.664 231.008 136.473L232.137 133.266ZM229.27 135.649C228.173 135.263 227.16 135.847 226.615 137.392C226.071 138.937 226.496 140.027 227.592 140.413C228.548 140.75 229.693 140.357 230.282 138.683C230.872 137.009 230.225 135.985 229.27 135.649Z" fill="#020203"/>
<path d="M175.822 244.338L174.68 246.131C175.137 245.894 175.661 245.885 176.234 246.25C177.053 246.77 177.314 247.9 176.576 249.061C175.823 250.24 174.701 250.461 173.885 249.941C173.311 249.575 173.097 249.097 173.118 248.582L172.778 249.116L172.179 248.734L175.223 243.955L175.822 244.338ZM174.06 249.33C174.673 249.721 175.373 249.508 175.923 248.645C176.473 247.781 176.369 247.059 175.756 246.668C175.222 246.326 174.469 246.403 173.873 247.34C173.277 248.275 173.525 248.99 174.06 249.33Z" fill="black"/>
<path d="M181.017 249.072L177.6 252.202C176.891 252.848 176.576 252.996 175.747 252.543L175.425 252.367L175.709 251.847L175.964 251.985C176.375 252.209 176.589 252.291 177.067 251.805L177.137 251.744L177.82 247.328L178.514 247.706L177.898 251.065L180.365 248.717L181.017 249.072Z" fill="black"/>
<path d="M186.687 254.187C185.978 255.246 184.824 255.479 183.691 255.009C182.189 254.386 181.786 252.891 182.444 251.303C183.115 249.686 184.523 249.002 185.996 249.611C187.078 250.061 187.678 251.062 187.445 252.277L186.73 251.98C186.852 251.261 186.532 250.562 185.702 250.218C184.778 249.834 183.757 250.258 183.195 251.613C182.645 252.942 183.017 254.002 183.991 254.405C184.836 254.755 185.528 254.492 185.973 253.89L186.687 254.187Z" fill="black"/>
<path d="M191.349 255.395C190.886 256.845 189.695 257.162 188.765 256.865C187.835 256.569 187.047 255.621 187.51 254.17C187.972 252.721 189.162 252.402 190.093 252.699C191.022 252.996 191.811 253.943 191.349 255.395ZM188.955 256.27C189.572 256.467 190.3 256.191 190.627 255.164C190.969 254.094 190.521 253.49 189.903 253.295C189.285 253.098 188.579 253.308 188.23 254.4C187.889 255.472 188.337 256.074 188.955 256.27Z" fill="black"/>
<path d="M192.554 257.887L191.859 257.735L192.754 253.631L193.447 253.781L193.313 254.399C193.634 254.061 194.081 253.847 194.699 253.982C195.333 254.121 195.641 254.467 195.724 254.965C196.164 254.525 196.684 254.414 197.264 254.541C198.217 254.748 198.451 255.471 198.247 256.41L197.682 259.004L196.987 258.853L197.508 256.464C197.646 255.83 197.644 255.256 196.888 255.09C196.285 254.959 195.797 255.324 195.604 256.217L195.117 258.445L194.424 258.294L194.943 255.905C195.081 255.271 195.079 254.697 194.323 254.531C193.721 254.4 193.233 254.766 193.039 255.659L192.554 257.887Z" fill="black"/>
<path d="M200.281 255.093L200.203 255.751C200.511 255.34 200.979 255.105 201.653 255.186C202.614 255.299 203.341 256.205 203.178 257.568C203.013 258.955 202.098 259.641 201.137 259.526C200.462 259.445 200.062 259.107 199.858 258.635L199.622 260.619L198.917 260.535L199.575 255.009L200.281 255.093ZM201.03 258.9C201.751 258.986 202.289 258.492 202.41 257.477C202.531 256.461 202.124 255.854 201.403 255.768C200.775 255.693 200.131 256.088 200 257.189C199.868 258.289 200.402 258.826 201.03 258.9Z" fill="black"/>
<path d="M203.841 258.593C203.885 257.602 205.022 257.354 206.748 257.244L206.753 257.143C206.787 256.369 206.376 256.102 205.845 256.077C205.252 256.051 204.902 256.348 204.848 256.87L204.113 256.838C204.217 255.936 205.052 255.464 205.863 255.5C207.042 255.552 207.518 256.112 207.457 257.307L207.406 258.273C207.366 258.984 207.377 259.462 207.445 259.863L206.727 259.832C206.711 259.675 206.694 259.501 206.697 259.252C206.421 259.678 205.98 259.9 205.232 259.867C204.443 259.833 203.807 259.365 203.841 258.593ZM206.777 257.809C205.484 257.875 204.655 258.034 204.63 258.612C204.612 259.011 204.905 259.289 205.412 259.311C206.076 259.342 206.723 259.065 206.766 258.074L206.777 257.809Z" fill="black"/>
<path d="M210.988 256.829C210.858 256.333 210.479 256.147 209.979 256.16C209.564 256.17 209.101 256.339 209.109 256.713C209.119 257.049 209.356 257.19 209.765 257.268L210.361 257.368C211.131 257.49 211.81 257.777 211.83 258.581C211.852 259.416 211.113 259.904 210.153 259.929C209.061 259.957 208.417 259.246 208.312 258.516L209.062 258.496C209.192 259.032 209.529 259.344 210.153 259.327C210.692 259.312 211.124 259.076 211.113 258.678C211.103 258.24 210.7 258.095 210.244 258.005L209.617 257.896C209.043 257.785 208.412 257.552 208.393 256.764C208.373 256.021 209.111 255.572 210.041 255.549C210.97 255.524 211.576 256.009 211.73 256.811L210.988 256.829Z" fill="black"/>
<path d="M215.116 256.531C214.954 256.043 214.563 255.884 214.064 255.93C213.652 255.967 213.2 256.166 213.234 256.538C213.265 256.873 213.512 257 213.924 257.049L214.526 257.11C215.302 257.182 215.998 257.423 216.071 258.225C216.147 259.056 215.443 259.592 214.486 259.68C213.397 259.778 212.709 259.112 212.557 258.389L213.304 258.32C213.469 258.847 213.825 259.136 214.447 259.079C214.984 259.029 215.398 258.764 215.363 258.367C215.322 257.932 214.912 257.812 214.451 257.753L213.817 257.686C213.238 257.613 212.594 257.421 212.521 256.635C212.454 255.896 213.161 255.4 214.088 255.316C215.013 255.231 215.649 255.675 215.855 256.463L215.116 256.531Z" fill="black"/>
<path d="M220.023 252.95C221.026 252.748 221.997 253.023 222.433 254.043L221.676 254.195C221.364 253.597 220.676 253.504 220.125 253.615C219.696 253.7 218.984 254.043 219.109 254.664C219.208 255.153 219.641 255.32 220.184 255.332L220.855 255.347C221.742 255.359 222.825 255.478 223.05 256.594C223.267 257.674 222.373 258.459 221.271 258.68C219.962 258.943 218.99 258.39 218.623 257.316L219.389 257.162C219.688 257.899 220.289 258.193 221.153 258.02C221.98 257.853 222.37 257.377 222.26 256.825C222.142 256.235 221.598 256.106 220.868 256.086L220.15 256.078C219.352 256.063 218.508 255.787 218.322 254.869C218.108 253.805 219.128 253.131 220.023 252.95Z" fill="black"/>
<path d="M224.516 255.916C224.787 256.781 225.538 257.023 226.132 256.853C226.733 256.682 226.986 256.316 227.046 255.868L227.753 255.667C227.77 256.41 227.288 257.173 226.304 257.453C225.025 257.818 224.058 257.104 223.717 255.909C223.35 254.623 223.975 253.566 225.08 253.252C226.319 252.897 227.342 253.719 227.627 255.027L224.516 255.916ZM224.355 255.328L226.738 254.647C226.553 254.084 225.976 253.63 225.246 253.838C224.646 254.009 224.184 254.5 224.355 255.328Z" fill="black"/>
<path d="M231.539 252.621L230.863 252.869C230.596 252.435 230.071 252.252 229.55 252.443C228.963 252.66 228.582 253.324 228.946 254.316C229.312 255.313 230.041 255.595 230.629 255.38C231.193 255.173 231.442 254.648 231.387 254.201L232.076 253.949C232.209 254.741 231.747 255.636 230.822 255.975C229.685 256.393 228.664 255.793 228.223 254.59C227.791 253.414 228.204 252.271 229.378 251.841C230.34 251.488 231.195 251.981 231.539 252.621Z" fill="black"/>
<path d="M235.655 253.196C235.598 253.659 235.375 254.094 234.74 254.382C233.857 254.781 233.244 254.338 232.849 253.461L231.739 251.011L232.388 250.717L233.409 252.976C233.677 253.566 234.002 254.038 234.714 253.715C235.334 253.435 235.5 252.854 235.123 252.02L234.169 249.911L234.817 249.618L236.551 253.45L235.902 253.744L235.655 253.196Z" fill="black"/>
<path d="M237.98 248.805C237.838 248.854 237.717 248.908 237.613 248.963C237.032 249.269 236.905 249.732 237.342 250.562L238.366 252.516L237.736 252.847L235.781 249.123L236.396 248.799L236.738 249.449C236.703 248.929 236.958 248.504 237.438 248.226C237.501 248.192 237.549 248.167 237.629 248.135L237.98 248.805Z" fill="black"/>
<path d="M238.193 246.148L238.611 246.899L237.99 247.244L237.572 246.494L238.193 246.148ZM238.903 247.425L240.944 251.1L240.322 251.446L238.282 247.771L238.903 247.425Z" fill="black"/>
<path d="M239.377 245.908L239.982 245.533L240.538 246.43L241.216 246.01L241.517 246.494L240.84 246.914L242.155 249.032C242.386 249.404 242.471 249.481 242.815 249.267L243.121 249.076L243.435 249.581L242.996 249.854C242.312 250.278 242.058 250.225 241.596 249.48L240.235 247.289L239.671 247.641L239.37 247.156L239.934 246.805L239.377 245.908Z" fill="black"/>
<path d="M244.41 243.84L245.667 248.297C245.926 249.219 245.918 249.566 245.141 250.104L244.839 250.312L244.502 249.824L244.739 249.659C245.125 249.393 245.293 249.238 245.074 248.592L245.052 248.504L241.417 245.91L242.066 245.461L244.788 247.52L243.8 244.262L244.41 243.84Z" fill="black"/>
<path d="M208.477 246.371C180.251 246.371 157.288 223.408 157.288 195.183C157.288 166.957 180.251 143.994 208.477 143.994C236.702 143.994 259.665 166.957 259.665 195.183C259.665 223.408 236.702 246.371 208.477 246.371ZM208.477 145.411C181.033 145.411 158.705 167.738 158.705 195.183C158.705 222.626 181.033 244.953 208.477 244.953C235.92 244.953 258.248 222.626 258.248 195.183C258.248 167.738 235.92 145.411 208.477 145.411Z" fill="#D5091E"/>
<path d="M208.477 240.396C183.546 240.396 163.264 220.113 163.264 195.183C163.264 170.252 183.546 149.97 208.477 149.97C233.407 149.97 253.689 170.252 253.689 195.183C253.689 220.113 233.407 240.396 208.477 240.396ZM208.477 151.387C184.328 151.387 164.681 171.033 164.681 195.183C164.681 219.332 184.328 238.979 208.477 238.979C232.625 238.979 252.272 219.332 252.272 195.183C252.272 171.033 232.625 151.387 208.477 151.387Z" fill="#D5091E"/>
<path d="M92.4984 270.333C133.971 270.333 167.591 236.713 167.591 195.241C167.591 153.769 133.971 120.149 92.4984 120.149C51.0261 120.149 17.4062 153.769 17.4062 195.241C17.4062 236.713 51.0261 270.333 92.4984 270.333Z" fill="#F0F0F0"/>
<path d="M92.4985 271.042C50.7017 271.042 16.6978 237.038 16.6978 195.241C16.6978 153.444 50.7017 119.44 92.4985 119.44C134.295 119.44 168.299 153.444 168.299 195.241C168.299 237.038 134.295 271.042 92.4985 271.042ZM92.4985 120.857C51.4834 120.857 18.1147 154.226 18.1147 195.241C18.1147 236.256 51.4834 269.624 92.4985 269.624C133.514 269.624 166.882 236.256 166.882 195.241C166.882 154.226 133.514 120.857 92.4985 120.857Z" fill="#232021"/>
<path d="M92.4502 239.131H91.7417L91.6992 237.713H92.4502C94.208 237.713 95.9839 237.603 97.729 237.384L98.4321 237.296L98.6084 238.702L97.9048 238.79C96.1021 239.016 94.2666 239.131 92.4502 239.131ZM87.6138 238.867L86.9111 238.777C85.0967 238.545 83.2788 238.194 81.5073 237.734L80.8218 237.557L81.1777 236.185L81.8638 236.363C83.5771 236.808 85.3359 237.146 87.0908 237.371L87.7939 237.461L87.6138 238.867ZM102.629 237.944L102.281 236.57L102.967 236.396C104.691 235.959 106.398 235.411 108.042 234.766L108.701 234.507L109.219 235.826L108.559 236.086C106.861 236.752 105.097 237.318 103.316 237.77L102.629 237.944ZM76.9355 236.282L76.2773 236.02C74.5791 235.343 72.9048 234.551 71.3008 233.665L70.6807 233.322L71.3657 232.082L71.9863 232.425C73.5386 233.282 75.1587 234.049 76.8018 234.703L77.46 234.965L76.9355 236.282ZM112.931 234.095L112.251 232.851L112.873 232.511C114.43 231.66 115.946 230.702 117.38 229.663L117.954 229.248L118.786 230.396L118.212 230.812C116.729 231.886 115.162 232.876 113.553 233.755L112.931 234.095ZM67.23 231.124L66.6567 230.707C65.1758 229.628 63.7485 228.445 62.416 227.193L61.8994 226.708L62.8701 225.675L63.3867 226.16C64.6768 227.372 66.0576 228.517 67.4917 229.561L68.0645 229.979L67.23 231.124ZM121.945 227.792L120.977 226.757L121.494 226.272C122.786 225.062 124.016 223.757 125.149 222.394L125.602 221.849L126.692 222.755L126.239 223.3C125.068 224.708 123.798 226.057 122.462 227.308L121.945 227.792ZM59.0977 223.724L58.646 223.177C57.478 221.764 56.3892 220.263 55.4102 218.717L55.0308 218.118L56.2285 217.36L56.6074 217.959C57.5547 219.454 58.6084 220.906 59.7388 222.274L60.1899 222.82L59.0977 223.724ZM129.105 219.448L127.911 218.686L128.292 218.088C129.245 216.597 130.114 215.027 130.875 213.427L131.179 212.786L132.459 213.395L132.155 214.034C131.369 215.688 130.472 217.31 129.487 218.852L129.105 219.448ZM53.062 214.524L52.7617 213.883C51.9863 212.228 51.3081 210.503 50.7456 208.759L50.5278 208.084L51.877 207.649L52.0942 208.323C52.6387 210.012 53.2949 211.68 54.0449 213.281L54.3457 213.923L53.062 214.524ZM133.979 209.597L132.633 209.154L132.854 208.48C133.408 206.799 133.859 205.065 134.197 203.327L134.332 202.631L135.723 202.901L135.588 203.597C135.239 205.394 134.772 207.186 134.201 208.924L133.979 209.597ZM49.5181 204.12L49.3857 203.424C49.043 201.619 48.811 199.781 48.6958 197.96L48.6509 197.253L50.0654 197.163L50.1099 197.87C50.2217 199.633 50.4463 201.412 50.7783 203.16L50.9106 203.856L49.5181 204.12ZM136.249 198.843L134.834 198.751L134.881 198.044C134.94 197.131 134.971 196.204 134.971 195.289C134.971 194.435 134.944 193.569 134.892 192.715L134.849 192.008L136.264 191.922L136.307 192.629C136.361 193.512 136.388 194.406 136.388 195.289C136.388 196.234 136.356 197.192 136.295 198.136L136.249 198.843ZM50.0645 193.248L48.6499 193.159L48.6948 192.451C48.8096 190.625 49.043 188.787 49.3882 186.987L49.5215 186.292L50.9136 186.559L50.7798 187.255C50.4458 188.995 50.2202 190.774 50.1089 192.541L50.0645 193.248ZM134.366 188.119L134.209 187.277C133.863 185.474 133.416 183.737 132.87 182.059L132.651 181.385L133.999 180.946L134.218 181.621C134.782 183.354 135.244 185.148 135.59 186.953L135.76 187.86L134.366 188.119ZM51.8901 182.772L50.543 182.333L50.7627 181.659C51.3301 179.921 52.0142 178.2 52.7959 176.543L53.0986 175.902L54.3804 176.507L54.0781 177.148C53.3213 178.752 52.6592 180.417 52.1104 182.099L51.8901 182.772ZM131.209 177.746L130.907 177.104C130.151 175.502 129.286 173.931 128.333 172.435L127.952 171.837L129.148 171.075L129.528 171.673C130.513 173.22 131.408 174.844 132.189 176.501L132.491 177.142L131.209 177.746ZM56.2686 173.078L55.0723 172.317L55.4521 171.72C56.4355 170.173 57.5244 168.674 58.6895 167.266L59.1406 166.719L60.2329 167.622L59.7812 168.168C58.6543 169.531 57.6001 170.982 56.6484 172.479L56.2686 173.078ZM125.645 168.675L125.192 168.13C124.062 166.77 122.831 165.464 121.534 164.251L121.017 163.767L121.985 162.731L122.503 163.216C123.842 164.47 125.114 165.818 126.282 167.224L126.735 167.769L125.645 168.675ZM62.9111 164.765L61.9399 163.732L62.4565 163.246C63.7944 161.988 65.2217 160.806 66.6982 159.731L67.2715 159.314L68.105 160.461L67.5322 160.878C66.103 161.917 64.7222 163.062 63.4272 164.279L62.9111 164.765ZM117.997 161.274L117.422 160.859C115.985 159.817 114.47 158.857 112.92 158.008L112.299 157.667L112.98 156.425L113.602 156.766C115.204 157.644 116.769 158.635 118.254 159.711L118.828 160.127L117.997 161.274ZM71.4126 158.36L70.73 157.119L71.3511 156.777C72.9561 155.896 74.6343 155.106 76.3394 154.434L76.9985 154.174L77.519 155.492L76.8599 155.752C75.21 156.403 73.5864 157.166 72.0337 158.02L71.4126 158.36ZM108.757 156.001L108.098 155.74C106.449 155.087 104.745 154.532 103.033 154.093L102.347 153.916L102.699 152.544L103.386 152.72C105.155 153.175 106.916 153.747 108.621 154.422L109.279 154.684L108.757 156.001ZM81.2432 154.287L80.8906 152.915L81.5771 152.738C82.439 152.518 83.3247 152.318 84.2104 152.148C85.1274 151.972 86.061 151.822 86.9858 151.704L87.689 151.614L87.8687 153.021L87.1655 153.11C86.2705 153.225 85.3662 153.369 84.4785 153.541C83.6206 153.705 82.7632 153.897 81.9297 154.111L81.2432 154.287ZM98.5059 153.185L97.8027 153.097C96.0659 152.879 94.2969 152.769 92.5454 152.769H91.8369L91.7749 151.351H92.4834C94.356 151.351 96.1841 151.465 97.9795 151.69L98.6826 151.778L98.5059 153.185Z" fill="#D5091E"/>
<path d="M49.6089 195.524H49.0415V195.241C49.0415 171.278 68.5361 151.784 92.4985 151.784H92.7822V152.351H92.4985C68.8491 152.351 49.6089 171.592 49.6089 195.241V195.524Z" fill="#232021"/>
<path d="M83.666 188.707C83.3281 190.807 81.6416 192.244 79.3545 192.244C76.5303 192.244 74.8184 190.443 74.8184 187.545C74.8184 184.683 76.5801 182.871 79.417 182.871C81.6787 182.871 83.3037 184.346 83.6035 186.407H81.5039C81.2666 185.17 80.3545 184.633 79.3418 184.633C78.0801 184.633 77.0801 185.695 77.0801 187.545C77.0801 189.457 78.0674 190.481 79.3672 190.481C80.3037 190.481 81.291 190.082 81.5664 188.707H83.666Z" fill="#D5091E"/>
<path d="M91.4434 188.694C91.4434 191.131 89.7432 192.244 87.8818 192.244C86.0195 192.244 84.3203 191.131 84.3203 188.694C84.3203 186.258 86.0195 185.158 87.8818 185.158C89.7432 185.158 91.4434 186.258 91.4434 188.694ZM86.4189 188.694C86.4189 190.106 87.0439 190.645 87.8818 190.645C88.7188 190.645 89.3438 190.106 89.3438 188.694C89.3438 187.258 88.6934 186.758 87.8818 186.758C87.0693 186.758 86.4189 187.258 86.4189 188.694Z" fill="#D5091E"/>
<path d="M99.2695 183.021V192.081H97.207V191.182C96.7705 191.918 95.8701 192.244 95.1455 192.244C93.4082 192.244 92.1836 190.919 92.1836 188.719C92.1836 186.52 93.4082 185.207 95.1455 185.207C95.8701 185.207 96.7705 185.533 97.207 186.27V183.021H99.2695ZM94.3203 188.719C94.3203 189.969 95.0078 190.645 95.8203 190.645C96.6328 190.645 97.3076 190.106 97.3076 188.719C97.3076 187.332 96.6328 186.807 95.8203 186.807C95.0078 186.807 94.3203 187.47 94.3203 188.719Z" fill="#D5091E"/>
<path d="M107.384 189.969C106.784 191.557 105.372 192.244 104.035 192.244C101.848 192.244 100.349 190.919 100.349 188.682C100.349 186.532 101.985 185.158 103.947 185.158C106.185 185.158 107.547 186.845 107.409 189.244H102.423C102.485 190.207 103.223 190.645 103.973 190.645C104.76 190.645 105.247 190.369 105.484 189.969H107.384ZM102.447 187.994H105.359C105.322 187.145 104.734 186.732 103.947 186.732C103.21 186.732 102.561 187.107 102.447 187.994Z" fill="#D5091E"/>
<path d="M74.6465 202.734H73.1973V206.146H71.0605V197.086H74.5469C76.8965 197.086 78.6582 197.648 78.6582 199.886C78.6582 201.223 77.9209 201.984 76.8838 202.385L79.1211 206.146H76.6084L74.6465 202.734ZM73.1973 198.886V200.936H74.6094C75.6211 200.936 76.3965 200.773 76.3965 199.91C76.3965 199.073 75.6211 198.886 74.6094 198.886H73.1973Z" fill="#D5091E"/>
<path d="M86.4854 204.035C85.8857 205.621 84.4736 206.309 83.1367 206.309C80.9492 206.309 79.4502 204.984 79.4502 202.747C79.4502 200.598 81.0869 199.223 83.0488 199.223C85.2861 199.223 86.6484 200.91 86.5107 203.31H81.5244C81.5869 204.271 82.3242 204.709 83.0742 204.709C83.8613 204.709 84.3486 204.435 84.5859 204.035H86.4854ZM81.5488 202.061H84.4609C84.4238 201.21 83.8359 200.798 83.0488 200.798C82.3115 200.798 81.6621 201.173 81.5488 202.061Z" fill="#D5091E"/>
<path d="M90.2012 204.16L91.5635 199.424H93.6875L91.2881 206.146H89.001L86.5518 199.424H88.7764L90.2012 204.16Z" fill="#D5091E"/>
<path d="M96.4902 197.086V198.736H94.4277V197.086H96.4902ZM96.502 199.424V206.146H94.4277V199.424H96.502Z" fill="#D5091E"/>
<path d="M104.614 204.035C104.015 205.621 102.603 206.309 101.266 206.309C99.0781 206.309 97.5791 204.984 97.5791 202.747C97.5791 200.598 99.2158 199.223 101.178 199.223C103.415 199.223 104.777 200.91 104.64 203.31H99.6533C99.7158 204.271 100.453 204.709 101.203 204.709C101.99 204.709 102.478 204.435 102.715 204.035H104.614ZM99.6777 202.061H102.59C102.553 201.21 101.965 200.798 101.178 200.798C100.44 200.798 99.791 201.173 99.6777 202.061Z" fill="#D5091E"/>
<path d="M110.903 199.424L111.69 203.984L112.578 199.424H114.69L113.141 206.146H110.741L109.841 201.186L108.941 206.146H106.555L105.005 199.424H107.117L108.004 203.984L108.779 199.424H110.903Z" fill="#D5091E"/>
<path d="M74.5908 137.727C74.9443 139.736 73.8701 141.282 72.04 141.995C69.6172 142.939 67.4951 141.66 66.4961 139.097C65.4795 136.488 66.3486 134.137 68.7246 133.21C70.4717 132.529 72.2734 133.021 73.3506 134.681L72.1963 135.13C71.5391 134.166 70.3955 133.712 69.0566 134.234C67.5654 134.815 66.8545 136.435 67.708 138.625C68.543 140.768 70.1475 141.579 71.7197 140.965C73.082 140.435 73.5918 139.364 73.4375 138.176L74.5908 137.727Z" fill="#020203"/>
<path d="M76.7998 137.098C77.168 138.502 78.3506 138.943 79.3135 138.717C80.2871 138.488 80.7197 137.924 80.8486 137.213L81.9941 136.944C81.9639 138.133 81.1377 139.316 79.542 139.692C77.4727 140.178 75.9785 138.961 75.5234 137.025C75.0342 134.943 76.1133 133.302 77.9033 132.882C79.9111 132.409 81.4854 133.8 81.8398 135.914L76.7998 137.098ZM76.5889 136.146L80.4482 135.238C80.1953 134.321 79.3076 133.553 78.126 133.831C77.1514 134.06 76.377 134.807 76.5889 136.146Z" fill="#020203"/>
<path d="M86.2256 132.791C85.9844 132.785 85.7725 132.8 85.5879 132.825C84.5459 132.962 84.0996 133.588 84.2959 135.074L84.7578 138.567L83.6299 138.717L82.75 132.052L83.8525 131.907L84.0059 133.071C84.2412 132.271 84.8555 131.774 85.7295 131.621C85.8418 131.606 85.9287 131.595 86.0664 131.589L86.2256 132.791Z" fill="#020203"/>
<path d="M87.71 129.799L88.8447 129.732L88.9453 131.417L90.2197 131.342L90.2725 132.253L88.999 132.329L89.2344 136.312C89.2764 137.011 89.3379 137.183 89.9863 137.144L90.5605 137.11L90.6172 138.059L89.793 138.108C88.5068 138.184 88.1904 137.915 88.1074 136.516L87.8643 132.396L86.8018 132.459L86.7471 131.547L87.8096 131.484L87.71 129.799Z" fill="#020203"/>
<path d="M93.0684 131.325L93.0625 138.052L91.9248 138.051L91.9307 131.324L93.0684 131.325ZM93.0693 128.987L93.0684 130.362L91.9316 130.361V128.986L93.0693 128.987Z" fill="#020203"/>
<path d="M95.4395 130.905C95.5205 129.507 95.8213 129.074 97.3564 129.164L97.9424 129.197L97.8867 130.146L97.3262 130.113C96.7266 130.078 96.6191 130.209 96.5791 130.908L96.5469 131.458L97.8066 131.531L97.7529 132.442L96.4932 132.369L96.1553 138.171L95.0195 138.105L95.3574 132.302L94.4219 132.248L94.4746 131.337L95.4111 131.392L95.4395 130.905Z" fill="#020203"/>
<path d="M100.427 131.816L99.6592 138.5L98.5283 138.371L99.2979 131.687L100.427 131.816ZM100.694 129.493L100.537 130.86L99.4062 130.73L99.5635 129.363L100.694 129.493Z" fill="#020203"/>
<path d="M102.607 135.886C102.356 137.314 103.246 138.208 104.214 138.405C105.193 138.604 105.822 138.272 106.235 137.68L107.387 137.914C106.864 138.981 105.619 139.711 104.015 139.385C101.933 138.962 101.085 137.234 101.479 135.287C101.904 133.193 103.568 132.153 105.37 132.518C107.391 132.928 108.238 134.847 107.679 136.915L102.607 135.886ZM102.814 134.933L106.696 135.721C106.849 134.782 106.363 133.715 105.176 133.473C104.196 133.274 103.18 133.63 102.814 134.933Z" fill="#020203"/>
<path d="M115.435 133.052L116.513 133.417L113.603 142L112.524 141.635L112.851 140.676C112.23 141.218 111.419 141.432 110.39 141.082C108.921 140.584 108.072 138.963 108.79 136.844C109.496 134.761 111.169 133.955 112.638 134.452C113.666 134.802 114.182 135.464 114.344 136.272L115.435 133.052ZM112.597 135.468C111.496 135.095 110.488 135.69 109.962 137.241C109.438 138.792 109.873 139.878 110.974 140.251C111.934 140.576 113.074 140.171 113.646 138.49C114.215 136.809 113.556 135.793 112.597 135.468Z" fill="#020203"/>
<path d="M76.4814 252.039L75.9434 254.096C76.3057 253.73 76.8027 253.561 77.46 253.732C78.3975 253.978 78.9941 254.973 78.6465 256.305C78.292 257.656 77.292 258.211 76.3535 257.967C75.6963 257.795 75.3457 257.404 75.209 256.908L75.0488 257.52L74.3604 257.341L75.793 251.859L76.4814 252.039ZM76.334 257.332C77.0371 257.516 77.6387 257.099 77.8975 256.107C78.1562 255.117 77.8359 254.461 77.1318 254.277C76.5195 254.117 75.8262 254.42 75.5459 255.494C75.2646 256.568 75.7207 257.171 76.334 257.332Z" fill="black"/>
<path d="M82.8779 254.955L80.585 258.981C80.1084 259.812 79.8555 260.051 78.9277 259.875L78.5664 259.805L78.6768 259.223L78.9609 259.276C79.4209 259.363 79.6504 259.375 79.957 258.766L80.0039 258.688L79.3018 254.274L80.0762 254.422L80.5225 257.808L82.1494 254.816L82.8779 254.955Z" fill="black"/>
<path d="M89.2812 254.874L85.5889 258.851L89.0273 259.156L88.9668 259.84L84.5869 259.451L84.6484 258.768L88.3477 254.791L85.2832 254.519L85.3438 253.834L89.3418 254.189L89.2812 254.874Z" fill="black"/>
<path d="M92.6748 259.299C92.4277 259.694 92.042 259.996 91.3467 259.988C90.377 259.978 90.0098 259.317 90.0195 258.355L90.0488 255.668L90.7598 255.676L90.7334 258.152C90.7266 258.801 90.8223 259.365 91.6035 259.373C92.2832 259.381 92.6797 258.924 92.6885 258.01L92.7129 255.697L93.4238 255.704L93.3789 259.908L92.668 259.9L92.6748 259.299ZM90.5254 254.212L91.2354 254.219L91.2275 254.992L90.5156 254.984L90.5254 254.212ZM93.0332 254.238L93.0244 255.012L92.3066 255.004L92.3145 254.23L93.0332 254.238Z" fill="black"/>
<path d="M95.2246 256.272C95.4424 255.861 95.8301 255.532 96.54 255.49C97.5527 255.43 97.959 256.062 98.0166 257.021L98.1748 259.672L97.4658 259.715L97.3193 257.274C97.2812 256.627 97.1377 256.072 96.3271 256.121C95.6406 256.161 95.2471 256.647 95.3018 257.56L95.4385 259.837L94.7285 259.879L94.3906 254.226L95.0996 254.184L95.2246 256.272Z" fill="black"/>
<path d="M100.13 259.445L99.4238 259.524L98.7891 253.9L99.4951 253.821L100.13 259.445Z" fill="black"/>
<path d="M101.216 253.586L101.748 256.896L103.122 254.76L103.987 254.621L102.682 256.596L104.87 258.738L104.014 258.875L102.294 257.188L101.893 257.791L102.115 259.182L101.413 259.293L100.514 253.699L101.216 253.586Z" fill="black"/>
<path d="M105.475 256.688C105.702 257.564 106.441 257.844 107.042 257.703C107.651 257.563 107.923 257.211 108.005 256.767L108.722 256.602C108.701 257.344 108.182 258.082 107.185 258.313C105.889 258.613 104.958 257.85 104.677 256.639C104.375 255.337 105.053 254.313 106.173 254.053C107.429 253.762 108.41 254.635 108.628 255.957L105.475 256.688ZM105.345 256.091L107.759 255.531C107.603 254.959 107.05 254.477 106.311 254.646C105.7 254.789 105.215 255.255 105.345 256.091Z" fill="black"/>
<path d="M75.5213 139.213C75.869 141.186 74.8138 142.706 73.0151 143.407C70.6349 144.339 68.5545 143.08 67.5742 140.565C66.576 138.005 67.4213 135.694 69.7566 134.782C71.4683 134.114 73.237 134.597 74.2982 136.224L73.165 136.671C72.5235 135.718 71.3964 135.277 70.0833 135.79C68.6204 136.362 67.925 137.951 68.7643 140.103C69.5857 142.205 71.1625 142.999 72.7004 142.397C74.0404 141.875 74.538 140.823 74.3881 139.657L75.5213 139.213Z" fill="#010203"/>
<path d="M77.7456 138.596C78.0993 139.978 79.2624 140.412 80.2037 140.19C81.163 139.969 81.5887 139.417 81.7206 138.719L82.8418 138.458C82.8088 139.624 81.9964 140.784 80.4286 141.15C78.3931 141.623 76.9302 140.421 76.4895 138.521C76.0129 136.476 77.0801 134.866 78.8368 134.459C80.8093 134 82.3501 135.37 82.6949 137.444L77.7456 138.596ZM77.5357 137.657L81.3249 136.779C81.0791 135.88 80.2097 135.121 79.0526 135.391C78.0933 135.613 77.3319 136.347 77.5357 137.657Z" fill="#010203"/>
<path d="M87.0206 134.372C86.7838 134.366 86.5739 134.378 86.3911 134.405C85.3718 134.54 84.9342 135.151 85.12 136.608L85.5727 140.035L84.4665 140.181L83.6092 133.64L84.6914 133.502L84.8412 134.645C85.0721 133.859 85.6776 133.374 86.535 133.224C86.6429 133.209 86.7298 133.197 86.8647 133.191L87.0206 134.372Z" fill="#010203"/>
<path d="M88.4955 131.416L89.6107 131.35L89.7096 133.008L90.9657 132.933L91.0196 133.826L89.7636 133.904L89.9974 137.819C90.0364 138.503 90.0963 138.674 90.7378 138.635L91.3014 138.602L91.3554 139.531L90.546 139.582C89.2869 139.657 88.9692 139.39 88.8882 138.017L88.6484 133.97L87.6022 134.03L87.5482 133.134L88.5944 133.071L88.4955 131.416Z" fill="#010203"/>
<path d="M93.8255 132.954L93.7925 139.546L92.6774 139.543L92.7103 132.948L93.8255 132.954ZM93.8405 130.661L93.8315 132.01L92.7163 132.004L92.7223 130.655L93.8405 130.661Z" fill="#010203"/>
<path d="M96.1398 132.525C96.2177 131.152 96.5115 130.727 98.0223 130.813L98.5919 130.849L98.538 131.779L97.9894 131.746C97.3988 131.713 97.2969 131.842 97.2549 132.531L97.219 133.068L98.46 133.14L98.4091 134.036L97.171 133.961L96.8352 139.657L95.7201 139.594L96.0558 133.895L95.1385 133.844L95.1865 132.948L96.1098 133.002L96.1398 132.525Z" fill="#010203"/>
<path d="M101.041 133.428L100.277 139.99L99.1675 139.861L99.9319 133.299L101.041 133.428ZM101.308 131.149L101.152 132.489L100.043 132.36L100.199 131.017L101.308 131.149Z" fill="#010203"/>
<path d="M103.268 137.45C103.011 138.85 103.88 139.735 104.833 139.93C105.792 140.13 106.416 139.807 106.818 139.225L107.951 139.462C107.435 140.505 106.209 141.222 104.635 140.892C102.588 140.469 101.764 138.769 102.159 136.857C102.585 134.803 104.222 133.787 105.993 134.153C107.975 134.564 108.802 136.452 108.242 138.482L103.268 137.45ZM103.472 136.512L107.285 137.307C107.435 136.383 106.962 135.331 105.798 135.091C104.833 134.89 103.838 135.235 103.472 136.512Z" fill="#010203"/>
<path d="M115.931 134.729L116.989 135.094L114.084 143.521L113.029 143.155L113.353 142.211C112.741 142.745 111.944 142.948 110.931 142.601C109.486 142.103 108.664 140.508 109.378 138.425C110.085 136.38 111.734 135.595 113.173 136.09C114.186 136.44 114.69 137.094 114.84 137.891L115.931 134.729ZM113.131 137.091C112.049 136.719 111.054 137.301 110.529 138.82C110.007 140.343 110.427 141.414 111.509 141.785C112.447 142.112 113.575 141.719 114.144 140.065C114.714 138.419 114.069 137.415 113.131 137.091Z" fill="#010203"/>
<path d="M283.815 105.229C283.815 109.651 280.468 113.725 279.731 117.935C278.972 122.263 280.713 127.231 279.243 131.269C277.747 135.378 273.206 138.06 271.045 141.796C268.863 145.566 268.795 150.835 266.009 154.151C263.216 157.477 258.035 158.453 254.71 161.246C251.393 164.031 249.539 168.967 245.768 171.149C242.033 173.31 236.835 172.462 232.726 173.958C228.689 175.428 225.257 179.431 220.929 180.189C216.719 180.926 212.132 178.349 207.711 178.349C203.29 178.349 198.701 180.926 194.491 180.189C190.163 179.43 186.731 175.427 182.693 173.957C178.584 172.461 173.386 173.308 169.65 171.146C165.88 168.964 164.025 164.028 160.709 161.242C157.384 158.449 152.203 157.473 149.41 154.147C146.625 150.831 146.557 145.562 144.375 141.792C142.214 138.056 137.674 135.374 136.178 131.265C134.708 127.228 136.449 122.26 135.691 117.932C134.954 113.723 131.608 109.65 131.608 105.229C131.608 100.808 134.954 96.7342 135.692 92.5241C136.45 88.1957 134.709 83.2277 136.179 79.1904C137.676 75.0813 142.216 72.3988 144.378 68.6631C146.56 64.8925 146.628 59.6235 149.413 56.3075C152.207 52.9821 157.387 52.0064 160.713 49.2132C164.029 46.428 165.884 41.4918 169.655 39.3103C173.39 37.1492 178.588 37.9965 182.697 36.5008C186.734 35.031 190.166 31.0279 194.494 30.2698C198.703 29.5327 203.291 32.1104 207.711 32.1104C212.133 32.1104 216.722 29.5329 220.932 30.2704C225.26 31.0286 228.692 35.0319 232.729 36.5019C236.838 37.9981 242.037 37.1513 245.772 39.3129C249.543 41.4947 251.398 46.4311 254.714 49.2167C258.039 52.0101 263.22 52.9862 266.013 56.3118C268.798 59.6279 268.866 64.8968 271.047 68.6674C273.208 72.4027 277.749 75.0851 279.244 79.1938C280.714 83.231 278.973 88.1988 279.731 92.5271C280.468 96.7362 283.815 100.809 283.815 105.229Z" fill="#F3F3F3"/>
<path d="M283.815 105.229C283.815 109.651 280.468 113.725 279.731 117.935C278.972 122.263 280.713 127.231 279.243 131.269C277.747 135.378 273.206 138.06 271.045 141.796C268.863 145.566 268.795 150.835 266.009 154.151C263.216 157.477 258.035 158.453 254.71 161.246C251.393 164.031 249.539 168.967 245.768 171.149C242.033 173.31 236.835 172.462 232.726 173.958C228.689 175.428 225.257 179.431 220.929 180.189C216.719 180.926 212.132 178.349 207.711 178.349C203.29 178.349 198.701 180.926 194.491 180.189C190.163 179.43 186.731 175.427 182.693 173.957C178.584 172.461 173.386 173.308 169.65 171.146C165.88 168.964 164.025 164.028 160.709 161.242C157.384 158.449 152.203 157.473 149.41 154.147C146.625 150.831 146.557 145.562 144.375 141.792C142.214 138.056 137.674 135.374 136.178 131.265C134.708 127.228 136.449 122.26 135.691 117.932C134.954 113.723 131.608 109.65 131.608 105.229C131.608 100.808 134.954 96.7342 135.692 92.5241C136.45 88.1957 134.709 83.2277 136.179 79.1904C137.676 75.0813 142.216 72.3988 144.378 68.6631C146.56 64.8925 146.628 59.6235 149.413 56.3075C152.207 52.9821 157.387 52.0064 160.713 49.2132C164.029 46.428 165.884 41.4918 169.655 39.3103C173.39 37.1492 178.588 37.9965 182.697 36.5008C186.734 35.031 190.166 31.0279 194.494 30.2698C198.703 29.5327 203.291 32.1104 207.711 32.1104C212.133 32.1104 216.722 29.5329 220.932 30.2704C225.26 31.0286 228.692 35.0319 232.729 36.5019C236.838 37.9981 242.037 37.1513 245.772 39.3129C249.543 41.4947 251.398 46.4311 254.714 49.2167C258.039 52.0101 263.22 52.9862 266.013 56.3118C268.798 59.6279 268.866 64.8968 271.047 68.6674C273.208 72.4027 277.749 75.0851 279.244 79.1938C280.714 83.231 278.973 88.1988 279.731 92.5271C280.468 96.7362 283.815 100.809 283.815 105.229Z" fill="#F0F0F0"/>
<path d="M219.339 181.03C217.375 181.03 215.377 180.525 213.431 180.033C211.533 179.554 209.57 179.058 207.711 179.058C205.852 179.058 203.889 179.553 201.99 180.032C199.475 180.669 196.872 181.323 194.369 180.887C191.765 180.431 189.506 178.895 187.322 177.409C185.673 176.288 184.116 175.229 182.451 174.623C180.736 173.999 178.745 173.794 176.818 173.596C174.218 173.328 171.529 173.052 169.295 171.76C167.036 170.452 165.45 168.248 163.916 166.116C162.74 164.483 161.63 162.941 160.253 161.785C158.869 160.623 157.154 159.793 155.338 158.915C152.979 157.773 150.539 156.593 148.867 154.604C147.201 152.62 146.461 150.016 145.746 147.498C145.217 145.639 144.671 143.717 143.762 142.146C142.868 140.601 141.547 139.246 140.15 137.812C138.312 135.925 136.411 133.975 135.512 131.507C134.635 129.097 134.832 126.408 135.022 123.808C135.164 121.869 135.311 119.865 134.993 118.054C134.69 116.321 133.92 114.609 133.106 112.797C132.021 110.385 130.899 107.89 130.899 105.229C130.899 102.569 132.021 100.073 133.106 97.6602C133.92 95.8477 134.69 94.1357 134.994 92.4019C135.311 90.5908 135.165 88.5864 135.022 86.6475C134.833 84.0474 134.636 81.3584 135.513 78.9482C136.412 76.481 138.313 74.5303 140.151 72.644C141.549 71.2095 142.87 69.8545 143.765 68.3081C144.674 66.7373 145.22 64.8154 145.749 62.9565C146.464 60.439 147.205 57.835 148.871 55.8516C150.542 53.8618 152.982 52.6816 155.342 51.5405C157.158 50.6626 158.874 49.833 160.257 48.6709C161.634 47.5142 162.744 45.9722 163.919 44.3394C165.454 42.208 167.041 40.0039 169.3 38.6968C171.533 37.4048 174.222 37.1289 176.822 36.8618C178.748 36.6636 180.74 36.459 182.455 35.835C184.12 35.2285 185.676 34.1699 187.325 33.0493C189.509 31.564 191.768 30.0278 194.372 29.5718C196.876 29.1338 199.477 29.791 201.992 30.4263C203.89 30.9058 205.852 31.4019 207.711 31.4019C209.571 31.4019 211.534 30.9058 213.432 30.4263C215.948 29.791 218.547 29.1348 221.054 29.5723C223.658 30.0288 225.917 31.5645 228.101 33.0498C229.749 34.1709 231.306 35.2295 232.972 35.8359C234.686 36.4605 236.678 36.665 238.604 36.8633C241.205 37.1309 243.894 37.4072 246.127 38.6997C248.387 40.0068 249.973 42.2109 251.507 44.3428C252.683 45.9756 253.792 47.5176 255.169 48.6743C256.554 49.8369 258.269 50.6665 260.084 51.5449C262.444 52.686 264.884 53.8662 266.555 55.8565C268.221 57.8394 268.961 60.4429 269.677 62.9609C270.206 64.8193 270.751 66.7412 271.661 68.3125C272.555 69.8589 273.875 71.2134 275.273 72.6475C277.111 74.5337 279.012 76.4844 279.911 78.9512C280.788 81.3618 280.591 84.0503 280.401 86.6509C280.259 88.5894 280.112 90.5938 280.43 92.4048C280.733 94.1387 281.502 95.8501 282.317 97.6626C283.402 100.075 284.523 102.57 284.523 105.229C284.523 107.89 283.402 110.386 282.317 112.799C281.502 114.611 280.732 116.323 280.429 118.057C280.112 119.868 280.258 121.872 280.4 123.811C280.59 126.412 280.787 129.101 279.909 131.511C279.011 133.978 277.11 135.929 275.271 137.815C273.874 139.25 272.553 140.604 271.658 142.151C270.749 143.722 270.203 145.644 269.674 147.503C268.958 150.021 268.218 152.624 266.552 154.607C264.88 156.597 262.441 157.776 260.082 158.918C258.265 159.796 256.55 160.626 255.166 161.789C253.789 162.945 252.679 164.487 251.503 166.119C249.969 168.25 248.382 170.454 246.123 171.762C243.89 173.054 241.2 173.33 238.599 173.598C236.674 173.796 234.682 174 232.968 174.624C231.303 175.23 229.746 176.289 228.097 177.41C225.913 178.896 223.655 180.431 221.051 180.888C220.485 180.986 219.913 181.03 219.339 181.03ZM207.711 177.64C209.747 177.64 211.796 178.158 213.778 178.659C216.257 179.286 218.598 179.88 220.807 179.491C223.109 179.088 225.24 177.639 227.3 176.238C228.948 175.117 230.652 173.959 232.484 173.292C234.363 172.608 236.443 172.395 238.455 172.188C241.02 171.924 243.442 171.675 245.413 170.535C247.41 169.38 248.839 167.394 250.354 165.291C251.527 163.66 252.741 161.974 254.254 160.703C255.773 159.427 257.65 158.52 259.465 157.642C261.792 156.516 263.99 155.453 265.467 153.695C266.938 151.944 267.604 149.599 268.311 147.115C268.863 145.173 269.434 143.165 270.432 141.441C271.415 139.742 272.859 138.26 274.256 136.826C276.07 134.965 277.783 133.207 278.577 131.026C279.351 128.901 279.174 126.479 278.986 123.914C278.838 121.89 278.686 119.796 279.033 117.813C279.367 115.904 280.209 114.03 281.024 112.218C282.048 109.941 283.106 107.586 283.106 105.229C283.106 102.874 282.048 100.52 281.024 98.2437C280.21 96.4316 279.368 94.5576 279.033 92.6489C278.686 90.6655 278.839 88.5718 278.987 86.5474C279.175 83.9829 279.352 81.561 278.579 79.4365C277.785 77.2554 276.072 75.4976 274.258 73.6367C272.861 72.2036 271.417 70.7212 270.434 69.0225C269.437 67.2983 268.866 65.2905 268.314 63.3486C267.608 60.8647 266.941 58.5186 265.47 56.7681C263.994 55.0098 261.795 53.9463 259.468 52.8208C257.653 51.9429 255.777 51.0357 254.258 49.7593C252.746 48.4888 251.531 46.8023 250.357 45.1709C248.844 43.0679 247.414 41.0815 245.417 39.9263C243.447 38.7861 241.024 38.5371 238.459 38.273C236.447 38.0659 234.366 37.8521 232.487 37.168C230.655 36.501 228.951 35.3423 227.304 34.2217C225.243 32.8208 223.113 31.3721 220.81 30.9688C218.602 30.5791 216.261 31.1738 213.779 31.8003C211.797 32.3013 209.748 32.8189 207.711 32.8189C205.676 32.8189 203.626 32.3013 201.645 31.8003C199.164 31.1733 196.825 30.5815 194.616 30.9683C192.312 31.3716 190.182 32.8203 188.122 34.2212C186.474 35.3418 184.771 36.5 182.939 37.167C181.06 37.8511 178.979 38.0649 176.967 38.2715C174.402 38.5352 171.98 38.7837 170.01 39.9233C168.014 41.0786 166.583 43.0649 165.07 45.1675C163.896 46.7988 162.681 48.4858 161.168 49.7559C159.649 51.0322 157.773 51.939 155.959 52.8164C153.631 53.9424 151.433 55.0054 149.956 56.7632C148.485 58.5147 147.818 60.8604 147.112 63.3442C146.56 65.2861 145.989 67.2944 144.991 69.0181C144.008 70.7173 142.563 72.1997 141.166 73.6333C139.353 75.4941 137.64 77.252 136.845 79.4331C136.071 81.5576 136.249 83.98 136.436 86.5444C136.584 88.5689 136.737 90.6626 136.39 92.646C136.056 94.5552 135.213 96.4292 134.398 98.2412C133.375 100.519 132.316 102.873 132.316 105.229C132.316 107.586 133.375 109.94 134.398 112.216C135.213 114.028 136.055 115.901 136.39 117.81C136.737 119.793 136.583 121.886 136.436 123.911C136.248 126.476 136.07 128.897 136.844 131.022C137.638 133.204 139.351 134.961 141.165 136.822C142.562 138.256 144.006 139.738 144.989 141.437C145.986 143.161 146.557 145.168 147.109 147.11C147.815 149.594 148.481 151.94 149.952 153.691C151.429 155.449 153.627 156.513 155.956 157.639C157.77 158.517 159.646 159.424 161.165 160.699C162.677 161.97 163.892 163.657 165.065 165.288C166.58 167.392 168.009 169.378 170.005 170.533C171.976 171.673 174.398 171.922 176.963 172.186C178.976 172.393 181.056 172.606 182.936 173.291C184.767 173.958 186.471 175.116 188.119 176.237C190.179 177.639 192.31 179.087 194.613 179.49C196.819 179.878 199.162 179.285 201.644 178.658C203.625 178.158 205.675 177.64 207.711 177.64Z" fill="black"/>
<path d="M207.711 150.417C182.794 150.417 162.523 130.146 162.523 105.229C162.523 80.3125 182.794 60.0415 207.711 60.0415C232.628 60.0415 252.899 80.3125 252.899 105.229C252.899 130.146 232.628 150.417 207.711 150.417ZM207.711 61.4585C183.576 61.4585 163.94 81.0942 163.94 105.229C163.94 129.365 183.576 149 207.711 149C231.847 149 251.482 129.365 251.482 105.229C251.482 81.0942 231.847 61.4585 207.711 61.4585Z" fill="#D5091E"/>
<path d="M178.594 101.694H176.47V92.6895H178.594V101.694Z" fill="#D5091E"/>
<path d="M185.153 95.2979C184.941 94.6147 184.283 94.2422 183.376 94.2422C182.544 94.2422 181.948 94.5522 181.948 95.1113C181.948 95.5586 182.358 95.8813 182.991 96.0181L184.221 96.2666C185.674 96.5645 187.513 97.0117 187.513 98.8999C187.513 100.788 185.625 101.856 183.737 101.856C181.401 101.856 179.923 100.738 179.588 98.7632H181.7C181.936 99.707 182.681 100.142 183.786 100.142C184.519 100.142 185.327 99.9058 185.327 99.1606C185.327 98.5767 184.644 98.291 183.65 98.0801L182.557 97.8564C181.091 97.5581 179.762 96.8501 179.762 95.2354C179.762 93.3975 181.737 92.5405 183.5 92.5405C185.252 92.5405 186.954 93.3105 187.252 95.2979H185.153Z" fill="#D5091E"/>
<path d="M190.904 92.6895H193.239L196.643 101.694H194.332L193.786 100.092H190.309L189.774 101.694H187.514L190.904 92.6895ZM190.892 98.3657H193.215L192.06 94.9375L190.892 98.3657Z" fill="#D5091E"/>
<path d="M197.401 92.6895H204.308V94.5522H199.525V96.1299H204.047V98.0054H199.525V99.8188H204.308V101.694H197.401V92.6895Z" fill="#D5091E"/>
<path d="M212.843 99.0859C212.843 98.291 212.061 97.9307 210.905 97.9307H210.309V96.2417H210.843C212.022 96.2417 212.73 95.8564 212.73 95.0615C212.73 94.4033 212.072 94.0557 211.401 94.0557C210.632 94.0557 209.961 94.3535 209.824 95.3101H207.8C207.998 93.3354 209.688 92.5405 211.501 92.5405C213.091 92.5405 214.793 93.248 214.793 94.8877C214.793 95.832 214.172 96.5771 213.538 96.937C214.433 97.2974 214.941 98.2412 214.941 99.0737C214.941 100.924 213.252 101.856 211.364 101.856C209.576 101.856 207.924 100.961 207.688 98.875H209.725C209.861 99.9307 210.606 100.34 211.401 100.34C212.296 100.34 212.843 99.918 212.843 99.0859Z" fill="#D5091E"/>
<path d="M223.215 99.7939H221.973V101.694H219.923V99.7939H215.539V98.1919L220.072 92.6895H221.973V97.9932H223.215V99.7939ZM217.787 97.9932H219.923V95.3599L217.787 97.9932Z" fill="#D5091E"/>
<path d="M223.887 97.1733C223.887 94.3042 225.216 92.5405 227.749 92.5405C230.271 92.5405 231.6 94.3042 231.6 97.1733C231.6 100.055 230.271 101.856 227.749 101.856C225.216 101.856 223.887 100.055 223.887 97.1733ZM229.501 97.1733C229.501 94.9995 228.793 94.0557 227.749 94.0557C226.693 94.0557 225.985 94.9995 225.985 97.1733C225.985 99.3594 226.693 100.34 227.749 100.34C228.793 100.34 229.501 99.3594 229.501 97.1733Z" fill="#D5091E"/>
<path d="M239.364 95.0742C239.364 96.9619 237.749 98.4897 235.091 100.018H239.401V101.694H232.483V100.018C234.905 98.2539 237.302 96.6763 237.302 95.1982C237.302 94.416 236.73 94.0557 236.048 94.0557C235.314 94.0557 234.545 94.5029 234.606 95.9312H232.582C232.521 93.7949 234.023 92.5405 236.109 92.5405C237.998 92.5405 239.364 93.4844 239.364 95.0742Z" fill="#D5091E"/>
<path d="M196.684 108.599H193.752V107.506H200.882V108.599H197.95V116.511H196.684V108.599Z" fill="#D5091E"/>
<path d="M205.925 109.829L203.54 116.796C203.043 118.237 202.721 118.685 201.218 118.685H200.634V117.74H201.093C201.838 117.74 202.198 117.691 202.497 116.647L202.546 116.511L200.137 109.829H201.392L203.093 114.983L204.745 109.829H205.925Z" fill="#D5091E"/>
<path d="M207.95 109.829V110.884C208.36 110.176 209.056 109.717 210.137 109.717C211.677 109.717 212.993 111.008 212.993 113.194C212.993 115.418 211.677 116.672 210.137 116.672C209.056 116.672 208.36 116.213 207.95 115.505V118.685H206.82V109.829H207.95ZM209.851 115.704C211.006 115.704 211.764 114.821 211.764 113.194C211.764 111.567 211.006 110.686 209.851 110.686C208.845 110.686 207.9 111.431 207.9 113.194C207.9 114.958 208.845 115.704 209.851 115.704Z" fill="#D5091E"/>
<path d="M215.181 113.542C215.218 114.983 216.261 115.679 217.242 115.679C218.235 115.679 218.782 115.231 219.068 114.573H220.235C219.938 115.716 218.869 116.672 217.242 116.672C215.131 116.672 213.963 115.157 213.963 113.182C213.963 111.058 215.379 109.717 217.205 109.717C219.254 109.717 220.459 111.418 220.322 113.542H215.181ZM215.192 112.573H219.13C219.093 111.629 218.409 110.686 217.205 110.686C216.211 110.686 215.292 111.232 215.192 112.573Z" fill="#D5091E"/>
<path d="M230.297 109.704C230.297 111.791 228.124 113.629 225.603 115.455H230.546V116.511H224.062V115.492C227.242 113.145 229.104 111.456 229.104 109.854C229.104 108.909 228.496 108.288 227.416 108.288C226.447 108.288 225.516 108.822 225.479 110.313H224.311C224.273 108.524 225.516 107.344 227.44 107.344C229.104 107.344 230.297 108.176 230.297 109.704Z" fill="#D5091E"/>
<path d="M189.692 48.1558C190.052 50.1504 188.99 51.6899 187.176 52.4048C184.773 53.353 182.659 52.0898 181.657 49.5474C180.637 46.9595 181.492 44.6206 183.848 43.6914C185.581 43.0083 187.373 43.4902 188.448 45.1357L187.304 45.5864C186.648 44.6304 185.51 44.1841 184.181 44.708C182.703 45.291 182.003 46.9023 182.859 49.0742C183.698 51.2002 185.293 51.999 186.854 51.3838C188.205 50.8516 188.707 49.7861 188.549 48.6064L189.692 48.1558Z" fill="black"/>
<path d="M191.912 47.5176C192.283 48.9102 193.459 49.3438 194.414 49.1167C195.379 48.8857 195.808 48.3242 195.933 47.6182L197.068 47.3467C197.044 48.5269 196.227 49.7051 194.645 50.083C192.591 50.5728 191.104 49.3701 190.645 47.4502C190.151 45.3838 191.218 43.751 192.993 43.3272C194.987 42.8511 196.554 44.2271 196.913 46.3237L191.912 47.5176ZM191.699 46.5723L195.528 45.6587C195.273 44.7495 194.39 43.9898 193.219 44.2695C192.252 44.5 191.485 45.2451 191.699 46.5723Z" fill="black"/>
<path d="M201.246 43.208C201.008 43.2031 200.797 43.2192 200.612 43.2441C199.578 43.3843 199.138 44.0078 199.338 45.4839L199.807 48.9536L198.688 49.105L197.791 42.4858L198.886 42.3379L199.043 43.4941C199.273 42.6987 199.883 42.2026 200.751 42.0469C200.861 42.0322 200.947 42.0205 201.085 42.0146L201.246 43.208Z" fill="black"/>
<path d="M202.699 40.228L203.829 40.1562L203.936 41.8306L205.2 41.75L205.258 42.6553L203.993 42.7358L204.246 46.6924C204.29 47.3877 204.352 47.5586 204.996 47.5171L205.566 47.4805L205.627 48.4229L204.809 48.4751C203.53 48.5571 203.214 48.29 203.126 46.9014L202.864 42.8081L201.81 42.8755L201.753 41.9697L202.807 41.9023L202.699 40.228Z" fill="black"/>
<path d="M208.021 39.4043L208.027 40.7705L206.897 40.7744L206.892 39.4077L208.021 39.4043ZM208.031 41.7266L208.055 48.4077L206.925 48.4116L206.9 41.7305L208.031 41.7266Z" fill="black"/>
<path d="M210.412 41.292C210.492 39.9028 210.791 39.4726 212.316 39.561L212.9 39.5947L212.845 40.5376L212.287 40.5049C211.691 40.4707 211.584 40.6011 211.545 41.2954L211.513 41.8408L212.766 41.9136L212.713 42.8193L211.46 42.7466L211.126 48.5132L209.997 48.4477L210.332 42.6811L209.401 42.6274L209.454 41.7217L210.385 41.7754L210.412 41.292Z" fill="black"/>
<path d="M215.352 42.1851L214.613 48.8257L213.489 48.7007L214.229 42.0596L215.352 42.1851ZM215.608 39.8765L215.457 41.2349L214.335 41.1094L214.485 39.7515L215.608 39.8765Z" fill="black"/>
<path d="M217.525 46.2158C217.281 47.6358 218.169 48.521 219.131 48.7124C220.104 48.9058 220.727 48.5737 221.137 47.9844L222.28 48.2119C221.765 49.2744 220.531 50.0029 218.937 49.6865C216.866 49.2749 216.017 47.5615 216.401 45.6255C216.816 43.5435 218.465 42.5044 220.256 42.8599C222.266 43.2593 223.114 45.1621 222.566 47.2183L217.525 46.2158ZM217.727 45.2686L221.587 46.0361C221.733 45.103 221.248 44.0444 220.067 43.8096C219.093 43.6162 218.085 43.9727 217.727 45.2686Z" fill="black"/>
<path d="M230.271 43.3545L231.343 43.7139L228.48 52.252L227.409 51.8931L227.73 50.939C227.115 51.48 226.311 51.6953 225.285 51.3516C223.825 50.8618 222.975 49.2544 223.683 47.1465C224.376 45.0737 226.035 44.2671 227.496 44.7563C228.521 45.1001 229.033 45.7563 229.197 46.5576L230.271 43.3545ZM227.458 45.7661C226.363 45.3989 225.365 45.9941 224.848 47.5371C224.331 49.0796 224.77 50.1567 225.865 50.5239C226.818 50.8433 227.951 50.4365 228.51 48.7642C229.071 47.0918 228.412 46.0854 227.458 45.7661Z" fill="black"/>
<path d="M164.249 151.082C164.906 150.348 165.937 150.872 167.335 151.871L167.403 151.796C167.915 151.223 167.768 150.758 167.374 150.406C166.934 150.013 166.478 150.021 166.107 150.389L165.563 149.903C166.209 149.272 167.148 149.434 167.751 149.972C168.625 150.753 168.639 151.483 167.842 152.365L167.194 153.079C166.718 153.6 166.426 153.975 166.226 154.326L165.692 153.851C165.779 153.719 165.875 153.576 166.035 153.386C165.554 153.54 165.075 153.435 164.519 152.937C163.934 152.415 163.737 151.656 164.249 151.082ZM167.003 152.324C165.965 151.563 165.228 151.166 164.844 151.594C164.581 151.89 164.631 152.288 165.007 152.624C165.5 153.063 166.17 153.257 166.828 152.521L167.003 152.324Z" fill="black"/>
<path d="M169.578 156.202C169.146 156.369 168.659 156.377 168.111 155.954C167.349 155.366 167.452 154.622 168.035 153.865L169.667 151.75L170.227 152.181L168.723 154.132C168.33 154.642 168.068 155.146 168.683 155.621C169.218 156.033 169.806 155.907 170.36 155.188L171.764 153.366L172.324 153.798L169.772 157.107L169.212 156.676L169.578 156.202Z" fill="black"/>
<path d="M176.385 154.777L176.976 155.166L173.881 159.874L173.29 159.485L173.636 158.959C173.178 159.188 172.657 159.189 172.092 158.818C171.287 158.288 171.03 157.181 171.794 156.018C172.545 154.875 173.678 154.652 174.483 155.181C175.048 155.554 175.253 156.032 175.225 156.544L176.385 154.777ZM174.299 155.786C173.695 155.39 172.996 155.59 172.437 156.44C171.877 157.29 171.971 158.013 172.574 158.41C173.1 158.756 173.85 158.69 174.456 157.768C175.062 156.846 174.825 156.132 174.299 155.786Z" fill="black"/>
<path d="M177.728 157.278L175.622 160.885L175.013 160.527L177.118 156.923L177.728 157.278ZM178.459 156.025L178.028 156.763L177.419 156.406L177.849 155.67L178.459 156.025Z" fill="black"/>
<path d="M179.341 156.987L179.963 157.321L179.469 158.244L180.166 158.618L179.898 159.117L179.201 158.743L178.032 160.923C177.827 161.306 177.803 161.417 178.158 161.608L178.472 161.775L178.193 162.296L177.743 162.053C177.039 161.676 176.959 161.43 177.37 160.665L178.579 158.41L177.998 158.098L178.266 157.599L178.847 157.911L179.341 156.987Z" fill="black"/>
<path d="M180.287 161.274C179.928 162.1 180.336 162.771 180.893 163.029C181.457 163.291 181.884 163.182 182.22 162.883L182.882 163.19C182.412 163.762 181.554 164.021 180.631 163.593C179.433 163.035 179.17 161.868 179.691 160.748C180.251 159.544 181.408 159.157 182.444 159.638C183.606 160.178 183.841 161.461 183.203 162.63L180.287 161.274ZM180.549 160.728L182.782 161.766C183.01 161.221 182.872 160.505 182.188 160.187C181.625 159.925 180.959 159.992 180.549 160.728Z" fill="black"/>
<path d="M188.132 160.49L188.793 160.739L186.811 166.005L186.149 165.756L186.372 165.168C185.976 165.492 185.468 165.607 184.836 165.37C183.935 165.03 183.441 164.007 183.931 162.707C184.412 161.428 185.467 160.962 186.367 161.301C186.999 161.539 187.305 161.962 187.388 162.466L188.132 160.49ZM186.321 161.931C185.646 161.677 185.008 162.026 184.65 162.977C184.291 163.929 184.541 164.611 185.216 164.866C185.805 165.087 186.521 164.859 186.909 163.828C187.297 162.796 186.909 162.152 186.321 161.931Z" fill="black"/>
<path d="M192.085 161.736L191.558 163.78C191.916 163.415 192.409 163.246 193.062 163.414C193.995 163.655 194.589 164.641 194.249 165.965C193.902 167.309 192.91 167.862 191.978 167.623C191.324 167.454 190.975 167.068 190.837 166.576L190.681 167.185L189.997 167.009L191.401 161.561L192.085 161.736ZM191.956 166.992C192.655 167.172 193.251 166.757 193.505 165.772C193.758 164.788 193.438 164.137 192.739 163.956C192.13 163.799 191.442 164.103 191.167 165.17C190.893 166.237 191.348 166.835 191.956 166.992Z" fill="black"/>
<path d="M198.466 164.615L196.196 168.623C195.724 169.451 195.474 169.688 194.55 169.516L194.191 169.447L194.301 168.868L194.583 168.92C195.041 169.007 195.268 169.018 195.572 168.41L195.618 168.332L194.909 163.947L195.68 164.093L196.13 167.457L197.741 164.479L198.466 164.615Z" fill="black"/>
<path d="M205.519 165.508L204.753 165.449C204.615 164.808 204.146 164.328 203.24 164.259C202.25 164.182 201.417 164.896 201.305 166.352C201.196 167.775 201.867 168.659 202.896 168.739C203.639 168.795 204.576 168.557 204.665 167.396L204.677 167.249L203.191 167.134L203.243 166.454L205.472 166.625L205.252 169.488L204.633 169.439L204.648 168.732C204.24 169.285 203.565 169.46 202.814 169.401C201.205 169.277 200.37 167.992 200.5 166.29C200.634 164.557 201.751 163.474 203.33 163.596C204.491 163.686 205.37 164.405 205.519 165.508Z" fill="black"/>
<path d="M208.759 166.051C208.612 166.027 208.48 166.02 208.364 166.02C207.711 166.017 207.384 166.364 207.38 167.297L207.372 169.487L206.666 169.484L206.681 165.307L207.372 165.308L207.369 166.038C207.581 165.566 208.001 165.311 208.553 165.29C208.623 165.289 208.677 165.289 208.762 165.297L208.759 166.051Z" fill="black"/>
<path d="M209.159 168.399C209.107 167.415 210.207 167.063 211.902 166.788L211.897 166.686C211.857 165.919 211.426 165.693 210.898 165.721C210.31 165.752 209.993 166.079 209.989 166.6L209.26 166.637C209.275 165.736 210.055 165.19 210.861 165.148C212.031 165.087 212.555 165.596 212.609 166.781L212.652 167.742C212.681 168.448 212.737 168.919 212.842 169.31L212.13 169.348C212.098 169.192 212.066 169.024 212.045 168.776C211.812 169.224 211.399 169.487 210.655 169.525C209.873 169.566 209.199 169.166 209.159 168.399ZM211.986 167.342C210.714 167.534 209.91 167.77 209.94 168.343C209.961 168.737 210.277 168.986 210.78 168.959C211.439 168.925 212.051 168.59 212 167.605L211.986 167.342Z" fill="black"/>
<path d="M214.317 165.59C214.507 165.168 214.869 164.817 215.569 164.729C216.569 164.601 217.013 165.202 217.133 166.149L217.464 168.767L216.763 168.854L216.458 166.445C216.378 165.807 216.2 165.268 215.399 165.367C214.723 165.453 214.364 165.96 214.478 166.86L214.763 169.107L214.062 169.196L213.539 165.055L214.239 164.967L214.317 165.59Z" fill="black"/>
<path d="M217.961 163.361L218.656 163.231L218.849 164.263L219.628 164.117L219.732 164.675L218.953 164.821L219.407 167.257C219.487 167.685 219.537 167.786 219.935 167.712L220.286 167.646L220.395 168.228L219.891 168.321C219.104 168.467 218.888 168.325 218.728 167.472L218.258 164.949L217.608 165.07L217.505 164.514L218.154 164.394L217.961 163.361Z" fill="black"/>
<path d="M223.194 162.475L221.427 162.967L221.244 162.309L225.54 161.11L225.724 161.769L223.957 162.262L225.285 167.029L224.522 167.242L223.194 162.475Z" fill="black"/>
<path d="M227.142 162.738C227.236 162.284 227.515 161.863 228.181 161.626C229.132 161.286 229.695 161.778 230.016 162.679L230.903 165.166L230.237 165.403L229.42 163.113C229.204 162.506 228.914 162.016 228.152 162.287C227.509 162.517 227.268 163.09 227.573 163.946L228.334 166.082L227.668 166.318L225.777 161.014L226.443 160.776L227.142 162.738Z" fill="black"/>
<path d="M234.695 161.281C235.306 162.667 234.627 163.687 233.739 164.078C232.852 164.47 231.641 164.281 231.031 162.897C230.42 161.513 231.098 160.492 231.986 160.101C232.874 159.71 234.084 159.896 234.695 161.281ZM233.489 163.509C234.079 163.251 234.438 162.565 234.006 161.585C233.555 160.563 232.826 160.41 232.236 160.669C231.647 160.929 231.259 161.55 231.719 162.593C232.17 163.616 232.899 163.77 233.489 163.509Z" fill="black"/>
<path d="M236.746 158.673C236.604 158.72 236.483 158.773 236.379 158.827C235.799 159.126 235.669 159.587 236.097 160.415L237.102 162.362L236.473 162.688L234.557 158.972L235.171 158.655L235.506 159.304C235.475 158.786 235.73 158.367 236.21 158.093C236.272 158.061 236.321 158.036 236.4 158.003L236.746 158.673Z" fill="black"/>
<path d="M237.906 157.904C237.911 157.44 238.104 156.975 238.71 156.614C239.577 156.099 240.224 156.474 240.711 157.294L242.059 159.562L241.451 159.922L240.211 157.835C239.882 157.28 239.503 156.855 238.81 157.269C238.223 157.616 238.096 158.225 238.56 159.005L239.717 160.952L239.11 161.313L236.978 157.725L237.585 157.363L237.906 157.904Z" fill="black"/>
<path d="M240.346 154.417L240.932 154.021L241.519 154.891L242.176 154.446L242.494 154.917L241.837 155.361L243.224 157.416C243.468 157.777 243.554 157.849 243.889 157.623L244.186 157.424L244.516 157.913L244.091 158.199C243.428 158.647 243.172 158.604 242.686 157.883L241.25 155.757L240.703 156.126L240.385 155.655L240.933 155.286L240.346 154.417Z" fill="black"/>
<path d="M247.049 153.441C247.967 154.646 247.545 155.796 246.773 156.384C246.001 156.973 244.78 157.073 243.862 155.869C242.945 154.665 243.367 153.514 244.139 152.926C244.91 152.338 246.132 152.236 247.049 153.441ZM246.396 155.89C246.91 155.5 247.1 154.75 246.45 153.897C245.772 153.009 245.028 153.03 244.515 153.42C244.002 153.811 243.77 154.506 244.462 155.413C245.139 156.302 245.884 156.281 246.396 155.89Z" fill="black"/>
<path d="M247.343 151.231C247.259 150.774 247.359 150.28 247.888 149.811C248.642 149.138 249.349 149.382 249.985 150.098L251.741 152.069L251.213 152.54L249.596 150.723C249.167 150.241 248.714 149.896 248.11 150.434C247.6 150.889 247.591 151.51 248.195 152.188L249.705 153.884L249.176 154.354L246.396 151.231L246.925 150.762L247.343 151.231Z" fill="black"/>
<path d="M207.711 155.902C179.77 155.902 157.039 133.17 157.039 105.229C157.039 77.2881 179.77 54.5566 207.711 54.5566C235.652 54.5566 258.384 77.2881 258.384 105.229C258.384 133.17 235.652 155.902 207.711 155.902ZM207.711 55.9736C180.552 55.9736 158.456 78.0698 158.456 105.229C158.456 132.389 180.552 154.484 207.711 154.484C234.871 154.484 256.967 132.389 256.967 105.229C256.967 78.0698 234.871 55.9736 207.711 55.9736Z" fill="#D5091E"/>
<path d="M167.922 105.241C167.922 109.663 164.575 113.737 163.837 117.947C163.079 122.275 164.82 127.243 163.35 131.28C161.854 135.39 157.313 138.072 155.151 141.808C152.97 145.578 152.901 150.847 150.116 154.163C147.322 157.489 142.142 158.464 138.816 161.258C135.5 164.043 133.645 168.979 129.875 171.161C126.139 173.322 120.941 172.474 116.833 173.97C112.795 175.44 109.363 179.443 105.035 180.201C100.826 180.938 96.2382 178.361 91.8179 178.361C87.3967 178.361 82.8077 180.938 78.5977 180.201C74.2693 179.442 70.8373 175.439 66.8 173.969C62.6909 172.473 57.4925 173.32 53.7568 171.158C49.9863 168.976 48.1316 164.04 44.8156 161.254C41.4902 158.461 36.3096 157.485 33.5164 154.159C30.7312 150.843 30.6635 145.574 28.4821 141.804C26.321 138.068 21.7806 135.386 20.2848 131.277C18.8151 127.24 20.5561 122.272 19.798 117.944C19.0609 113.735 15.7144 109.662 15.7144 105.241C15.7144 100.82 19.061 96.7461 19.7985 92.5361C20.5568 88.2077 18.8161 83.2397 20.2861 79.2024C21.7822 75.0933 26.3229 72.4107 28.4845 68.675C30.6663 64.9045 30.7344 59.6354 33.52 56.3194C36.3134 52.994 41.4941 52.0184 44.8197 49.2252C48.1358 46.44 49.9907 41.5037 53.7613 39.3223C57.4967 37.1612 62.6945 38.0085 66.8032 36.5127C70.8404 35.043 74.2724 31.0398 78.6007 30.2818C82.8098 29.5446 87.3977 32.1223 91.8179 32.1223C96.2393 32.1223 100.828 29.5448 105.038 30.2823C109.367 31.0406 112.799 35.0439 116.836 36.5139C120.945 38.01 126.143 37.1633 129.879 39.3249C133.65 41.5066 135.504 46.4431 138.82 49.2286C142.146 52.0221 147.326 52.9981 150.12 56.3237C152.905 59.6398 152.972 64.9088 155.154 68.6793C157.315 72.4147 161.855 75.0971 163.351 79.2057C164.821 83.2429 163.08 88.2108 163.838 92.539C164.575 96.7481 167.922 100.821 167.922 105.241Z" fill="#F3F3F3"/>
<path d="M167.922 105.241C167.922 109.663 164.575 113.737 163.837 117.947C163.079 122.275 164.82 127.243 163.35 131.28C161.854 135.39 157.313 138.072 155.151 141.808C152.97 145.578 152.901 150.847 150.116 154.163C147.322 157.489 142.142 158.464 138.816 161.258C135.5 164.043 133.645 168.979 129.875 171.161C126.139 173.322 120.941 172.474 116.833 173.97C112.795 175.44 109.363 179.443 105.035 180.201C100.826 180.938 96.2382 178.361 91.8179 178.361C87.3967 178.361 82.8077 180.938 78.5977 180.201C74.2693 179.442 70.8373 175.439 66.8 173.969C62.6909 172.473 57.4925 173.32 53.7568 171.158C49.9863 168.976 48.1316 164.04 44.8156 161.254C41.4902 158.461 36.3096 157.485 33.5164 154.159C30.7312 150.843 30.6635 145.574 28.4821 141.804C26.321 138.068 21.7806 135.386 20.2848 131.277C18.8151 127.24 20.5561 122.272 19.798 117.944C19.0609 113.735 15.7144 109.662 15.7144 105.241C15.7144 100.82 19.061 96.7461 19.7985 92.5361C20.5568 88.2077 18.8161 83.2397 20.2861 79.2024C21.7822 75.0933 26.3229 72.4107 28.4845 68.675C30.6663 64.9045 30.7344 59.6354 33.52 56.3194C36.3134 52.994 41.4941 52.0184 44.8197 49.2252C48.1358 46.44 49.9907 41.5037 53.7613 39.3223C57.4967 37.1612 62.6945 38.0085 66.8032 36.5127C70.8404 35.043 74.2724 31.0398 78.6007 30.2818C82.8098 29.5446 87.3977 32.1223 91.8179 32.1223C96.2393 32.1223 100.828 29.5448 105.038 30.2823C109.367 31.0406 112.799 35.0439 116.836 36.5139C120.945 38.01 126.143 37.1633 129.879 39.3249C133.65 41.5066 135.504 46.4431 138.82 49.2286C142.146 52.0221 147.326 52.9981 150.12 56.3237C152.905 59.6398 152.972 64.9088 155.154 68.6793C157.315 72.4147 161.855 75.0971 163.351 79.2057C164.821 83.2429 163.08 88.2108 163.838 92.539C164.575 96.7481 167.922 100.821 167.922 105.241Z" fill="#F0F0F0"/>
<path d="M103.446 181.042C101.481 181.042 99.4844 180.537 97.5376 180.045C95.6396 179.565 93.6772 179.069 91.8179 179.069C89.9585 179.069 87.9956 179.564 86.0977 180.044C83.5811 180.681 80.98 181.338 78.4751 180.898C75.8711 180.442 73.6123 178.906 71.4277 177.421C69.7793 176.3 68.2227 175.241 66.5571 174.635C64.8428 174.011 62.8511 173.806 60.9248 173.607C58.3242 173.34 55.6353 173.063 53.4019 171.771C51.1421 170.464 49.5557 168.26 48.021 166.127C46.8462 164.495 45.7363 162.953 44.3594 161.797C42.9756 160.634 41.2607 159.805 39.4448 158.926C37.085 157.785 34.645 156.604 32.9736 154.615C31.3076 152.632 30.5679 150.028 29.8521 147.511C29.3242 145.652 28.7778 143.73 27.8687 142.159C26.9741 140.612 25.6538 139.258 24.2559 137.823C22.418 135.937 20.5171 133.987 19.6187 131.52C18.7412 129.109 18.938 126.42 19.1284 123.82C19.2705 121.881 19.417 119.877 19.0996 118.066C18.7964 116.333 18.0269 114.621 17.2119 112.809C16.1274 110.396 15.0059 107.901 15.0059 105.241C15.0059 102.581 16.1274 100.085 17.2124 97.6719C18.0269 95.8599 18.7969 94.1479 19.1001 92.4141C19.4175 90.603 19.271 88.5986 19.1294 86.6602C18.939 84.0596 18.7427 81.3701 19.6201 78.9595C20.5186 76.4927 22.4194 74.542 24.2578 72.6553C25.6558 71.2212 26.9761 69.8662 27.8711 68.3198C28.7803 66.7485 29.3267 64.8267 29.8555 62.9678C30.5713 60.4502 31.3115 57.8467 32.9775 55.8633C34.6489 53.874 37.0889 52.6939 39.4482 51.5532C41.2642 50.6748 42.98 49.8452 44.3643 48.6826C45.7407 47.5259 46.8506 45.9844 48.0259 44.3521C49.5601 42.2202 51.147 40.0161 53.4062 38.709C55.6396 37.417 58.3286 37.1406 60.9292 36.8731C62.855 36.6753 64.8467 36.4707 66.561 35.8467C68.2266 35.2402 69.7832 34.1816 71.4321 33.0606C73.6162 31.5757 75.8745 30.04 78.4785 29.5835C80.981 29.1455 83.5825 29.8027 86.0981 30.438C87.9961 30.918 89.9585 31.4141 91.8179 31.4141C93.6777 31.4141 95.6406 30.918 97.5391 30.4385C100.055 29.8032 102.657 29.1475 105.16 29.584C107.764 30.0405 110.023 31.5762 112.208 33.0615C113.856 34.1826 115.413 35.2412 117.079 35.8477C118.793 36.4722 120.785 36.6773 122.711 36.875C125.312 37.1426 128.001 37.419 130.234 38.7114C132.493 40.019 134.08 42.2232 135.614 44.355C136.79 45.9873 137.899 47.5293 139.276 48.686C140.66 49.8486 142.375 50.6782 144.191 51.5566C146.551 52.6978 148.991 53.8779 150.662 55.8682C152.328 57.8511 153.068 60.4546 153.784 62.9722C154.312 64.8311 154.858 66.7529 155.767 68.3242C156.662 69.8706 157.982 71.2251 159.38 72.6592C161.218 74.5459 163.119 76.4961 164.017 78.9634C164.895 81.3735 164.698 84.0625 164.507 86.6631C164.365 88.6016 164.219 90.606 164.536 92.417C164.839 94.1504 165.609 95.8618 166.424 97.6738C167.508 100.086 168.63 102.582 168.63 105.241C168.63 107.902 167.508 110.397 166.423 112.811C165.608 114.624 164.839 116.335 164.536 118.069C164.218 119.88 164.365 121.884 164.506 123.823C164.697 126.423 164.893 129.112 164.016 131.523C163.117 133.99 161.216 135.941 159.377 137.828C157.979 139.262 156.659 140.617 155.765 142.163C154.856 143.734 154.309 145.655 153.781 147.514C153.065 150.032 152.325 152.636 150.658 154.619C148.987 156.609 146.546 157.789 144.187 158.931C142.371 159.809 140.656 160.639 139.272 161.801C137.895 162.957 136.785 164.499 135.61 166.131C134.076 168.263 132.489 170.467 130.229 171.773C127.996 173.065 125.307 173.342 122.706 173.609C120.78 173.808 118.789 174.012 117.075 174.636C115.41 175.242 113.853 176.301 112.204 177.422C110.02 178.907 107.761 180.443 105.157 180.899C104.591 180.998 104.02 181.042 103.446 181.042ZM91.8179 177.651C93.8535 177.651 95.9033 178.17 97.8853 178.671C100.365 179.298 102.707 179.893 104.913 179.503C107.216 179.1 109.347 177.651 111.407 176.25C113.055 175.129 114.759 173.971 116.59 173.304C118.469 172.62 120.549 172.406 122.561 172.199C125.126 171.936 127.549 171.687 129.52 170.547C131.516 169.393 132.946 167.406 134.46 165.303C135.634 163.672 136.848 161.985 138.361 160.715C139.879 159.439 141.755 158.532 143.569 157.655C145.897 156.529 148.096 155.466 149.573 153.707C151.044 151.956 151.711 149.61 152.417 147.126C152.97 145.185 153.541 143.177 154.538 141.453C155.521 139.754 156.965 138.272 158.362 136.839C160.176 134.978 161.89 133.219 162.684 131.038C163.458 128.913 163.28 126.491 163.093 123.926C162.945 121.901 162.792 119.808 163.139 117.825C163.474 115.916 164.316 114.042 165.13 112.23C166.154 109.953 167.213 107.598 167.213 105.241C167.213 102.885 166.154 100.531 165.131 98.2549C164.316 96.4429 163.474 94.5693 163.14 92.6611C162.792 90.6777 162.946 88.584 163.094 86.5596C163.281 83.9951 163.458 81.5732 162.685 79.4478C161.891 77.2671 160.178 75.5098 158.365 73.6484C156.968 72.2153 155.523 70.7329 154.541 69.0342C153.543 67.3101 152.972 65.3018 152.42 63.3599C151.714 60.876 151.047 58.5303 149.577 56.7793C148.101 55.022 145.902 53.9585 143.574 52.8325C141.76 51.9551 139.884 51.0474 138.364 49.771C136.852 48.5005 135.638 46.814 134.464 45.1831C132.95 43.0801 131.521 41.0933 129.524 39.938C127.554 38.7979 125.131 38.5488 122.566 38.2852C120.554 38.0781 118.473 37.8643 116.593 37.1797C114.762 36.5127 113.058 35.354 111.41 34.2339C109.35 32.8325 107.22 31.3838 104.916 30.9805C102.709 30.5933 100.366 31.1856 97.8862 31.8125C95.9038 32.3135 93.854 32.8311 91.8179 32.8311C89.7822 32.8311 87.7324 32.313 85.7505 31.8125C83.2705 31.1856 80.9297 30.5938 78.7227 30.98C76.4194 31.3833 74.2891 32.832 72.229 34.2329C70.5811 35.353 68.8774 36.5117 67.0454 37.1787C65.166 37.8628 63.0859 38.0767 61.0737 38.2832C58.5093 38.5469 56.0864 38.7954 54.1162 39.9356C52.1196 41.0908 50.6899 43.0772 49.1763 45.1802C48.002 46.811 46.7881 48.4976 45.2754 49.7676C43.7559 51.044 41.8799 51.9517 40.0649 52.8291C37.7378 53.9546 35.5391 55.0176 34.0625 56.7754C32.5918 58.5259 31.9248 60.8716 31.2188 63.3555C30.6665 65.2974 30.0952 67.3057 29.0977 69.0298C28.1147 70.729 26.6699 72.2109 25.2729 73.6445C23.4595 75.5059 21.7461 77.2637 20.9521 79.4448C20.1782 81.5698 20.3555 83.9922 20.543 86.5566C20.6909 88.5815 20.8438 90.6748 20.4966 92.6582C20.1621 94.5669 19.3198 96.4409 18.5049 98.2534C17.4814 100.53 16.4229 102.885 16.4229 105.241C16.4229 107.597 17.4814 109.951 18.5049 112.228C19.3193 114.04 20.1616 115.913 20.4961 117.822C20.8433 119.805 20.6899 121.899 20.542 123.923C20.3545 126.488 20.1772 128.91 20.9507 131.035C21.7446 133.215 23.4575 134.973 25.271 136.834C26.668 138.268 28.1123 139.75 29.0952 141.449C30.0928 143.173 30.6636 145.181 31.2158 147.123C31.9214 149.607 32.5884 151.952 34.0586 153.703C35.5352 155.461 37.7339 156.524 40.0615 157.65C41.876 158.528 43.752 159.436 45.271 160.711C46.7832 161.981 47.9971 163.668 49.1714 165.3C50.6851 167.403 52.1152 169.39 54.1118 170.545C56.0825 171.685 58.5049 171.934 61.0698 172.197C63.082 172.404 65.1626 172.618 67.0425 173.303C68.8735 173.97 70.5771 175.128 72.2246 176.249C74.2852 177.649 76.416 179.099 78.7197 179.502C80.9282 179.891 83.2695 179.297 85.7505 178.67C87.7324 178.17 89.7822 177.651 91.8179 177.651Z" fill="black"/>
<path d="M91.8179 155.223C64.2583 155.223 41.8369 132.801 41.8369 105.241C41.8369 77.6816 64.2583 55.2603 91.8179 55.2603C119.377 55.2603 141.799 77.6816 141.799 105.241C141.799 132.801 119.377 155.223 91.8179 155.223ZM91.8179 56.6772C65.0396 56.6772 43.2539 78.4629 43.2539 105.241C43.2539 132.02 65.0396 153.805 91.8179 153.805C118.596 153.805 140.382 132.02 140.382 105.241C140.382 78.4629 118.596 56.6772 91.8179 56.6772Z" fill="#D5091E"/>
<path d="M62.6997 101.706H60.5757V92.7012H62.6997V101.706Z" fill="#D5091E"/>
<path d="M69.2583 95.3096C69.0469 94.6265 68.3887 94.2539 67.4819 94.2539C66.6499 94.2539 66.0537 94.564 66.0537 95.123C66.0537 95.5703 66.4634 95.8931 67.0967 96.0298L68.3267 96.2783C69.7798 96.5762 71.6182 97.0234 71.6182 98.9116C71.6182 100.799 69.73 101.868 67.8423 101.868C65.5068 101.868 64.0288 100.75 63.6938 98.7749H65.8052C66.041 99.7188 66.7861 100.153 67.8916 100.153C68.6245 100.153 69.4321 99.9175 69.4321 99.1724C69.4321 98.5884 68.749 98.3027 67.7554 98.0918L66.6621 97.8682C65.1963 97.5698 63.8677 96.8618 63.8677 95.2471C63.8677 93.4092 65.8423 92.5522 67.606 92.5522C69.3574 92.5522 71.0591 93.3223 71.3574 95.3096H69.2583Z" fill="#D5091E"/>
<path d="M75.0098 92.7012H77.3447L80.748 101.706H78.438L77.8916 100.104H74.4136L73.8794 101.706H71.6191L75.0098 92.7012ZM74.9976 98.3774H77.3203L76.165 94.9492L74.9976 98.3774Z" fill="#D5091E"/>
<path d="M81.5073 92.7012H88.4131V94.564H83.6313V96.1416H88.1523V98.0171H83.6313V99.8306H88.4131V101.706H81.5073V92.7012Z" fill="#D5091E"/>
<path d="M96.9478 99.0977C96.9478 98.3027 96.165 97.9424 95.0098 97.9424H94.4136V96.2534H94.9478C96.1279 96.2534 96.8359 95.8682 96.8359 95.0732C96.8359 94.415 96.1772 94.0674 95.5068 94.0674C94.7368 94.0674 94.0659 94.3652 93.9292 95.3218H91.9048C92.1035 93.3472 93.7925 92.5522 95.606 92.5522C97.1958 92.5522 98.8975 93.2598 98.8975 94.8994C98.8975 95.8438 98.2764 96.5889 97.6431 96.9487C98.5376 97.3091 99.0469 98.2529 99.0469 99.0854C99.0469 100.936 97.3574 101.868 95.4697 101.868C93.6807 101.868 92.0288 100.973 91.793 98.8867H93.8301C93.9668 99.9424 94.7119 100.352 95.5068 100.352C96.4009 100.352 96.9478 99.9297 96.9478 99.0977Z" fill="#D5091E"/>
<path d="M107.32 99.8057H106.078V101.706H104.029V99.8057H99.6445V98.2036L104.178 92.7012H106.078V98.0049H107.32V99.8057ZM101.893 98.0049H104.029V95.3716L101.893 98.0049Z" fill="#D5091E"/>
<path d="M107.992 97.1851C107.992 94.3159 109.321 92.5522 111.855 92.5522C114.376 92.5522 115.705 94.3159 115.705 97.1851C115.705 100.066 114.376 101.868 111.855 101.868C109.321 101.868 107.992 100.066 107.992 97.1851ZM113.606 97.1851C113.606 95.0112 112.898 94.0674 111.855 94.0674C110.799 94.0674 110.091 95.0112 110.091 97.1851C110.091 99.3711 110.799 100.352 111.855 100.352C112.898 100.352 113.606 99.3711 113.606 97.1851Z" fill="#D5091E"/>
<path d="M123.469 95.0859C123.469 96.9736 121.855 98.5015 119.197 100.029H123.507V101.706H116.588V100.029C119.01 98.2656 121.408 96.688 121.408 95.21C121.408 94.4277 120.836 94.0674 120.153 94.0674C119.42 94.0674 118.65 94.5146 118.712 95.9429H116.688C116.625 93.8066 118.128 92.5522 120.215 92.5522C122.103 92.5522 123.469 93.4961 123.469 95.0859Z" fill="#D5091E"/>
<path d="M80.7896 108.61H77.8584V107.518H84.9878V108.61H82.0566V116.522H80.7896V108.61Z" fill="#D5091E"/>
<path d="M90.0317 109.84L87.647 116.808C87.1499 118.249 86.8271 118.696 85.3242 118.696H84.7402V117.752H85.2002C85.9453 117.752 86.3057 117.703 86.6035 116.659L86.6533 116.522L84.2437 109.84H85.498L87.1997 114.995L88.8516 109.84H90.0317Z" fill="#D5091E"/>
<path d="M92.0566 109.84V110.896C92.4668 110.188 93.1621 109.729 94.2427 109.729C95.7832 109.729 97.0996 111.02 97.0996 113.206C97.0996 115.43 95.7832 116.684 94.2427 116.684C93.1621 116.684 92.4668 116.225 92.0566 115.517V118.696H90.9268V109.84H92.0566ZM93.957 115.715C95.1123 115.715 95.8701 114.833 95.8701 113.206C95.8701 111.579 95.1123 110.697 93.957 110.697C92.9512 110.697 92.0073 111.442 92.0073 113.206C92.0073 114.97 92.9512 115.715 93.957 115.715Z" fill="#D5091E"/>
<path d="M99.2866 113.554C99.3242 114.995 100.367 115.69 101.349 115.69C102.342 115.69 102.889 115.243 103.174 114.585H104.342C104.044 115.728 102.976 116.684 101.349 116.684C99.2368 116.684 98.0693 115.168 98.0693 113.194C98.0693 111.07 99.4854 109.729 101.312 109.729C103.361 109.729 104.565 111.43 104.429 113.554H99.2866ZM99.2993 112.585H103.236C103.199 111.641 102.516 110.697 101.312 110.697C100.317 110.697 99.3984 111.244 99.2993 112.585Z" fill="#D5091E"/>
<path d="M110.032 116.522V109.48H107.945V108.71C109.237 108.673 109.896 108.486 110.392 107.518H111.163V116.522H110.032Z" fill="#D5091E"/>
<path d="M73.9526 48.1196C74.3066 50.1147 73.2407 51.6519 71.4243 52.3623C69.019 53.3037 66.9082 52.0347 65.9136 49.4907C64.8999 46.8999 65.7598 44.5635 68.1191 43.6401C69.854 42.9614 71.6455 43.4478 72.7158 45.0962L71.5713 45.5439C70.9165 44.5864 69.7798 44.1372 68.4512 44.6577C66.9702 45.2363 66.2666 46.8457 67.1167 49.0205C67.9492 51.148 69.5425 51.9512 71.105 51.3403C72.4575 50.8115 72.9619 49.7476 72.8071 48.5674L73.9526 48.1196Z" fill="black"/>
<path d="M76.1743 47.4873C76.541 48.8809 77.7163 49.3179 78.6714 49.0933C79.6377 48.8647 80.0679 48.3042 80.1943 47.5986L81.3296 47.3301C81.3022 48.5107 80.4824 49.6865 78.8994 50.0601C76.8442 50.5444 75.3599 49.3379 74.9077 47.4165C74.4194 45.3491 75.4907 43.7188 77.2666 43.2998C79.2612 42.8291 80.8242 44.209 81.1787 46.3066L76.1743 47.4873ZM75.9643 46.5415L79.7954 45.6382C79.5425 44.7275 78.6606 43.9663 77.4897 44.2427C76.5224 44.4712 75.7524 45.2134 75.9643 46.5415Z" fill="black"/>
<path d="M85.5181 43.2031C85.2803 43.1973 85.0693 43.2129 84.8843 43.2373C83.8506 43.3745 83.4082 43.9966 83.6035 45.4736L84.0649 48.9443L82.9443 49.0933L82.0649 42.4717L83.1606 42.3267L83.3144 43.4834C83.5469 42.6885 84.1577 42.1938 85.0268 42.0405C85.1367 42.0264 85.2236 42.0151 85.3608 42.0098L85.5181 43.2031Z" fill="black"/>
<path d="M86.9785 40.2256L88.1079 40.1572L88.2104 41.8315L89.4751 41.7539L89.5307 42.6602L88.2656 42.7373L88.5078 46.6943C88.5503 47.3896 88.6108 47.5605 89.2558 47.521L89.8266 47.4858L89.8843 48.4287L89.0664 48.4785C87.7876 48.5566 87.4717 48.2896 87.3872 46.8999L87.1362 42.8062L86.0825 42.8711L86.0273 41.9653L87.081 41.9009L86.9785 40.2256Z" fill="black"/>
<path d="M92.3037 39.4165L92.3052 40.7827L91.1753 40.7837L91.1733 39.4175L92.3037 39.4165ZM92.3066 41.7388L92.3115 48.4199L91.1811 48.4209L91.1763 41.7397L92.3066 41.7388Z" fill="black"/>
<path d="M94.6889 41.3105C94.7734 39.9219 95.0732 39.4922 96.5986 39.585L97.1821 39.6201L97.1245 40.5625L96.5664 40.5283C95.9712 40.4927 95.8633 40.6226 95.8218 41.3174L95.7886 41.8628L97.0415 41.939L96.9863 42.8437L95.7334 42.7681L95.3838 48.5337L94.2549 48.4653L94.6055 42.6992L93.6753 42.6431L93.7305 41.7383L94.6601 41.7944L94.6889 41.3105Z" fill="black"/>
<path d="M99.6269 42.2168L98.8706 48.8555L97.748 48.7275L98.5034 42.0889L99.6269 42.2168ZM99.8896 39.9087L99.7348 41.2666L98.6123 41.1387L98.7671 39.7808L99.8896 39.9087Z" fill="black"/>
<path d="M101.788 46.2529C101.54 47.6724 102.425 48.5601 103.386 48.7539C104.36 48.9497 104.983 48.6196 105.394 48.0312L106.537 48.2617C106.02 49.3227 104.783 50.0483 103.19 49.7275C101.121 49.3105 100.276 47.5952 100.666 45.6602C101.086 43.5786 102.738 42.5439 104.527 42.9043C106.536 43.3091 107.38 45.2143 106.826 47.2685L101.788 46.2529ZM101.992 45.3061L105.85 46.084C105.999 45.1514 105.516 44.0918 104.336 43.854C103.362 43.6577 102.353 44.0117 101.992 45.3061Z" fill="black"/>
<path d="M114.543 43.4248L115.614 43.7876L112.729 52.3179L111.658 51.9565L111.98 51.0029C111.367 51.5425 110.561 51.7554 109.537 51.4092C108.077 50.916 107.231 49.3062 107.943 47.1992C108.644 45.1284 110.304 44.3262 111.765 44.8193C112.789 45.166 113.299 45.8237 113.461 46.626L114.543 43.4248ZM111.725 45.8291C110.63 45.459 109.63 46.0522 109.108 47.5933C108.588 49.1348 109.022 50.2129 110.118 50.583C111.07 50.9053 112.204 50.5015 112.768 48.8301C113.333 47.1597 112.678 46.1514 111.725 45.8291Z" fill="black"/>
<path d="M36.7334 136.182C37.5786 135.674 38.4082 136.48 39.4487 137.848L39.5352 137.795C40.1943 137.4 40.1909 136.913 39.9189 136.46C39.6147 135.954 39.1763 135.829 38.7144 136.069L38.3379 135.444C39.1421 135.033 39.9907 135.465 40.4072 136.157C41.0117 137.163 40.8081 137.864 39.7866 138.469L38.957 138.96C38.3472 139.317 37.9575 139.588 37.6621 139.866L37.2935 139.253C37.415 139.154 37.5488 139.045 37.7578 138.91C37.2534 138.915 36.8267 138.673 36.4429 138.034C36.0381 137.362 36.0747 136.578 36.7334 136.182ZM38.9976 138.184C38.2305 137.149 37.6436 136.55 37.1509 136.846C36.812 137.05 36.7417 137.447 37.002 137.879C37.3418 138.445 37.9263 138.827 38.7715 138.319L38.9976 138.184Z" fill="#020203"/>
<path d="M40.3086 142.649C39.8462 142.68 39.3794 142.544 38.9809 141.978C38.4267 141.192 38.7456 140.511 39.5264 139.961L41.7114 138.422L42.1177 139.001L40.105 140.418C39.5776 140.79 39.1787 141.193 39.626 141.829C40.0151 142.381 40.6133 142.435 41.3564 141.913L43.2358 140.587L43.6435 141.166L40.2266 143.572L39.8198 142.994L40.3086 142.649Z" fill="#020203"/>
<path d="M47.2334 143.302L47.6826 143.848L43.333 147.429L42.8838 146.883L43.3696 146.483C42.8647 146.567 42.3657 146.414 41.9365 145.891C41.3237 145.147 41.4067 144.012 42.4805 143.128C43.5356 142.259 44.6841 142.381 45.2964 143.126C45.7261 143.647 45.7803 144.166 45.6011 144.646L47.2334 143.302ZM44.9419 143.649C44.4829 143.091 43.7554 143.076 42.9692 143.722C42.1831 144.369 42.0586 145.086 42.5181 145.644C42.918 146.13 43.6533 146.29 44.5054 145.588C45.3569 144.886 45.3413 144.133 44.9419 143.649Z" fill="#020203"/>
<path d="M47.7754 146.088L44.6978 148.91L44.2207 148.388L47.2983 145.568L47.7754 146.088ZM48.8447 145.108L48.2158 145.685L47.7388 145.165L48.3682 144.587L48.8447 145.108Z" fill="#020203"/>
<path d="M49.4028 146.288L49.8979 146.791L49.1523 147.526L49.7075 148.089L49.3042 148.487L48.749 147.923L46.9873 149.66C46.6777 149.965 46.6221 150.064 46.9053 150.35L47.1553 150.605L46.7358 151.019L46.3765 150.654C45.8159 150.084 45.8125 149.827 46.4311 149.218L48.2539 147.42L47.791 146.952L48.1938 146.554L48.6567 147.023L49.4028 146.288Z" fill="#020203"/>
<path d="M49.0381 150.662C48.4502 151.346 48.6426 152.106 49.0972 152.52C49.5581 152.936 49.999 152.958 50.4082 152.771L50.9497 153.262C50.3315 153.667 49.435 153.661 48.6806 152.98C47.7012 152.094 47.7959 150.9 48.6245 149.984C49.5161 149 50.7353 148.971 51.5825 149.737C52.5327 150.597 52.3774 151.892 51.4223 152.82L49.0381 150.662ZM49.4502 150.217L51.2764 151.871C51.6553 151.418 51.7344 150.692 51.1758 150.187C50.7148 149.769 50.0591 149.636 49.4502 150.217Z" fill="#020203"/>
<path d="M56.7642 152.234L57.3218 152.668L53.8696 157.111L53.312 156.678L53.6982 156.182C53.2246 156.374 52.7046 156.335 52.1714 155.921C51.4116 155.33 51.2422 154.206 52.0952 153.109C52.9331 152.03 54.0776 151.897 54.8379 152.488C55.3716 152.902 55.5381 153.396 55.4692 153.902L56.7642 152.234ZM54.6074 153.075C54.0371 152.633 53.3252 152.776 52.7017 153.58C52.0781 154.383 52.1138 155.109 52.6841 155.553C53.1807 155.938 53.9321 155.932 54.6079 155.062C55.2847 154.19 55.104 153.461 54.6074 153.075Z" fill="#020203"/>
<path d="M60.1709 154.594L59.063 156.39C59.5132 156.148 60.0337 156.133 60.6084 156.486C61.4272 156.991 61.7036 158.109 60.9868 159.273C60.2583 160.455 59.146 160.689 58.3276 160.186C57.7529 159.83 57.5332 159.358 57.5474 158.848L57.2178 159.382L56.6167 159.012L59.5698 154.224L60.1709 154.594ZM58.4927 159.576C59.1069 159.955 59.7993 159.734 60.333 158.869C60.8667 158.004 60.7529 157.287 60.1387 156.907C59.6035 156.577 58.8569 156.664 58.2788 157.603C57.7002 158.541 57.958 159.246 58.4927 159.576Z" fill="#020203"/>
<path d="M65.4136 159.231L62.0596 162.388C61.3638 163.039 61.0547 163.191 60.2236 162.753L59.9014 162.582L60.1768 162.061L60.4307 162.194C60.8433 162.412 61.0566 162.489 61.5259 162L61.5938 161.938L62.2134 157.541L62.9072 157.907L62.3418 161.255L64.7617 158.887L65.4136 159.231Z" fill="#020203"/>
<path d="M69.7935 159.578C71.0659 160.096 71.8408 160.744 71.3174 162.031C70.792 163.325 69.7866 163.244 68.5142 162.728L67.6157 162.362L66.7778 164.426L66.0444 164.127L68.1611 158.916L69.7935 159.578ZM68.6436 159.831L67.875 161.722L68.8315 162.111C69.6011 162.423 70.2227 162.584 70.5698 161.729C70.915 160.88 70.3691 160.532 69.5996 160.221L68.6436 159.831Z" fill="#020203"/>
<path d="M73.7559 163.334C73.624 163.265 73.501 163.215 73.3911 163.178C72.772 162.972 72.3525 163.199 72.0566 164.083L71.3608 166.157L70.6919 165.933L72.0181 161.975L72.6733 162.193L72.4414 162.885C72.7905 162.503 73.269 162.394 73.7993 162.546C73.8652 162.568 73.917 162.586 73.9951 162.62L73.7559 163.334Z" fill="#020203"/>
<path d="M75.2993 163.01L74.1235 167.017L73.4458 166.819L74.6216 162.813L75.2993 163.01ZM75.7075 161.617L75.4673 162.437L74.79 162.237L75.0303 161.419L75.7075 161.617Z" fill="#020203"/>
<path d="M79.3984 165.477L78.7021 165.311C78.7192 164.804 78.3838 164.365 77.8472 164.236C77.2422 164.094 76.562 164.436 76.3198 165.456C76.0757 166.484 76.5244 167.119 77.1284 167.262C77.7109 167.399 78.2056 167.102 78.4038 166.701L79.1147 166.871C78.7895 167.6 77.915 168.087 76.9624 167.861C75.7905 167.583 75.2749 166.525 75.5693 165.286C75.8569 164.076 76.8266 163.355 78.0361 163.644C79.0268 163.878 79.4648 164.757 79.3984 165.477Z" fill="#020203"/>
<path d="M80.6382 166.646C80.5171 167.537 81.0923 168.07 81.6973 168.169C82.31 168.268 82.6924 168.047 82.9341 167.668L83.6543 167.784C83.3564 168.46 82.602 168.943 81.5981 168.781C80.2959 168.571 79.7261 167.52 79.9233 166.302C80.1352 164.992 81.1426 164.305 82.269 164.486C83.5332 164.691 84.1069 165.861 83.8105 167.158L80.6382 166.646ZM80.7422 166.048L83.1719 166.441C83.2432 165.855 82.9155 165.204 82.1724 165.084C81.5591 164.985 80.938 165.23 80.7422 166.048Z" fill="#020203"/>
<path d="M86.7852 165.101L87.5137 165.157L88.1064 168.303L89.1392 165.282L89.8984 165.339L88.3799 169.413L87.7373 169.364L87.0718 165.941L85.9248 169.227L85.2827 169.178L84.4004 164.92L85.1592 164.978L85.7212 168.12L86.7852 165.101Z" fill="#020203"/>
<path d="M90.1294 168.387C90.1265 167.4 91.2436 167.103 92.9517 166.911V166.811C92.9492 166.042 92.5288 165.794 92.001 165.795C91.4106 165.797 91.0776 166.109 91.0483 166.63L90.3179 166.631C90.3779 165.731 91.1841 165.224 91.9917 165.222C93.1645 165.218 93.6626 165.752 93.6587 166.94L93.6533 167.904C93.6475 168.61 93.6797 169.084 93.7671 169.48L93.0522 169.482C93.0283 169.326 93.0044 169.155 92.9966 168.908C92.7407 169.343 92.3144 169.585 91.5688 169.587C90.7847 169.589 90.1313 169.156 90.1294 168.387ZM93.0083 167.471C91.727 167.599 90.9116 167.795 90.9131 168.369C90.9145 168.765 91.2183 169.029 91.7231 169.027C92.3833 169.026 93.0112 168.721 93.0088 167.734L93.0083 167.471Z" fill="#020203"/>
<path d="M94.9019 164.17L95.6084 164.136L95.6587 165.184L96.4497 165.146L96.4771 165.712L95.686 165.749L95.8047 168.225C95.8257 168.659 95.8618 168.767 96.2651 168.747L96.6226 168.73L96.6509 169.318L96.1382 169.344C95.3394 169.382 95.1445 169.213 95.103 168.345L94.9795 165.783L94.3203 165.814L94.293 165.249L94.9521 165.217L94.9019 164.17Z" fill="#020203"/>
<path d="M97.8755 167.344C98.0039 168.235 98.7022 168.592 99.3115 168.521C99.9277 168.447 100.235 168.13 100.364 167.701L101.089 167.615C100.987 168.347 100.393 169.019 99.3833 169.137C98.0732 169.291 97.2378 168.435 97.0933 167.21C96.939 165.891 97.7202 164.955 98.8535 164.821C100.125 164.674 100.998 165.641 101.067 166.97L97.8755 167.344ZM97.813 166.742L100.257 166.456C100.165 165.872 99.6719 165.336 98.9238 165.423C98.3071 165.496 97.7769 165.902 97.813 166.742Z" fill="#020203"/>
<path d="M103.737 164.879C103.587 164.882 103.456 164.897 103.342 164.918C102.699 165.031 102.439 165.434 102.602 166.351L102.985 168.508L102.29 168.632L101.558 164.517L102.238 164.396L102.367 165.114C102.49 164.611 102.858 164.285 103.397 164.166C103.466 164.153 103.52 164.145 103.605 164.137L103.737 164.879Z" fill="#020203"/>
<path d="M105.074 164.488C105.215 164.048 105.536 163.659 106.224 163.494C107.204 163.259 107.711 163.807 107.934 164.735L108.549 167.3L107.863 167.466L107.296 165.105C107.146 164.478 106.91 163.959 106.125 164.148C105.461 164.308 105.16 164.852 105.373 165.734L105.901 167.936L105.215 168.102L103.901 162.631L104.588 162.467L105.074 164.488Z" fill="#020203"/>
<path d="M112.745 163.836C113.207 165.275 112.426 166.218 111.502 166.515C110.579 166.811 109.395 166.498 108.934 165.058C108.472 163.616 109.253 162.674 110.176 162.378C111.1 162.081 112.283 162.396 112.745 163.836ZM111.312 165.923C111.926 165.728 112.355 165.084 112.029 164.064C111.688 163.002 110.979 162.772 110.366 162.969C109.752 163.165 109.302 163.74 109.65 164.827C109.991 165.891 110.7 166.119 111.312 165.923Z" fill="#020203"/>
<path d="M116.609 163.882C116.534 164.34 116.296 164.764 115.655 165.023C114.763 165.386 114.171 164.921 113.812 164.036L112.807 161.56L113.462 161.294L114.389 163.576C114.631 164.174 114.935 164.653 115.655 164.361C116.281 164.107 116.468 163.537 116.126 162.695L115.262 160.563L115.917 160.298L117.488 164.17L116.833 164.437L116.609 163.882Z" fill="#020203"/>
<path d="M119.579 159.903C119.256 159.51 118.837 159.499 118.391 159.717C118.021 159.897 117.671 160.241 117.835 160.576C117.982 160.875 118.256 160.906 118.656 160.805L119.237 160.65C119.981 160.441 120.713 160.421 121.064 161.138C121.429 161.884 120.965 162.628 120.108 163.048C119.132 163.525 118.258 163.15 117.86 162.533L118.529 162.205C118.87 162.635 119.302 162.777 119.859 162.505C120.34 162.271 120.631 161.877 120.458 161.521C120.267 161.131 119.843 161.165 119.395 161.272L118.783 161.434C118.219 161.572 117.552 161.621 117.208 160.918C116.883 160.256 117.365 159.545 118.195 159.139C119.023 158.733 119.772 158.92 120.241 159.579L119.579 159.903Z" fill="#020203"/>
<path d="M122.072 159.832C122.544 160.598 123.327 160.646 123.856 160.338C124.393 160.025 124.547 159.613 124.496 159.168L125.126 158.802C125.324 159.513 125.047 160.363 124.168 160.875C123.028 161.538 121.921 161.086 121.302 160.02C120.635 158.872 120.979 157.703 121.965 157.129C123.072 156.487 124.256 157.027 124.849 158.218L122.072 159.832ZM121.775 159.305L123.901 158.068C123.584 157.57 122.919 157.275 122.269 157.653C121.732 157.966 121.407 158.549 121.775 159.305Z" fill="#020203"/>
<path d="M129.681 154.971C130.19 156.132 129.769 157.225 128.77 157.925C127.445 158.852 125.975 158.392 124.995 156.991C123.996 155.564 124.174 154.018 125.473 153.106C126.428 152.438 127.588 152.47 128.483 153.313L127.853 153.756C127.313 153.271 126.556 153.164 125.824 153.678C125.009 154.248 124.818 155.33 125.657 156.527C126.477 157.699 127.564 157.952 128.425 157.351C129.169 156.828 129.319 156.106 129.051 155.412L129.681 154.971Z" fill="#020203"/>
<path d="M133.154 151.729C134.123 152.893 133.751 154.061 133.006 154.682C132.259 155.304 131.043 155.456 130.075 154.293C129.106 153.13 129.478 151.961 130.224 151.34C130.969 150.718 132.185 150.566 133.154 151.729ZM132.608 154.204C133.104 153.792 133.261 153.034 132.575 152.211C131.86 151.352 131.116 151.405 130.621 151.817C130.125 152.23 129.923 152.934 130.654 153.811C131.37 154.67 132.113 154.616 132.608 154.204Z" fill="#020203"/>
<path d="M136.585 148.422C137.642 149.51 137.361 150.704 136.665 151.381C135.968 152.059 134.767 152.306 133.711 151.219C132.654 150.131 132.935 148.938 133.632 148.261C134.328 147.584 135.529 147.337 136.585 148.422ZM136.232 150.935C136.694 150.486 136.792 149.718 136.045 148.949C135.265 148.146 134.527 148.257 134.065 148.707C133.602 149.157 133.455 149.875 134.251 150.693C135.031 151.495 135.769 151.385 136.232 150.935Z" fill="#020203"/>
<path d="M136.136 145.8L136.631 146.237C136.468 145.752 136.541 145.237 136.987 144.731C137.624 144.009 138.772 143.926 139.796 144.83C140.837 145.748 140.881 146.883 140.245 147.606C139.798 148.112 139.295 148.247 138.794 148.146L140.283 149.46L139.816 149.99L135.669 146.33L136.136 145.8ZM139.673 147.338C140.15 146.796 140.051 146.079 139.288 145.406C138.526 144.734 137.8 144.724 137.323 145.264C136.907 145.736 136.866 146.485 137.692 147.214C138.518 147.943 139.257 147.809 139.673 147.338Z" fill="#020203"/>
<path d="M140.87 143.804C141.604 144.33 142.344 144.071 142.714 143.581C143.088 143.085 143.071 142.643 142.85 142.252L143.29 141.67C143.748 142.249 143.823 143.142 143.21 143.955C142.414 145.009 141.217 145.021 140.231 144.278C139.171 143.476 139.036 142.264 139.724 141.353C140.496 140.33 141.799 140.37 142.808 141.238L140.87 143.804ZM140.391 143.433L141.875 141.467C141.39 141.13 140.661 141.117 140.208 141.718C139.833 142.213 139.759 142.879 140.391 143.433Z" fill="#020203"/>
<path d="M143.154 137.849C143.054 137.959 142.974 138.064 142.91 138.162C142.549 138.706 142.659 139.169 143.435 139.685L145.259 140.897L144.868 141.485L141.389 139.173L141.771 138.598L142.379 139.001C142.101 138.565 142.119 138.074 142.405 137.602C142.443 137.544 142.474 137.498 142.527 137.433L143.154 137.849Z" fill="#020203"/>
<path d="M145.131 135.494C144.644 135.342 144.288 135.565 144.036 135.994C143.828 136.348 143.726 136.828 144.047 137.016C144.334 137.185 144.579 137.06 144.857 136.755L145.256 136.304C145.762 135.721 146.361 135.298 147.05 135.704C147.765 136.125 147.79 137.002 147.305 137.825C146.755 138.761 145.819 138.931 145.147 138.635L145.525 137.993C146.045 138.165 146.484 138.044 146.798 137.509C147.07 137.047 147.096 136.559 146.755 136.358C146.38 136.138 146.046 136.4 145.731 136.738L145.31 137.21C144.916 137.635 144.387 138.044 143.711 137.648C143.077 137.274 143.086 136.416 143.554 135.62C144.022 134.825 144.748 134.567 145.504 134.858L145.131 135.494Z" fill="#020203"/>
</svg>
