<?xml version="1.0" encoding="utf-8"?>
<svg id="Layer_1" data-name="Layer 1" xmlns="http://www.w3.org/2000/svg" viewBox="0 0 1000 1000"><defs><style>.cls-1{fill:#ddd;}.cls-2{fill:#fbfbfb;}.cls-3{fill:#cf122d;}.cls-4{fill:#262626;}</style></defs><path class="cls-1" d="M321.17,315.5H777.83a23.67,23.67,0,0,1,23.67,23.67v243a21.33,21.33,0,0,1-21.33,21.33H318.83a21.33,21.33,0,0,1-21.33-21.33v-243A23.67,23.67,0,0,1,321.17,315.5Z"/><rect class="cls-1" x="297.5" y="612.5" width="504" height="27" rx="9.09"/><rect class="cls-2" x="315.5" y="333.5" width="468" height="252"/><rect class="cls-3" x="541.65" y="451.65" width="19.49" height="19.49"/><path class="cls-4" d="M575.76,427.29a24.37,24.37,0,0,0-48.73,0h-9.74V495.5H585.5V427.29Zm-24.37-14.62A14.62,14.62,0,0,1,566,427.29H536.78A14.62,14.62,0,0,1,551.39,412.67Zm24.37,73.09H527V437h48.73Z"/><rect class="cls-1" x="198.5" y="396.5" width="144" height="288" rx="35.56"/><rect class="cls-2" x="207.5" y="405.5" width="126" height="270" rx="24.89"/><rect class="cls-3" x="265.22" y="532.01" width="14.35" height="14.35"/><path class="cls-4" d="M290.33,514.08a17.94,17.94,0,1,0-35.87,0h-7.17v50.21H297.5V514.08Zm-17.94-10.76a10.75,10.75,0,0,1,10.76,10.76H261.64A10.75,10.75,0,0,1,272.39,503.32Zm17.94,53.79H254.46V521.25h35.87Z"/></svg>